<svg width="60" height="60" viewBox="0 0 60 60" fill="none" xmlns="http://www.w3.org/2000/svg">
<mask id="mask0" mask-type="alpha" maskUnits="userSpaceOnUse" x="0" y="0" width="60" height="60">
<rect width="60" height="60" fill="#C4C4C4"/>
</mask>
<g mask="url(#mask0)">
<g clip-path="url(#clip0)">
<path d="M38.6654 29.4604C38.8425 29.5863 39.0289 29.6347 39.2246 29.596C39.383 29.567 39.5322 29.4992 39.6906 29.3927C39.8491 29.2861 39.9982 29.1602 40.1473 29.015C40.3337 28.8407 40.4642 28.647 40.5481 28.4436C40.6319 28.2403 40.6785 28.0563 40.6785 27.882C40.6785 27.7173 40.6413 27.5915 40.5667 27.4946C40.4921 27.3978 40.3803 27.359 40.2498 27.3784C40.2125 27.3881 40.1659 27.4075 40.1007 27.4365C39.9982 27.4849 39.8863 27.5624 39.7838 27.6592C39.6813 27.7561 39.5788 27.8626 39.4856 27.9885C39.3924 28.1144 39.2992 28.2403 39.2153 28.3855C39.1314 28.5211 39.0475 28.6567 38.9823 28.7923C38.9077 28.9278 38.8518 29.0537 38.7959 29.1699C38.74 29.2764 38.6934 29.3733 38.6654 29.4604ZM38.7866 29.1699C38.5442 29.5863 38.2833 30.0027 37.9944 30.4191C37.7054 30.8355 37.4258 31.2132 37.1276 31.5521C36.8014 31.9298 36.4845 32.2494 36.1676 32.5012C35.8507 32.7529 35.5525 32.8982 35.2543 32.9563C35.217 32.9563 35.189 32.9563 35.1517 32.9563C35.1238 32.9563 35.0865 32.9563 35.0585 32.9563C34.8815 32.9273 34.7882 32.7723 34.7696 32.5108V32.385C34.7696 32.2784 34.7789 32.1429 34.7976 31.9976C34.8162 31.8523 34.8442 31.6877 34.8814 31.5134C34.9746 31.1067 35.1238 30.6225 35.3381 30.0608C35.5432 29.4992 35.8228 28.8504 36.1769 28.095C36.1397 28.1144 36.0931 28.1241 36.0371 28.1338C35.9905 28.1434 35.9439 28.1531 35.9067 28.1531C35.7389 28.1822 35.5805 28.1919 35.4313 28.1822C35.2822 28.1725 35.1517 28.1434 35.0306 28.0757C34.9374 28.3855 34.8162 28.7051 34.6857 29.0344C34.5459 29.3539 34.3875 29.6735 34.2104 29.9834L33.3064 30.3804C33.4368 30.148 33.558 29.9156 33.6698 29.6638C33.7817 29.4217 33.8749 29.1699 33.9588 28.9278C34.0426 28.6857 34.1172 28.4436 34.1731 28.2112C34.2384 27.9788 34.285 27.7561 34.3129 27.5527C34.3222 27.5237 34.3222 27.4946 34.3222 27.4753C34.3222 27.4559 34.3316 27.4268 34.3409 27.3978C34.3036 27.3397 34.2756 27.2622 34.2384 27.1847C34.2104 27.1073 34.1824 27.0201 34.1638 26.9426C34.1452 26.8652 34.1265 26.778 34.1172 26.6909C34.1079 26.6037 34.0986 26.5359 34.0986 26.4681L34.1079 26.3422C34.1452 26.1098 34.2477 25.9162 34.4061 25.7612C34.5646 25.6063 34.7882 25.5094 35.0678 25.461C35.1331 25.4513 35.1704 25.4513 35.2077 25.461C35.2729 25.4804 35.3195 25.5288 35.3568 25.616C35.3941 25.7031 35.4127 25.8096 35.4127 25.9452C35.4127 26.0905 35.4127 26.226 35.4034 26.3422C35.3941 26.4585 35.3847 26.5747 35.3661 26.7005C35.422 26.8168 35.4966 26.9136 35.5805 27.0007C35.6923 27.1266 35.8228 27.2332 35.9812 27.3009C36.1303 27.3687 36.2981 27.3881 36.4938 27.359C36.5591 27.3494 36.6336 27.33 36.6989 27.3009C36.7734 27.2719 36.848 27.2332 36.9225 27.1944L37.3233 27.2428C36.9319 28.0466 36.6243 28.7535 36.382 29.3636C36.149 29.9737 35.9812 30.4869 35.888 30.913C35.8507 31.068 35.8228 31.2132 35.8041 31.3391C35.7855 31.465 35.7762 31.5812 35.7762 31.678C35.7762 31.8233 35.7948 31.9298 35.8321 31.9976C35.8694 32.0654 35.916 32.1041 35.9719 32.1332C36.149 31.9686 36.3261 31.7942 36.4938 31.5909C36.6616 31.3972 36.82 31.1842 36.9785 30.9614C37.1369 30.7387 37.286 30.516 37.4352 30.2739C37.5843 30.0318 37.7334 29.7994 37.8825 29.5573L38.7866 29.1699ZM31.4796 29.2571C31.3585 29.1796 31.228 29.1312 31.0695 29.1118C30.9111 29.0925 30.7527 29.0925 30.5942 29.1215C30.5569 29.1312 30.529 29.1312 30.4917 29.1409C30.4544 29.1506 30.4265 29.1602 30.3892 29.1699H30.3705C30.2866 29.199 30.1934 29.2571 30.1002 29.3152C30.007 29.383 29.9045 29.4798 29.802 29.596C29.6436 29.78 29.4758 30.0027 29.3174 30.2836C29.1589 30.5547 28.9912 30.8936 28.8234 31.281C28.7954 31.3488 28.7582 31.4456 28.7116 31.5812C28.665 31.7071 28.6184 31.8427 28.5811 31.9879C28.5438 32.1332 28.5065 32.2881 28.4692 32.4431C28.4413 32.598 28.4226 32.7433 28.4226 32.8788C28.4226 32.9466 28.4226 33.0144 28.4413 33.0822C28.4506 33.15 28.4692 33.2081 28.4972 33.2662C28.5252 33.3243 28.5624 33.363 28.5997 33.3921C28.6463 33.4211 28.7022 33.4308 28.7675 33.4211C28.8607 33.4018 28.9632 33.3437 29.0844 33.2274C29.2055 33.1209 29.336 32.9757 29.4665 32.8207C29.597 32.6561 29.7368 32.4818 29.8672 32.2881C30.007 32.0944 30.1282 31.9008 30.2494 31.7265C30.3705 31.5425 30.4731 31.3778 30.5663 31.2229C30.6595 31.068 30.7247 30.9517 30.7713 30.884C30.7806 30.8646 30.7899 30.8549 30.7899 30.8452C30.7993 30.8355 30.8086 30.8259 30.8086 30.8162C30.8925 30.5838 30.995 30.3417 31.0975 30.0802C31.228 29.8091 31.3491 29.5379 31.4796 29.2571ZM41.769 28.8697C41.9554 28.5502 42.1325 28.2403 42.3002 27.9401C42.468 27.6496 42.6544 27.3494 42.8688 27.0395C42.8594 27.0201 42.8594 27.0104 42.8594 26.9911C42.8594 26.9717 42.8594 26.962 42.8594 26.9426C42.8594 26.8264 42.8967 26.7102 42.9713 26.6037C43.0738 26.4294 43.2043 26.2745 43.3534 26.1389C43.5025 26.013 43.6423 25.9065 43.7821 25.8387C43.8753 25.7903 43.9592 25.7612 44.0151 25.7515C44.0431 25.7515 44.0617 25.7418 44.0804 25.7515C44.099 25.7515 44.1177 25.7612 44.1363 25.7612C44.1736 25.7806 44.2015 25.8096 44.2015 25.8581C44.2015 25.9452 44.1549 26.0614 44.0524 26.2164C44.0338 26.2551 44.0058 26.2938 43.9778 26.3326C43.9499 26.3713 43.9219 26.41 43.894 26.4585C43.9965 26.565 44.127 26.6715 44.2854 26.778C44.4345 26.8845 44.593 26.9911 44.7607 27.0976C44.9285 27.2041 45.0869 27.3203 45.2454 27.4365C45.4038 27.5527 45.5529 27.6786 45.6834 27.8142C45.8139 27.9498 45.9164 28.095 45.991 28.25C46.0655 28.4049 46.1121 28.5792 46.1121 28.7632C46.1121 28.831 46.1028 28.8891 46.0935 28.9569C46.0842 29.0247 46.0655 29.0925 46.0469 29.1699C46.1867 28.9859 46.3265 28.7923 46.457 28.5986C46.5968 28.3952 46.7273 28.1725 46.8671 27.9401L47.7804 27.543C47.5381 27.9498 47.2958 28.3274 47.0348 28.676C46.7739 29.0247 46.5129 29.3442 46.2426 29.6347C45.9723 29.9253 45.7021 30.177 45.4318 30.3998C45.1615 30.6225 44.9005 30.8162 44.6396 30.9711L44.4532 31.0873C44.2668 31.2035 44.0804 31.2907 43.894 31.3682C43.7076 31.4359 43.5305 31.494 43.3534 31.5231C43.3161 31.5328 43.2695 31.5425 43.2322 31.5425C43.195 31.5521 43.1577 31.5521 43.1297 31.5521C42.8967 31.5715 42.701 31.5521 42.5426 31.494C42.3748 31.4359 42.2443 31.3488 42.1511 31.2229C42.1138 31.1745 42.0952 31.1261 42.0672 31.0583C42.0486 31.0002 42.0393 30.9324 42.0393 30.8549C42.0393 30.6515 42.1138 30.4191 42.2723 30.1577L43.195 29.7606C43.1484 29.8381 43.1111 29.9156 43.0924 29.9834C43.0738 30.0512 43.0645 30.1189 43.0645 30.1867C43.0645 30.2836 43.0924 30.3804 43.139 30.4676C43.2229 30.5741 43.3348 30.6516 43.4746 30.6903C43.6144 30.729 43.7542 30.7387 43.9033 30.729L43.9778 30.7193C44.1456 30.6903 44.3134 30.6225 44.4905 30.5063C44.6675 30.3901 44.8167 30.2255 44.9471 30.0027C45.059 29.8091 45.1149 29.6154 45.1149 29.4314C45.1149 29.3249 45.0776 29.2183 45.0124 29.1021C44.9471 28.9859 44.8539 28.8697 44.7514 28.7535C44.6489 28.6373 44.5277 28.5211 44.3879 28.4049C44.2481 28.2887 44.1176 28.1822 43.9778 28.0757C43.838 27.9691 43.7076 27.8723 43.5864 27.7851C43.4559 27.698 43.3534 27.6205 43.2695 27.543L43.2322 27.5043C43.1856 27.5915 43.1297 27.6883 43.0738 27.7755C43.0179 27.8626 42.9713 27.9594 42.9154 28.0466C42.8688 28.1338 42.8222 28.2112 42.7756 28.2887C42.729 28.3565 42.701 28.4243 42.673 28.463L41.769 28.8697ZM52.0304 26.7877C51.7881 27.1944 51.5458 27.5721 51.2755 27.9207C51.0145 28.2693 50.7442 28.5889 50.4739 28.8794C50.2037 29.1699 49.9334 29.4217 49.6631 29.6541C49.3928 29.8768 49.1319 30.0705 48.8709 30.2255C48.4608 30.4772 48.0973 30.6322 47.7618 30.7L47.7059 30.7097C47.4356 30.7581 47.2026 30.7387 46.9976 30.6612C46.9044 30.6128 46.8205 30.5547 46.7552 30.4772C46.69 30.3998 46.6341 30.3029 46.5875 30.1867C46.5502 30.0802 46.5222 29.964 46.5036 29.8575C46.4943 29.7413 46.4849 29.6251 46.4849 29.5089C46.4849 29.3636 46.4943 29.2183 46.5222 29.0634C46.5409 28.9085 46.5782 28.7535 46.6248 28.5986C46.718 28.2596 46.8578 27.9207 47.0348 27.5818C47.2119 27.2428 47.4076 26.9233 47.6313 26.6231C47.8177 26.3713 48.0134 26.1389 48.2092 25.9452C48.4049 25.7515 48.6006 25.5772 48.7963 25.432C48.9921 25.2964 49.1785 25.1802 49.3555 25.093C49.5419 25.0156 49.7097 24.9575 49.8775 24.9284C49.98 24.909 50.0825 24.8994 50.1664 24.909C50.2503 24.9187 50.3341 24.9284 50.3994 24.9575C50.5299 25.0156 50.6231 25.1124 50.6697 25.248C50.6883 25.2867 50.6976 25.3254 50.7069 25.3642C50.7163 25.4029 50.7163 25.4513 50.7163 25.4998C50.7163 25.6256 50.6883 25.7612 50.6417 25.9162C50.5858 26.0711 50.5112 26.2454 50.4087 26.4391L49.486 26.8361C49.5699 26.7005 49.6258 26.5843 49.6631 26.4681C49.7004 26.3519 49.719 26.2551 49.719 26.1679C49.719 26.1292 49.719 26.1002 49.7097 26.0614C49.7097 26.0324 49.7004 26.0033 49.6817 25.9743C49.6631 25.9258 49.6351 25.8774 49.5979 25.8484C49.5606 25.8096 49.5233 25.7806 49.4767 25.7612C49.4394 25.7515 49.3928 25.7418 49.3462 25.7322C49.2996 25.7225 49.253 25.7322 49.2064 25.7418L49.1691 25.7515C49.0853 25.7709 48.9734 25.8193 48.8523 25.9162C48.7311 26.013 48.6006 26.1583 48.4608 26.3519C48.2744 26.6037 48.1066 26.8749 47.9575 27.1654C47.8084 27.4559 47.6966 27.7367 47.6127 28.0272C47.5288 28.3081 47.4915 28.5792 47.4915 28.8407C47.4915 28.9472 47.5008 29.0537 47.5102 29.1602C47.5195 29.2668 47.5474 29.3636 47.5847 29.4604C47.6593 29.6638 47.7711 29.7897 47.9202 29.8575C47.9948 29.8865 48.0694 29.9156 48.1439 29.9253C48.2185 29.9349 48.3024 29.9349 48.3956 29.9156L48.4515 29.9059C48.5354 29.8865 48.6193 29.8575 48.7125 29.8187C48.7963 29.7897 48.8895 29.7413 48.9827 29.6832C49.2903 29.4895 49.6258 29.1893 49.9986 28.7729C50.3714 28.3565 50.7349 27.8336 51.117 27.1944L52.0304 26.7877ZM39.3178 30.0996C39.178 30.177 39.0475 30.2351 38.917 30.2836C38.7866 30.332 38.6654 30.3707 38.5349 30.3901L38.4324 30.4095V30.5353C38.4324 30.729 38.4604 30.913 38.5163 31.0776C38.5722 31.2423 38.684 31.3682 38.8332 31.465C38.9636 31.5425 39.0941 31.5618 39.2339 31.5328C39.3178 31.5134 39.411 31.4844 39.4949 31.4456C39.5788 31.4069 39.672 31.3488 39.7559 31.2907C39.8397 31.2326 39.9329 31.1648 40.0168 31.0873C40.1007 31.0099 40.1753 30.9421 40.2498 30.8743C40.4921 30.6419 40.7438 30.3514 40.9954 30.0221C41.2471 29.6929 41.508 29.3055 41.7597 28.8697L42.6637 28.4727C42.3655 28.9859 42.0579 29.4411 41.741 29.8478C41.4241 30.2545 41.1166 30.6128 40.7997 30.913C40.3523 31.3488 39.9423 31.6877 39.5415 31.9298C39.15 32.1719 38.7959 32.3172 38.507 32.3656C38.3392 32.3946 38.1901 32.385 38.0503 32.3462C37.9105 32.3075 37.7986 32.23 37.7148 32.1332C37.6216 32.0267 37.5563 31.9008 37.5004 31.7458C37.4538 31.5909 37.4258 31.4166 37.4258 31.2132C37.4258 31.0389 37.4445 30.8452 37.4818 30.6419C37.519 30.4385 37.5843 30.2255 37.6682 29.993C37.752 29.7703 37.8639 29.5282 37.9944 29.2861C38.1248 29.044 38.2833 28.7923 38.4697 28.5308C38.8798 27.9498 39.2712 27.5043 39.6533 27.2041C40.0355 26.9039 40.3989 26.7102 40.7438 26.6424L40.8183 26.6328C41.0979 26.5843 41.3123 26.6231 41.4521 26.749C41.5919 26.8749 41.6571 27.0588 41.6571 27.2816C41.6571 27.4075 41.6385 27.5334 41.6012 27.6786C41.5639 27.8239 41.4987 27.9691 41.4148 28.1144C41.303 28.3081 41.1632 28.5114 40.9954 28.7051C40.8277 28.8988 40.6599 29.0828 40.4642 29.2571C40.2778 29.4314 40.0821 29.5863 39.877 29.7413C39.6999 29.8768 39.5042 30.0027 39.3178 30.0996ZM23.0543 32.3656L23.1288 32.2203C23.1661 32.0557 23.2127 31.8911 23.2686 31.7265C23.3711 31.3778 23.5016 31.0195 23.6508 30.6516C23.7999 30.2836 23.949 29.8768 24.1168 29.4411C24.2286 29.1506 24.3498 28.8407 24.4989 28.5017C24.648 28.1628 24.7971 27.8239 24.9649 27.4753C25.1326 27.1266 25.3097 26.7683 25.5054 26.4197C25.7012 26.0614 25.8969 25.7225 26.1019 25.3932C26.307 25.064 26.5213 24.7541 26.745 24.4636C26.9687 24.1731 27.1831 23.9116 27.4067 23.6889C27.472 23.6308 27.5372 23.5727 27.6118 23.5049C27.6863 23.4468 27.7609 23.3887 27.8355 23.3403C27.91 23.2918 27.9846 23.2434 28.0498 23.2144C28.1244 23.1756 28.1896 23.1563 28.2549 23.1466C28.3388 23.1272 28.4133 23.1466 28.4692 23.195C28.5252 23.2434 28.5531 23.3306 28.5531 23.4565C28.5531 23.4855 28.5531 23.5339 28.5438 23.5824C28.5438 23.6308 28.5345 23.6792 28.5158 23.7276C28.4786 23.9213 28.404 24.144 28.2828 24.4248C28.171 24.696 28.0312 24.9962 27.8634 25.3254C27.6957 25.6547 27.5093 26.0033 27.3042 26.3713C27.0992 26.7393 26.8755 27.1266 26.6518 27.514C26.4188 27.9013 26.1858 28.2984 25.9435 28.6954C25.7012 29.0925 25.4682 29.4895 25.2352 29.8672C25.0208 30.2158 24.8158 30.5547 24.6294 30.8743C24.4336 31.1938 24.2659 31.494 24.1074 31.7652C24.0981 31.833 24.0795 31.9201 24.0515 32.0363C24.0329 32.1429 24.0049 32.2688 23.9863 32.414C23.9676 32.5496 23.949 32.6948 23.9304 32.8498C23.9117 33.0047 23.9117 33.15 23.9117 33.2856C23.9117 33.4211 23.921 33.547 23.9397 33.6729C23.9583 33.7988 23.9863 33.8956 24.0236 33.9828C24.0702 34.0699 24.1168 34.1377 24.1913 34.1765C24.2659 34.2152 24.3498 34.2346 24.4523 34.2152C24.5921 34.1958 24.7226 34.1377 24.853 34.0506C24.9928 33.9634 25.1233 33.8569 25.2445 33.7213C25.2911 33.6729 25.3377 33.6148 25.3843 33.5664C25.4309 33.518 25.4682 33.4695 25.5148 33.4211C25.552 33.3727 25.5986 33.3146 25.6359 33.2565C25.6732 33.1984 25.7198 33.1306 25.7571 33.0628C25.6359 33.0435 25.5148 32.995 25.3936 32.9273C25.2818 32.8595 25.1699 32.7626 25.0767 32.6561C24.9835 32.5496 24.909 32.4237 24.853 32.2784C24.7971 32.1332 24.7692 31.9879 24.7692 31.833C24.7692 31.5812 24.8158 31.3488 24.909 31.1164C25.0022 30.8936 25.1233 30.7 25.2724 30.5257C25.4216 30.3514 25.5893 30.2158 25.7757 30.0996C25.9621 29.9834 26.1392 29.9156 26.3163 29.8768C26.4188 29.8575 26.512 29.8575 26.5866 29.8672C26.8103 29.9059 26.9873 29.9931 27.1178 30.148C27.2483 30.3029 27.3135 30.4966 27.3229 30.7387V30.8162C27.3229 31.0776 27.2669 31.3585 27.1551 31.6393C27.0433 31.9201 26.9128 32.1913 26.7637 32.4431C26.8755 32.414 26.9967 32.3656 27.1085 32.2978C27.2297 32.23 27.3415 32.1525 27.4533 32.0557C27.5652 31.9589 27.6677 31.8523 27.7702 31.7265C27.8727 31.6102 27.9566 31.4747 28.0405 31.3391L28.9446 30.9421C28.7395 31.2907 28.5252 31.5909 28.3108 31.8427C28.0964 32.0944 27.8727 32.2978 27.6584 32.4721C27.444 32.6367 27.239 32.7626 27.0339 32.8595C26.8289 32.9466 26.6425 33.0144 26.4654 33.0435L26.3536 33.0628C26.2697 33.179 26.1858 33.2856 26.1113 33.3824C26.0367 33.4792 25.9435 33.5761 25.8503 33.6826C25.5054 34.0409 25.1513 34.3411 24.7878 34.5735C24.4243 34.8059 24.0702 34.9609 23.716 35.019C23.5482 35.048 23.4177 35.0383 23.3059 34.9802C23.1941 34.9221 23.1102 34.835 23.0543 34.7284C22.989 34.6122 22.9517 34.4767 22.9238 34.3217C22.8958 34.1668 22.8865 34.0022 22.8865 33.8375C22.8865 33.7213 22.8865 33.5954 22.8958 33.4792H22.9051V33.4889C22.8399 33.5858 22.6628 33.8569 22.3646 34.2055C22.0384 34.5832 21.7215 34.9028 21.4046 35.1545C21.0877 35.4063 20.7895 35.5516 20.4912 35.6097C20.454 35.6097 20.426 35.6097 20.3887 35.6097C20.3608 35.6097 20.3235 35.6097 20.2955 35.6097C20.1184 35.5806 20.0252 35.4257 20.0066 35.1642V35.0383C20.0066 34.9318 20.0159 34.7962 20.0346 34.651C20.0532 34.5057 20.0812 34.3508 20.1184 34.1668C20.2116 33.7601 20.3608 33.2759 20.5751 32.7142C20.7802 32.1525 21.0598 31.5037 21.4139 30.7484C21.3767 30.7678 21.3301 30.7774 21.2741 30.7871C21.2275 30.7968 21.1809 30.8065 21.1436 30.8065C20.9759 30.8355 20.8174 30.8452 20.6683 30.8355C20.5192 30.8259 20.3887 30.7968 20.2676 30.729C20.1744 31.0389 20.0532 31.3585 19.9227 31.6877C19.7829 32.0073 19.6245 32.3269 19.4474 32.6367L18.5433 33.0338C18.6738 32.8014 18.795 32.5689 18.9068 32.3172C19.0187 32.0751 19.1119 31.8233 19.1958 31.5812C19.2796 31.3391 19.3542 31.097 19.4101 30.8646C19.4754 30.6322 19.522 30.4095 19.5499 30.2061C19.5592 30.177 19.5592 30.148 19.5592 30.1286C19.5592 30.1093 19.5686 30.0802 19.5779 30.0512C19.5406 29.9931 19.5126 29.9156 19.4754 29.8381C19.4474 29.7606 19.4194 29.6735 19.4008 29.596C19.3822 29.5185 19.3635 29.4314 19.3542 29.3442C19.3449 29.2571 19.3356 29.1893 19.3356 29.1215L19.3449 28.9956C19.3822 28.7632 19.4847 28.5695 19.6431 28.4146C19.8016 28.2596 20.0252 28.1628 20.3048 28.1144C20.3701 28.1047 20.4074 28.1047 20.4446 28.1144C20.5099 28.1338 20.5565 28.1822 20.5938 28.2693C20.631 28.3565 20.6497 28.463 20.6497 28.5986C20.6497 28.7438 20.6497 28.8794 20.6404 28.9956C20.631 29.1118 20.6217 29.228 20.6031 29.3539C20.659 29.4701 20.7336 29.567 20.8174 29.6541C20.9293 29.78 21.0598 29.8865 21.2182 29.9543C21.3673 30.0221 21.5351 30.0415 21.7308 30.0124C21.7961 30.0027 21.8706 29.9834 21.9359 29.9543C22.0104 29.9253 22.085 29.8865 22.1595 29.8478L22.5603 29.8962C22.1689 30.7 21.8613 31.4069 21.619 32.017C21.386 32.6271 21.2182 33.1403 21.125 33.5664C21.0877 33.7213 21.0598 33.8666 21.0411 33.9925C21.0225 34.1184 21.0132 34.2346 21.0132 34.3314C21.0132 34.4767 21.0318 34.5832 21.0691 34.651C21.1064 34.7188 21.153 34.7575 21.2089 34.7865C21.386 34.6219 21.5631 34.4476 21.7308 34.2443C21.8986 34.0506 22.057 33.8375 22.2155 33.6148C22.3739 33.3921 22.523 33.1693 22.6721 32.9273C22.8213 32.7433 22.9424 32.5496 23.0543 32.3656ZM16.7539 31.9008C16.6327 31.8233 16.5022 31.7749 16.3438 31.7555C16.1854 31.7361 16.0269 31.7361 15.8685 31.7652C15.8312 31.7749 15.8032 31.7749 15.766 31.7846C15.7287 31.7942 15.7007 31.8039 15.6634 31.8136H15.6448C15.5609 31.8427 15.4677 31.9008 15.3745 31.9589C15.2813 32.0267 15.1788 32.1138 15.0763 32.2397C14.9178 32.4237 14.7501 32.6464 14.5916 32.9273C14.4332 33.1984 14.2654 33.5373 14.0977 33.9247C14.0697 33.9925 14.0324 34.0893 13.9858 34.2152C13.9392 34.3411 13.8926 34.4767 13.8553 34.6219C13.8181 34.7672 13.7808 34.9221 13.7435 35.0771C13.7155 35.232 13.6969 35.3773 13.6969 35.5128C13.6969 35.5806 13.6969 35.6484 13.7155 35.7162C13.7249 35.784 13.7435 35.8421 13.7715 35.9002C13.7994 35.9583 13.8367 35.997 13.874 36.0261C13.9206 36.0551 13.9765 36.0648 14.0417 36.0551C14.1349 36.0358 14.2375 35.9777 14.3586 35.8615C14.4798 35.7549 14.6103 35.6097 14.7408 35.4547C14.8712 35.2901 15.011 35.1158 15.1415 34.9221C15.2813 34.7284 15.4025 34.5348 15.5236 34.3605C15.6448 34.1765 15.7473 34.0118 15.8405 33.8569C15.9337 33.702 15.999 33.5858 16.0456 33.518C16.0549 33.4986 16.0642 33.4889 16.0642 33.4792C16.0735 33.4695 16.0828 33.4599 16.0828 33.4502C16.1667 33.2178 16.2692 32.9757 16.3718 32.7142C16.5022 32.4527 16.6234 32.1816 16.7539 31.9008ZM11.3669 35.8711C10.8729 35.9583 10.2858 36.152 9.62403 36.4522C8.92502 36.762 8.36582 37.0622 7.96505 37.3818C6.93984 38.2049 6.42724 38.8925 6.42724 39.4735C6.42724 39.8221 6.66024 39.948 7.11693 39.8706C7.81593 39.7447 8.6361 39.2314 9.56811 38.3308C10.4722 37.469 11.0686 36.6458 11.3669 35.8711ZM12.942 36.2004C12.942 36.4231 12.8954 36.549 12.8022 36.5684C12.7649 36.5781 12.7463 36.5296 12.7369 36.4231C12.7183 36.2004 12.6344 36.0454 12.4946 35.968C12.0752 36.8589 11.2457 37.7789 10.0062 38.7182C8.75726 39.6672 7.68545 40.2192 6.77208 40.3838C6.00784 40.5194 5.63503 40.3257 5.63503 39.8028C5.63503 39.3283 5.93328 38.7763 6.52044 38.1565C6.94916 37.7111 7.43381 37.3043 7.99301 36.9364C8.43106 36.6555 9.0089 36.365 9.72655 36.0745C10.4442 35.784 11.0407 35.6 11.4974 35.5128C11.544 35.3579 11.5626 35.2223 11.5626 35.0867C11.5626 34.3217 11.0127 33.9731 9.92227 34.0506C9.53083 34.3024 9.1021 34.467 8.64542 34.5541C8.04893 34.6607 7.75069 34.6219 7.75069 34.4282C7.75069 34.2636 8.1701 34.0699 8.99958 33.8472C9.67063 33.6632 10.2951 33.4018 10.8822 33.0628C11.6092 32.6464 12.2616 32.1235 12.8488 31.4844C13.5851 30.7097 13.9579 29.9834 13.9579 29.3249C13.9579 28.3081 13.0538 27.8239 11.2457 27.8723C7.74137 32.7433 5.59775 36.6749 4.79623 39.6962C4.66574 40.1417 4.60982 40.5 4.60982 40.7712C4.60982 41.1198 4.71235 41.2747 4.90807 41.236C4.97331 41.2263 5.07583 41.1876 5.20631 41.1391C5.33679 41.081 5.43931 41.052 5.50455 41.0423C5.58843 41.0326 5.62571 41.0326 5.62571 41.052C5.62571 41.1198 5.43931 41.2457 5.06651 41.4006C4.69371 41.5652 4.43274 41.6621 4.29294 41.6814C3.78966 41.7686 3.52869 41.5459 3.52869 41.0132C3.52869 40.0352 4.33954 38.0597 5.95192 35.1061C7.12625 32.9466 8.3099 30.9614 9.50287 29.1699C9.49355 29.0634 9.71723 28.6664 10.1739 27.9691C9.98751 27.9885 9.80111 28.0175 9.62403 28.0466C6.828 28.5502 4.74963 29.7122 3.40753 31.5328C2.83901 32.3075 2.55941 32.9563 2.55941 33.4986C2.55941 33.7213 2.63397 33.9053 2.78309 34.0312C2.93221 34.1571 3.00677 34.2346 3.00677 34.2443C3.00677 34.2636 2.98813 34.283 2.94153 34.2927C2.65261 34.3411 2.41961 34.2346 2.2332 33.9731C2.08408 33.7504 2.00952 33.4792 2.00952 33.15C2.00952 32.598 2.20524 32.0363 2.59669 31.465C3.31433 30.4191 4.52594 29.5185 6.24084 28.7632C7.57361 28.1725 8.99026 27.7658 10.4722 27.514C10.5094 27.4559 10.5374 27.3978 10.5747 27.33C10.789 27.0976 11.0966 26.9523 11.488 26.8749C11.721 26.8361 11.8329 26.8652 11.8329 26.9717C11.8329 27.0104 11.749 27.1363 11.5906 27.359C13.874 27.1557 15.011 27.6399 15.011 28.8116C15.011 29.6929 14.4332 30.7 13.2868 31.833C12.215 32.8885 11.2271 33.5276 10.3324 33.7601C10.9475 33.6826 11.4601 33.7504 11.8888 33.9441C12.4387 34.1958 12.7183 34.5638 12.7183 35.0674C12.7183 35.2223 12.6903 35.3869 12.6344 35.5709C12.8395 35.7162 12.942 35.9196 12.942 36.2004ZM15.5702 35.1448C15.2813 35.5031 15.0017 35.8033 14.7501 36.0358C14.4891 36.2779 14.2468 36.4618 14.0324 36.5974C13.7808 36.7524 13.5571 36.8395 13.38 36.8783C13.2775 36.8976 13.1843 36.8976 13.0911 36.8783C12.9233 36.8395 12.8115 36.7136 12.7463 36.5006C12.7276 36.4522 12.7183 36.3941 12.709 36.336C12.6997 36.2779 12.6997 36.2198 12.6997 36.152C12.6997 35.7259 12.8488 35.1545 13.1377 34.4379C13.3241 33.9828 13.5198 33.5858 13.7249 33.2468C13.9299 32.9079 14.1443 32.6174 14.3586 32.3753C14.6662 32.0267 14.9738 31.7361 15.2813 31.5328C15.5889 31.3197 15.8778 31.1648 16.1667 31.068C16.232 31.0486 16.2879 31.0292 16.3531 31.0099C16.409 30.9905 16.4743 30.9711 16.5488 30.9614C16.67 30.9421 16.7818 30.9324 16.903 30.9227C17.0242 30.9227 17.136 30.9324 17.2479 30.9421C17.3597 30.9614 17.4622 30.9905 17.5554 31.0389C17.6486 31.0873 17.7325 31.1454 17.7977 31.2132C17.3783 32.1138 17.0615 32.8691 16.8471 33.4986C16.6327 34.128 16.5116 34.6219 16.4836 34.9802C16.4836 34.9996 16.4836 35.019 16.4836 35.0383C16.4836 35.0577 16.4836 35.0867 16.4836 35.1158C16.4836 35.1642 16.4836 35.2223 16.4929 35.2804C16.5022 35.3385 16.5116 35.3869 16.5209 35.445C16.5302 35.4935 16.5488 35.5322 16.5768 35.5613C16.6048 35.5903 16.6327 35.6 16.67 35.5903C16.698 35.5806 16.7539 35.5419 16.8378 35.4547C16.9217 35.3676 17.0149 35.2611 17.1174 35.1352C17.3597 34.8543 17.602 34.5251 17.863 34.1474C18.1146 33.7697 18.3569 33.4018 18.5806 33.0144L19.4847 32.6174C19.233 33.0435 18.9721 33.4599 18.6925 33.8763C18.4129 34.283 18.1239 34.6607 17.8443 34.9899C17.5181 35.3676 17.2013 35.6871 16.8751 35.9389C16.5582 36.181 16.2506 36.336 15.9617 36.3844C15.8685 36.4037 15.7846 36.3941 15.7287 36.3747C15.6634 36.3553 15.6168 36.3166 15.5796 36.2585C15.5423 36.2101 15.5143 36.152 15.4957 36.0745C15.477 36.0067 15.4677 35.9292 15.4677 35.8518C15.4677 35.7259 15.477 35.6097 15.4864 35.4935C15.5236 35.3869 15.5423 35.2707 15.5702 35.1448ZM53.6428 24.9284C53.5123 24.9478 53.3818 25.0059 53.242 25.093C53.1022 25.1802 52.9717 25.2964 52.8599 25.4223C52.6642 25.6353 52.4964 25.8871 52.338 26.1679C52.1795 26.4488 52.0584 26.7393 51.9558 27.0492C51.8813 27.2913 51.8347 27.5237 51.816 27.7367C51.816 27.7755 51.8067 27.8045 51.8067 27.8432C51.8067 27.882 51.8067 27.911 51.8067 27.9498C51.8067 28.25 51.8626 28.5114 51.9745 28.7148C52.0397 28.831 52.1329 28.9278 52.2354 28.9956C52.338 29.0634 52.4591 29.1021 52.5896 29.1118C52.6735 29.1118 52.748 29.1118 52.8226 29.1021C52.9624 29.0731 53.0929 29.0247 53.2327 28.9375C53.3632 28.8504 53.4937 28.7342 53.6148 28.6083C53.8105 28.3952 53.9783 28.1434 54.1367 27.8723C54.2952 27.5915 54.4257 27.3009 54.5189 26.9814C54.5841 26.7393 54.6307 26.5069 54.6493 26.2938C54.6587 26.2551 54.6587 26.2164 54.6587 26.1776C54.6587 26.1389 54.6587 26.1002 54.6587 26.0711C54.6587 25.7612 54.6027 25.5094 54.4816 25.3061C54.4163 25.1899 54.3231 25.093 54.2206 25.0252C54.1181 24.9575 53.9969 24.9187 53.8665 24.909C53.7826 24.909 53.708 24.9187 53.6428 24.9284ZM57.1471 25.8677C56.8582 26.3616 56.56 26.8071 56.2431 27.2041C55.9262 27.5915 55.6 27.9304 55.2738 28.2209C54.9476 28.5114 54.6214 28.7438 54.3045 28.9278C53.9876 29.1118 53.6801 29.2571 53.3911 29.3442C53.1768 29.4895 52.9624 29.6154 52.7574 29.7122C52.543 29.8091 52.338 29.8768 52.1329 29.9156C52.0677 29.9253 51.9931 29.9349 51.9372 29.9446C51.8813 29.9543 51.816 29.9543 51.7601 29.9446C51.5924 29.9349 51.4432 29.8865 51.3128 29.8091C51.1823 29.7316 51.0798 29.6251 51.0052 29.4798C50.94 29.3733 50.8934 29.2377 50.8561 29.0925C50.8188 28.9472 50.8001 28.7826 50.8001 28.5986C50.8001 28.5598 50.8001 28.5308 50.8001 28.4921C50.8001 28.4533 50.8002 28.4146 50.8095 28.3855C50.8188 28.2693 50.8374 28.1434 50.8654 28.0175C50.8934 27.8917 50.9306 27.7561 50.9679 27.6205C51.0798 27.2428 51.2475 26.8749 51.4619 26.5166C51.6762 26.1583 51.9092 25.829 52.1795 25.5288C52.515 25.1511 52.8692 24.8413 53.242 24.5895C53.6148 24.3474 53.9783 24.1828 54.3418 24.1246C54.4163 24.115 54.4816 24.1053 54.5468 24.0956C54.6027 24.0859 54.668 24.0956 54.7239 24.1053C54.8917 24.115 55.0408 24.1634 55.1713 24.2409C55.3018 24.3183 55.4043 24.4248 55.4788 24.5701C55.5441 24.6766 55.5907 24.8122 55.628 24.9575C55.6652 25.1027 55.6839 25.2673 55.6839 25.4416C55.6839 25.4804 55.6839 25.5094 55.6839 25.5482C55.6839 25.5869 55.6839 25.616 55.6746 25.6547C55.6559 25.8968 55.6093 26.1486 55.5254 26.4197C55.4043 26.7974 55.2458 27.1654 55.0315 27.5237C54.8264 27.882 54.5841 28.2112 54.3231 28.5017C54.668 28.25 55.0035 27.9304 55.339 27.5624C55.6746 27.1847 55.9821 26.7587 56.2617 26.2648L57.1471 25.8677ZM30.3053 32.5012C30.0164 32.8595 29.7368 33.1597 29.4851 33.3921C29.2242 33.6342 28.9818 33.8182 28.7675 33.9537C28.5158 34.1087 28.2922 34.1958 28.1151 34.2346C28.0126 34.2539 27.9193 34.2539 27.8261 34.2346C27.6584 34.1958 27.5465 34.0699 27.4813 33.8569C27.4627 33.8085 27.4533 33.7504 27.444 33.6923C27.4347 33.6342 27.4347 33.5761 27.4347 33.5083C27.4347 33.0822 27.5838 32.5108 27.8727 31.7942C28.0592 31.3391 28.2549 30.9421 28.4599 30.6031C28.665 30.2642 28.8793 29.9737 29.0937 29.7316C29.4012 29.383 29.7088 29.0925 30.0164 28.8891C30.3239 28.676 30.6129 28.5211 30.9018 28.4243C30.967 28.4049 31.0229 28.3855 31.0882 28.3662C31.1441 28.3468 31.2093 28.3274 31.2839 28.3177C31.4051 28.2984 31.5169 28.2887 31.6381 28.279C31.7592 28.279 31.8711 28.2887 31.9829 28.2984C32.0947 28.3177 32.1973 28.3468 32.2905 28.3952C32.3837 28.4436 32.4675 28.5017 32.5328 28.5695C32.1134 29.4701 31.7965 30.2255 31.5821 30.8549C31.3678 31.4844 31.2466 31.9782 31.2187 32.3365C31.2187 32.3559 31.2187 32.3753 31.2187 32.3946C31.2187 32.414 31.2187 32.4431 31.2187 32.4721C31.2187 32.5205 31.2187 32.5786 31.228 32.6367C31.2373 32.6948 31.2466 32.7433 31.2559 32.8014C31.2653 32.8498 31.2839 32.8885 31.3119 32.9176C31.3398 32.9466 31.3678 32.9563 31.4051 32.9466C31.433 32.9369 31.4889 32.8982 31.5728 32.811C31.6567 32.7239 31.7499 32.6174 31.8524 32.4915C32.0947 32.2106 32.3371 31.8814 32.598 31.5037C32.8497 31.1261 33.092 30.7581 33.3157 30.3707L34.2197 29.9737C33.9681 30.3998 33.7071 30.8162 33.4275 31.2326C33.1479 31.6393 32.859 32.017 32.5794 32.3462C32.2532 32.7239 31.927 33.0435 31.6101 33.2952C31.2932 33.5373 30.9857 33.6923 30.6967 33.7407C30.6035 33.7601 30.5197 33.7504 30.4637 33.731C30.3985 33.7116 30.3519 33.6729 30.3146 33.6148C30.2773 33.5664 30.2494 33.5083 30.2307 33.4308C30.2121 33.363 30.2028 33.2856 30.2028 33.2081C30.2028 33.0822 30.2121 32.966 30.2214 32.8498C30.2494 32.7433 30.268 32.6271 30.3053 32.5012Z" fill="black"/>
<path d="M14.7682 38.5052L14.9732 38.4858L14.8707 38.4955L38.7954 33.9732L38.5624 32.5787L46.6242 32.5012L46.3726 37.5852H46.3353L46.2887 32.966L14.908 38.5923L14.9266 43.4052L39.1495 39.0475L22.1683 42.4659L22.6157 43.6086L14.7402 43.6667L14.7682 38.5052Z" fill="black"/>
<path d="M42.9892 34.6897V34.467L43.6882 34.3411V34.5541L43.5111 34.5832V37.1106L43.7534 37.0622C43.856 37.0428 43.9212 37.0041 43.9678 36.946C43.9864 36.9073 44.0051 36.8782 44.0237 36.8298C44.033 36.7911 44.0424 36.7427 44.0424 36.6845L44.061 36.2004L44.2847 36.1616V37.1784L42.9892 37.4108V37.1881L43.1756 37.1591V34.6509L42.9892 34.6897ZM41.6751 34.9221V36.6652C41.6751 36.7814 41.6751 36.8879 41.6751 36.9654C41.6751 37.0428 41.6844 37.1203 41.6844 37.1881C41.6844 37.2365 41.6937 37.2849 41.703 37.3237C41.7217 37.3624 41.7403 37.3915 41.7683 37.4205C41.8149 37.4689 41.8987 37.4786 42.0106 37.4593C42.1038 37.4399 42.169 37.4108 42.2156 37.3721C42.2622 37.3334 42.2902 37.2753 42.3088 37.2075C42.3181 37.1397 42.3275 37.0428 42.3275 36.9363V36.549V34.7865L42.1411 34.8156V34.5928L42.8494 34.467V34.6897L42.663 34.7187V36.4812C42.663 36.6071 42.663 36.7233 42.6537 36.8201C42.6443 36.917 42.635 37.0041 42.6071 37.0816C42.5791 37.2365 42.5139 37.3624 42.4113 37.4593C42.3088 37.5561 42.1783 37.6142 42.0106 37.6432C41.7683 37.682 41.6005 37.6336 41.498 37.4883C41.3955 37.343 41.3489 37.0816 41.3489 36.7233V34.9802L41.1531 35.0189V34.7962L41.8615 34.6703V34.893L41.6751 34.9221ZM40.0068 36.4812C40.0068 36.6168 40.0068 36.7427 40.0068 36.8395C40.0068 36.946 40.0161 37.0428 40.0161 37.1397C40.0161 37.2075 40.0254 37.2849 40.0347 37.3527C40.0534 37.4205 40.072 37.498 40.1 37.5851C40.1466 37.7207 40.2304 37.7788 40.333 37.7595C40.4821 37.7304 40.5753 37.5851 40.6033 37.3237C40.6405 37.0622 40.6592 36.7427 40.6592 36.3553C40.6592 35.9486 40.6405 35.629 40.6126 35.3966C40.5753 35.1642 40.4914 35.0577 40.333 35.0867C40.2304 35.1061 40.1466 35.1932 40.1 35.3482C40.072 35.4353 40.0534 35.5128 40.0347 35.5806C40.0161 35.6581 40.0161 35.7355 40.0161 35.813C40.0161 35.9389 40.0161 36.0551 40.0161 36.1616C40.0161 36.2778 40.0068 36.3747 40.0068 36.4812ZM39.634 36.5393C39.634 35.9389 39.7085 35.5128 39.8576 35.2707C40.0068 35.0286 40.1652 34.893 40.3236 34.864C40.4821 34.8349 40.6405 34.9124 40.799 35.0964C40.9481 35.2804 41.032 35.6774 41.032 36.2778C41.032 36.8879 40.9574 37.314 40.8083 37.5464C40.6592 37.7788 40.5007 37.9144 40.333 37.9434C40.1745 37.9725 40.0161 37.895 39.867 37.711C39.7085 37.5464 39.634 37.1494 39.634 36.5393ZM39.112 37.3915C39.112 37.2753 39.1027 37.1881 39.0748 37.1106C39.0468 37.0332 39.0188 36.9751 38.9909 36.9266C38.9816 36.9073 38.9536 36.8782 38.907 36.8298C38.8604 36.7814 38.8418 36.762 38.8418 36.762L38.6647 36.5877C38.5435 36.4521 38.4503 36.3359 38.3851 36.2294C38.3292 36.1229 38.3012 36.0067 38.3012 35.8614C38.3012 35.6581 38.3478 35.4838 38.4503 35.3579C38.5528 35.2223 38.674 35.1448 38.8324 35.1158C38.9722 35.0867 39.0841 35.1255 39.1866 35.232L39.2146 35.1158L39.3823 35.0867V35.9583L39.1773 35.997C39.1773 35.5322 39.0841 35.3094 38.8884 35.3482C38.7952 35.3675 38.7299 35.416 38.702 35.5031C38.674 35.5903 38.6554 35.6968 38.6554 35.8227C38.6554 35.9195 38.674 35.997 38.7113 36.0454C38.7486 36.1035 38.8045 36.1713 38.8977 36.2585L39.0748 36.4328C39.2239 36.5974 39.3264 36.7427 39.401 36.8782C39.4755 37.0041 39.5128 37.1494 39.5128 37.314C39.5128 37.5561 39.4569 37.7595 39.3544 37.9241C39.2518 38.0887 39.0841 38.1855 38.8697 38.2243C38.6833 38.2533 38.5342 38.2146 38.441 38.0887C38.3385 37.9628 38.2919 37.8079 38.2919 37.6239C38.2919 37.5658 38.2919 37.527 38.3012 37.498C38.3012 37.4689 38.3105 37.4302 38.3292 37.3818C38.3478 37.3334 38.3664 37.2946 38.3944 37.2656C38.4224 37.2365 38.4503 37.2172 38.4876 37.2075C38.5342 37.1978 38.5715 37.2172 38.6181 37.2656C38.6554 37.314 38.674 37.3818 38.674 37.4786C38.674 37.527 38.674 37.5658 38.6647 37.6142C38.6554 37.6529 38.646 37.6917 38.6274 37.7401L38.6181 37.7595L38.6088 37.7885L38.5994 37.8369C38.5994 37.8853 38.6274 37.9241 38.6833 37.9725C38.7299 38.0112 38.7858 38.0209 38.8511 38.0112C38.879 38.0015 38.9163 37.9919 38.9536 37.9628C38.9909 37.9434 39.0375 37.8853 39.0841 37.7885C39.0934 37.711 39.112 37.5755 39.112 37.3915ZM36.2974 37.895C36.2974 37.7788 36.2881 37.6917 36.2601 37.6142C36.2321 37.5367 36.2042 37.4786 36.1762 37.4302C36.1669 37.4108 36.1389 37.3818 36.0923 37.3334C36.0457 37.2849 36.0271 37.2656 36.0271 37.2656L35.85 37.0913C35.7289 36.9557 35.6357 36.8395 35.5704 36.733C35.5145 36.6264 35.4865 36.5102 35.4865 36.365C35.4865 36.1616 35.5331 35.9873 35.6357 35.8614C35.7382 35.7259 35.8593 35.6484 36.0178 35.6193C36.1576 35.5903 36.2694 35.629 36.3719 35.7355L36.3999 35.6193L36.5677 35.5903V36.4618L36.3626 36.5006C36.3626 36.0357 36.2694 35.813 36.0737 35.8517C35.9805 35.8711 35.9153 35.9195 35.8873 36.0067C35.8593 36.0938 35.8407 36.2004 35.8407 36.3262C35.8407 36.4231 35.8593 36.5006 35.8966 36.549C35.9339 36.6071 35.9898 36.6749 36.083 36.762L36.2601 36.9363C36.4092 37.101 36.5117 37.2462 36.5863 37.3818C36.6609 37.5077 36.6981 37.6529 36.6981 37.8176C36.6981 38.0596 36.6422 38.263 36.5397 38.4276C36.4372 38.5923 36.2694 38.6891 36.0551 38.7278C35.8687 38.7569 35.7195 38.7181 35.6263 38.5923C35.5238 38.4664 35.4772 38.3114 35.4772 38.1274C35.4772 38.0693 35.4772 38.0306 35.4865 38.0015C35.4865 37.9725 35.4959 37.9338 35.5145 37.8853C35.5331 37.8369 35.5518 37.7982 35.5797 37.7691C35.6077 37.7401 35.6357 37.7207 35.6729 37.711C35.7195 37.7013 35.7568 37.7207 35.8034 37.7691C35.8407 37.8176 35.8593 37.8853 35.8593 37.9822C35.8593 38.0306 35.8593 38.0693 35.85 38.1178C35.8407 38.1565 35.8314 38.1952 35.8127 38.2436L35.8034 38.263L35.7941 38.2921L35.7848 38.3405C35.7848 38.3889 35.8127 38.4276 35.8687 38.4761C35.9153 38.5148 35.9712 38.5245 36.0364 38.5148C36.0644 38.5051 36.1017 38.4954 36.1389 38.4664C36.1762 38.447 36.2228 38.3889 36.2694 38.2921C36.2787 38.2146 36.2974 38.079 36.2974 37.895ZM34.7968 36.7136C34.7968 36.5296 34.7689 36.3843 34.713 36.2778C34.6757 36.2004 34.6011 36.1713 34.4893 36.1907C34.4613 36.2004 34.4334 36.2004 34.4054 36.21C34.3774 36.2294 34.3588 36.2391 34.3495 36.2488V37.3527C34.3774 37.3527 34.4054 37.3527 34.452 37.343C34.6757 37.2946 34.7968 37.0816 34.7968 36.7136ZM34.0046 38.815V36.3069L33.8276 36.3359V36.1132L34.5359 35.9873C34.6757 35.9583 34.8155 35.9873 34.946 36.0551C35.0858 36.1229 35.151 36.3262 35.151 36.6458C35.151 36.917 35.0764 37.1203 34.946 37.2559L34.8062 37.3624C34.7782 37.3818 34.7502 37.4012 34.7223 37.4108C34.8341 37.4302 34.918 37.4883 34.9832 37.5755C35.0485 37.6626 35.0764 37.7885 35.0764 37.9338L35.1044 38.3308C35.1044 38.3889 35.1044 38.4276 35.1137 38.4664C35.123 38.5051 35.1324 38.5342 35.151 38.5632C35.1696 38.5923 35.2163 38.6019 35.2908 38.5826V38.8053C35.2256 38.8537 35.1603 38.8828 35.0951 38.9021C35.0671 38.9021 35.0578 38.9118 35.0392 38.9118C34.8807 38.9021 34.7875 38.7666 34.7596 38.4857L34.713 37.9725C34.713 37.9047 34.7036 37.8369 34.685 37.7788C34.6664 37.7207 34.6384 37.6723 34.6104 37.6336C34.5638 37.5755 34.4893 37.5561 34.3961 37.5755C34.3681 37.5755 34.3495 37.5851 34.3402 37.5851V38.7666L34.5266 38.7375V38.9602L33.8276 39.0861V38.8634L34.0046 38.815ZM33.6412 37.0913L33.4361 37.13C33.4361 37.0041 33.4268 36.8782 33.4175 36.762C33.4082 36.6458 33.3895 36.5587 33.3522 36.5102C33.3056 36.4521 33.2404 36.4328 33.1472 36.4521L32.9142 36.4909V37.5367L33.082 37.5077V37.1978L33.3056 37.1591V38.0306L33.082 38.0693V37.7498L32.9142 37.7788V39.0183L33.1565 38.9796C33.259 38.9602 33.3243 38.9215 33.3709 38.8634C33.3895 38.8247 33.4082 38.7956 33.4175 38.7472C33.4268 38.7085 33.4361 38.66 33.4361 38.6019L33.4641 38.1178L33.6878 38.079V39.0958L32.3923 39.3282V39.1055L32.5787 39.0764V36.5683L32.3923 36.5974V36.3747L33.6412 36.1519V37.0913ZM31.9356 39.4348V39.3089C31.8424 39.4348 31.7305 39.5025 31.6001 39.5316C31.4043 39.5703 31.2366 39.4832 31.0968 39.2895C31.0315 39.183 30.9756 39.0377 30.9383 38.8344C30.9011 38.631 30.8824 38.3889 30.8824 38.0984C30.8824 37.8563 30.8917 37.6626 30.9011 37.5077C30.9197 37.3527 30.9477 37.2172 30.9849 37.0913C31.0688 36.8492 31.162 36.6845 31.2645 36.5974C31.3111 36.5587 31.3671 36.5199 31.4137 36.5006C31.4696 36.4812 31.5162 36.4618 31.5721 36.4521C31.6933 36.4328 31.7958 36.4812 31.8983 36.5974L31.9449 36.4812L32.1033 36.4521V37.3818L31.8983 37.4205C31.8983 37.3237 31.889 37.2365 31.8797 37.1397C31.861 37.0525 31.8424 36.9654 31.8144 36.8782C31.7678 36.733 31.6839 36.6652 31.5721 36.6845C31.4603 36.7039 31.3857 36.7911 31.3391 36.946C31.2925 37.101 31.2645 37.3237 31.2645 37.5948V38.0209C31.2645 38.8731 31.3764 39.2798 31.6187 39.2411C31.6839 39.2314 31.7492 39.1733 31.8144 39.0571C31.8797 38.9506 31.9263 38.7956 31.9449 38.6116V38.1565C31.8703 38.1662 31.8237 38.2049 31.7958 38.263C31.7678 38.3211 31.7585 38.4567 31.7585 38.6794L31.5814 38.7085V38.0112L32.2245 37.895L32.2338 39.3766L31.9356 39.4348ZM30.23 37.527C30.23 37.343 30.2021 37.1978 30.1461 37.0913C30.1088 37.0138 30.0343 36.9847 29.9224 37.0041C29.8945 37.0138 29.8665 37.0138 29.8386 37.0235C29.8106 37.0428 29.792 37.0525 29.7826 37.0622V38.1662C29.8106 38.1662 29.8386 38.1662 29.8852 38.1565C30.1089 38.1081 30.23 37.9047 30.23 37.527ZM29.4471 39.6381V37.13L29.27 37.1591V36.9363L29.9784 36.8104C30.1182 36.7814 30.258 36.8104 30.3885 36.8782C30.5283 36.946 30.5935 37.1494 30.5935 37.4689C30.5935 37.7401 30.5189 37.9434 30.3885 38.079L30.2487 38.1855C30.2207 38.2049 30.1927 38.2243 30.1648 38.234C30.2766 38.2533 30.3605 38.3114 30.4257 38.3986C30.491 38.4857 30.5189 38.6116 30.5189 38.7569L30.5469 39.1539C30.5469 39.212 30.5469 39.2508 30.5562 39.2895C30.5655 39.3282 30.5749 39.3573 30.5935 39.3863C30.6121 39.4154 30.6587 39.4251 30.7333 39.4057V39.6284C30.6681 39.6768 30.6028 39.7059 30.5376 39.7253C30.5096 39.7253 30.5003 39.7349 30.4817 39.7349C30.3232 39.7253 30.23 39.5897 30.2021 39.3089L30.1555 38.7956C30.1555 38.7278 30.1461 38.66 30.1275 38.6019C30.1088 38.5438 30.0809 38.4954 30.0529 38.4567C30.0063 38.3986 29.9318 38.3792 29.8386 38.3986C29.8106 38.3986 29.792 38.4083 29.7826 38.4083V39.5897L29.969 39.5606V39.7834L29.27 39.9093V39.6865L29.4471 39.6381ZM27.9652 37.3915V39.1346C27.9652 39.2508 27.9652 39.3573 27.9652 39.4348C27.9652 39.5122 27.9746 39.5897 27.9746 39.6575C27.9746 39.7059 27.9839 39.7543 27.9932 39.7931C28.0118 39.8318 28.0305 39.8608 28.0584 39.8899C28.105 39.9383 28.1889 39.948 28.3008 39.9286C28.394 39.9093 28.4592 39.8802 28.5058 39.8415C28.5524 39.8027 28.5804 39.7446 28.599 39.6768C28.6083 39.6091 28.6176 39.5122 28.6176 39.4057V39.0183V37.2559L28.4312 37.2849V37.0622L29.1396 36.9363V37.1591L28.9532 37.1881V38.9506C28.9532 39.0764 28.9532 39.1927 28.9438 39.2895C28.9345 39.3863 28.9252 39.4735 28.8972 39.551C28.8693 39.7059 28.804 39.8318 28.7015 39.9286C28.599 40.0255 28.4685 40.0836 28.3008 40.1126C28.0584 40.1514 27.8907 40.1029 27.7882 39.9577C27.6856 39.8124 27.639 39.551 27.639 39.1927V37.4496L27.4433 37.4883V37.2656L28.1516 37.1397V37.3624L27.9652 37.3915ZM26.4833 40.161C26.5113 40.161 26.5299 40.161 26.5579 40.1514C26.5765 40.1514 26.5952 40.1514 26.6045 40.1417C26.7163 40.1223 26.8002 40.0739 26.8468 39.9964C26.9121 39.8899 26.9493 39.7059 26.9493 39.4638C26.9493 39.4057 26.94 39.3185 26.9307 39.212C26.9214 39.1055 26.9027 39.028 26.8748 38.9796C26.8468 38.9312 26.8002 38.9021 26.7163 38.8828C26.6791 38.8731 26.6325 38.8731 26.5765 38.8828C26.5579 38.8828 26.5486 38.8925 26.5299 38.8925C26.502 38.8925 26.4927 38.9021 26.474 38.9021L26.4833 40.161ZM26.4833 38.6697C26.502 38.6697 26.5206 38.6697 26.5486 38.6697C26.5765 38.6697 26.5952 38.6697 26.6138 38.66C26.7163 38.6407 26.7909 38.5826 26.8375 38.4761C26.8841 38.3695 26.9027 38.1952 26.9027 37.9434C26.9027 37.7982 26.8655 37.6917 26.7816 37.6336C26.735 37.5851 26.6697 37.5755 26.5859 37.5851C26.5672 37.5851 26.5299 37.6045 26.474 37.6239L26.4833 38.6697ZM26.1385 40.2288V37.7207L25.9521 37.7498V37.527L26.6884 37.3915C26.7443 37.3818 26.8095 37.3818 26.8841 37.3915C26.9587 37.4011 27.0425 37.4593 27.1264 37.5464C27.2103 37.6432 27.2476 37.7885 27.2476 37.9919C27.2476 38.1274 27.2196 38.2533 27.173 38.3695C27.1264 38.4857 27.0239 38.5923 26.8748 38.7085C26.9773 38.7181 27.0798 38.7763 27.173 38.8828C27.2569 38.9796 27.3035 39.1636 27.3035 39.4541C27.3035 39.6091 27.2849 39.7446 27.2476 39.8608C27.2103 39.977 27.1637 40.0642 27.0985 40.132C26.9773 40.2579 26.8561 40.3257 26.735 40.345L25.9335 40.4903V40.2676L26.1385 40.2288ZM23.4916 38.5438L23.2586 39.977L23.7432 39.8899L23.4916 38.5438ZM23.7805 40.132L23.212 40.2385L23.1188 40.7905L23.3052 40.7614V40.9745L22.718 41.081V40.868L22.8672 40.8389L23.3798 37.9531L23.6966 37.895L24.2279 40.5968L24.405 40.5678V40.7808L23.6966 40.9067V40.6936L23.883 40.6646L23.7805 40.132ZM21.5717 38.5342C21.5157 38.5438 21.4691 38.5826 21.4412 38.6504C21.4132 38.7181 21.3946 38.7859 21.3853 38.8537L21.3573 39.2314V39.2798V39.3185L21.1616 39.3573V38.7569V38.3889L22.5876 38.1371V38.3598L22.4384 38.3889L21.553 41.0713L22.1588 40.9745C22.2147 40.9648 22.2613 40.9164 22.3079 40.8389C22.3266 40.8002 22.3452 40.7711 22.3545 40.7324C22.3639 40.7033 22.3732 40.6646 22.3825 40.6162L22.4105 40.2385V40.2095V40.161L22.6062 40.1223V41.1004C22.5223 41.1197 22.4198 41.1391 22.3079 41.1585C22.1961 41.1778 22.1029 41.1972 22.0283 41.2069L21.0684 41.3618V41.1488L21.1989 41.1294L22.0749 38.447L21.5717 38.5342ZM19.9127 38.8344C19.8568 38.844 19.8102 38.8828 19.7822 38.9506C19.7542 39.0183 19.7356 39.0861 19.7263 39.1539L19.6983 39.5316V39.58V39.6187L19.5026 39.6575V39.0571V38.6891L20.9286 38.4373V38.66L20.7795 38.6891L19.8941 41.3715L20.4999 41.2747C20.5558 41.265 20.6024 41.2166 20.649 41.1391C20.6676 41.1004 20.6863 41.0713 20.6956 41.0423C20.7049 41.0132 20.7142 40.9745 20.7235 40.9261L20.7515 40.5484V40.5097V40.4612L20.9472 40.4225V41.4006C20.8633 41.4199 20.7608 41.4393 20.649 41.4587C20.5371 41.478 20.4439 41.4974 20.3694 41.5071L19.4094 41.662V41.449L19.5399 41.4296L20.416 38.7472L19.9127 38.8344ZM18.7663 41.5555V39.0474L18.5799 39.0764V38.8537L19.2789 38.7278V38.9506L19.1018 38.9796V41.4877L19.2789 41.4587V41.6814L18.5799 41.8073V41.5846L18.7663 41.5555ZM17.592 40.5C17.6479 40.5 17.7038 40.5 17.7411 40.4903C17.853 40.4709 17.9275 40.4128 17.9741 40.3063C18.03 40.161 18.0673 39.9867 18.0673 39.7834C18.0673 39.551 18.0394 39.3863 17.9834 39.2798C17.9368 39.2023 17.853 39.1733 17.7318 39.1927C17.6945 39.2023 17.6479 39.212 17.6013 39.2314L17.592 40.5ZM17.592 40.7421V41.7782L17.7691 41.7492V41.9719L17.0701 42.0978V41.8751L17.2565 41.846V39.3379L17.0701 39.367V39.1442L17.6386 39.0377C17.7877 39.0087 17.9182 38.999 18.0114 39.0087C18.1139 39.0183 18.2071 39.0764 18.291 39.183C18.3749 39.2895 18.4215 39.4832 18.4215 39.7446C18.4215 40.3063 18.2071 40.6355 17.7877 40.7033L17.592 40.7421Z" fill="black"/>
<path d="M16.1662 40.4902C16.3433 40.4902 16.4831 40.6355 16.4831 40.8195C16.4831 41.0035 16.3433 41.1487 16.1662 41.1487C15.9891 41.1487 15.8493 41.0035 15.8493 40.8195C15.84 40.6355 15.9891 40.4902 16.1662 40.4902Z" fill="black"/>
<path d="M25.0304 38.8635C25.2075 38.8635 25.3473 39.0088 25.3473 39.1928C25.3473 39.3768 25.2075 39.522 25.0304 39.522C24.8533 39.522 24.7135 39.3768 24.7135 39.1928C24.7042 39.0088 24.8533 38.8635 25.0304 38.8635Z" fill="black"/>
<path d="M37.4262 36.6653C37.6033 36.6653 37.743 36.8105 37.743 36.9945C37.743 37.1785 37.6033 37.3238 37.4262 37.3238C37.2491 37.3238 37.1093 37.1785 37.1093 36.9945C37.1 36.8105 37.2491 36.6653 37.4262 36.6653Z" fill="black"/>
<path d="M44.9562 35.1643C45.1333 35.1643 45.2731 35.3096 45.2731 35.4935C45.2731 35.6775 45.1333 35.8228 44.9562 35.8228C44.7791 35.8228 44.6393 35.6775 44.6393 35.4935C44.63 35.3096 44.7791 35.1643 44.9562 35.1643Z" fill="black"/>
<path d="M41.191 20.7645L40.9394 20.6193C41.0233 20.4546 41.0978 20.2997 41.1724 20.1448C41.2376 19.9898 41.2749 19.8639 41.2656 19.7671C41.2563 19.6509 41.191 19.5637 41.0792 19.4959L40.7903 19.3313L40.0912 20.6483L40.2963 20.7645L40.5013 20.3675L40.7809 20.5224L40.1938 21.6167L39.9142 21.4618L40.1285 21.0647L39.9235 20.9485L39.094 22.4882L39.3922 22.6625C39.5134 22.7303 39.6159 22.7497 39.6998 22.711C39.7464 22.6916 39.793 22.6529 39.8303 22.6141C39.8676 22.5754 39.9142 22.527 39.9514 22.4495L40.3056 21.8685L40.5852 22.0234L39.9048 23.3017L38.3204 22.3914L38.4696 22.1106L38.6932 22.2365L40.3709 19.0892L40.1472 18.9633L40.2963 18.6825L41.8248 19.5637L41.191 20.7645ZM38.4323 19.2732L38.162 19.1667C38.2272 18.9924 38.2832 18.8278 38.3204 18.6631C38.367 18.4985 38.3764 18.3726 38.367 18.2758C38.3391 18.1596 38.2645 18.0821 38.1433 18.0337L37.8358 17.9078L37.3232 19.3119L37.5469 19.3991L37.7053 18.9827L38.0035 19.0989L37.5748 20.261L37.2766 20.1448L37.435 19.7187L37.2113 19.6315L36.5962 21.2874L36.8479 21.3843L36.736 21.6845L35.8133 21.3165L35.9252 21.0163L36.1675 21.1131L37.4071 17.7529L37.1647 17.656L37.2766 17.3558L38.9076 18.0046L38.4323 19.2732ZM34.201 17.443L33.5765 19.3604L34.2476 19.4669L34.201 17.443ZM34.2569 19.8155L33.4647 19.6896L33.2223 20.4159L33.474 20.4546L33.4274 20.7548L32.6165 20.6193L32.6631 20.3191L32.8682 20.3481L34.1823 16.5133L34.6204 16.5811L34.7602 20.658L35.0025 20.6967L34.9559 20.9969L33.968 20.8517L34.0146 20.5515L34.2662 20.5902L34.2569 19.8155ZM31.7032 16.339L31.6845 17.6657L31.3956 17.656C31.3956 17.5301 31.3956 17.4139 31.377 17.2977C31.3676 17.1912 31.3304 17.0363 31.2838 16.8329C31.2372 16.6295 31.1253 16.5327 30.9576 16.523C30.7432 16.523 30.6034 16.8329 30.5382 17.472C30.5195 17.7141 30.5009 18.0046 30.4916 18.3532C30.4729 19.5734 30.622 20.1932 30.9482 20.1932C31.0508 20.1932 31.1626 20.0963 31.2651 19.8833C31.3676 19.6799 31.4236 19.4088 31.4329 19.0699L31.7591 19.0795C31.7498 19.6702 31.6566 20.0673 31.4795 20.2706C31.3024 20.474 31.116 20.5805 30.9203 20.5999C30.5941 20.5902 30.3424 20.4062 30.1747 20.0285C30.0069 19.6509 29.9324 19.0892 29.9417 18.3436C29.951 17.5301 30.0722 16.9491 30.2865 16.5908C30.4543 16.31 30.678 16.1744 30.9482 16.1841C31.1253 16.2034 31.2744 16.3003 31.4049 16.4843L31.4795 16.3293L31.7032 16.339ZM25.6544 21.026L25.263 19.5734L23.9116 17.7819L23.6972 17.84L23.6133 17.5398L24.5733 17.2493L24.6572 17.5495L24.4428 17.6076L25.3655 18.9052L25.4121 17.3171L25.1605 17.3946L25.0766 17.0944L25.9154 16.8426L25.9993 17.1428L25.757 17.2202L25.701 19.4475L26.1018 20.8807L26.3441 20.8129L26.428 21.1131L25.4867 21.4036L25.4028 21.1034L25.6544 21.026ZM23.5108 22.1784L22.672 22.6238L22.5322 22.343L22.7559 22.2268L21.1808 19.0117C21.1622 19.0214 21.1435 19.0311 21.1156 19.0408C21.0224 19.0892 20.9664 19.1861 20.9571 19.3119L20.9851 19.4766L21.0503 19.6702L21.0969 19.7574C21.1156 19.7961 21.1342 19.8349 21.1435 19.8542L21.274 20.1641L21.013 20.2997L20.4072 19.0602L22.0755 18.1789L22.6813 19.4185L22.4204 19.554L22.2526 19.2635L22.1874 19.1764C22.1687 19.1376 22.1501 19.0989 22.1408 19.0795C22.1035 19.0021 22.0662 18.9343 22.0289 18.8859C21.9916 18.8374 21.9544 18.8084 21.9264 18.789C21.8239 18.7212 21.7214 18.7116 21.6282 18.76C21.6002 18.7697 21.5816 18.789 21.5722 18.789L23.1567 22.0137L23.3803 21.8975L23.5108 22.1784ZM20.7334 23.5438L18.7483 20.5999L18.5339 20.7548L18.3568 20.4934L19.1583 19.9123L19.3354 20.1738L19.1304 20.3287L21.1156 23.2726L21.3206 23.1177L21.4977 23.3791L20.6962 23.9602L20.5191 23.6987L20.7334 23.5438ZM17.1266 21.5199L18.0026 22.4882L17.7883 22.6916C17.7044 22.5948 17.6205 22.5173 17.5366 22.4495C17.4528 22.3817 17.3223 22.2946 17.1545 22.1784C16.9868 22.0718 16.8376 22.0718 16.7072 22.1977C16.5487 22.3527 16.6606 22.6819 17.0427 23.1855C17.1825 23.3695 17.3689 23.5922 17.6019 23.8536C18.4034 24.7446 18.9253 25.0835 19.1677 24.8511C19.2422 24.7736 19.2515 24.6284 19.1956 24.4056C19.1397 24.1829 18.9906 23.9408 18.7669 23.6987L19.0092 23.4663C19.4007 23.9021 19.5964 24.2507 19.6057 24.5218C19.615 24.793 19.5498 25.006 19.4193 25.161C19.177 25.3934 18.8787 25.4321 18.5059 25.2869C18.1331 25.1416 17.7044 24.793 17.2104 24.241C16.6792 23.6503 16.3716 23.1467 16.2877 22.7303C16.2225 22.4108 16.2877 22.1493 16.4928 21.9556C16.6326 21.8394 16.8097 21.8007 17.0147 21.8394L16.9588 21.6748L17.1266 21.5199Z" fill="black"/>
<path d="M15.9806 24.7639C16.1949 24.7639 16.372 24.9479 16.372 25.1706C16.372 25.3934 16.1949 25.5774 15.9806 25.5774C15.7662 25.5774 15.5891 25.3934 15.5891 25.1706C15.5891 24.9479 15.7662 24.7639 15.9806 24.7639Z" fill="black"/>
<path d="M42.0482 21.5779C42.2625 21.5779 42.4396 21.7619 42.4396 21.9846C42.4396 22.2073 42.2625 22.3913 42.0482 22.3913C41.8338 22.3913 41.6567 22.2073 41.6567 21.9846C41.6567 21.7619 41.8338 21.5779 42.0482 21.5779Z" fill="black"/>
</g>
</g>
<defs>
<clipPath id="clip0">
<rect x="2" y="16" width="55.3333" height="27.6667" fill="white"/>
</clipPath>
</defs>
</svg>
