<?xml version="1.0" encoding="iso-8859-1"?>
<!-- Generator: Adobe Illustrator 16.0.0, SVG Export Plug-In . SVG Version: 6.00 Build 0)  -->
<!DOCTYPE svg PUBLIC "-//W3C//DTD SVG 1.1//EN" "http://www.w3.org/Graphics/SVG/1.1/DTD/svg11.dtd">
<svg version="1.1" id="Capa_1" xmlns="http://www.w3.org/2000/svg" xmlns:xlink="http://www.w3.org/1999/xlink" x="0px" y="0px"
	 width="390.544px" height="390.544px" viewBox="0 0 390.544 390.544" style="enable-background:new 0 0 390.544 390.544;"
	 xml:space="preserve">
<g>
	<g>
		<g id="Layer_5_42_">
			<g>
				<path d="M3.067,294.583c-0.081,3.863,3.016,7.063,6.879,7.105l373.134,4.369c3.862,0.045,7.07-2.13,7.127-4.832
					c0.058-2.705-3.059-5.012-6.921-5.125L10.294,284.958c-3.863-0.116-7.09,2.949-7.169,6.813L3.067,294.583z"/>
				<g>
					<path d="M299.92,314.453c3.862,0.045,10.021,1.094,13.684,2.331l50.024,16.884c3.659,1.234,5.969,4.348,5.127,6.92
						c-0.842,2.568-4.544,3.715-8.228,2.545l-84.795-26.915c-3.684-1.169-3.534-2.089,0.328-2.043L299.92,314.453z"/>
					<path d="M202.49,279.281c3.661,1.236,3.496,2.152-0.366,2.037l-33.098-0.99c-3.863-0.115-10.036-1.166-13.72-2.335
						L4.856,230.238c-3.683-1.17-5.713-5.131-4.51-8.803l0.875-2.675c1.203-3.673,5.182-5.664,8.843-4.43L202.49,279.281z"/>
				</g>
				<path d="M183.167,95.333c4.329,2.443,4.44,6.63,0.248,9.301l-29.27,18.65c-4.193,2.671-11.053,2.671-15.246,0l-29.269-18.65
					c-4.193-2.671-4.081-6.857,0.248-9.301l28.773-16.248c4.329-2.444,11.412-2.444,15.741,0L183.167,95.333z"/>
				<path d="M389.202,149.751c-1.121-3.861-4.091-7.34-8.506-9.833l-60.245-34.017c-4.98-2.813-11.542-4.362-18.474-4.362
					c-6.931,0-13.49,1.549-18.473,4.362l-60.165,33.972c-6.679,2.577-11.452,9.075-11.452,16.634v65.25
					c0,11.037,11.237,17.753,12.848,18.778l61.282,39.051c8.777,5.592,23.144,5.592,31.92,0l61.282-39.051
					c2.553-1.626,4.335-3.52,5.369-5.514c3.647-3.27,5.955-8.011,5.955-13.267v-65.25
					C390.545,154.12,390.066,151.836,389.202,149.751z M287.493,112.965c3.729-2.106,9.012-3.315,14.484-3.315
					c5.474,0,10.756,1.209,14.484,3.315l60.244,34.018c3.052,1.722,4.832,3.957,4.892,6.133c0.059,2.179-1.604,4.506-4.557,6.389
					l-61.283,39.05c-3.551,2.265-8.572,3.562-13.78,3.562c-5.206,0-10.229-1.297-13.779-3.56l-61.283-39.049
					c-2.954-1.884-4.614-4.212-4.557-6.391c0.059-2.176,1.84-4.411,4.891-6.133L287.493,112.965z"/>
				<path d="M338.624,149.917c4.328,2.444,4.438,6.631,0.247,9.302l-29.271,18.65c-4.191,2.671-11.054,2.671-15.244,0l-29.271-18.65
					c-4.192-2.671-4.081-6.857,0.247-9.302l28.774-16.247c4.328-2.444,11.41-2.444,15.74,0L338.624,149.917z"/>
				<path d="M197.127,151.502c0-9.9,6.119-18.971,15.28-22.742l20.902-11.803c0,0,1.779-0.563,1.779-3c0-3.009,0-12.036,0-12.036
					c0-2.389-0.479-4.671-1.341-6.757c-1.123-3.861-4.093-7.34-8.507-9.833l-60.246-34.017c-4.982-2.813-11.543-4.362-18.473-4.362
					c-6.931,0-13.491,1.55-18.473,4.362L67.887,85.288c-6.68,2.577-11.453,9.073-11.453,16.634v65.251
					c0,10.785,11.237,17.751,12.846,18.778L130.563,225c8.777,5.594,23.141,5.594,31.919,0.001l33.34-21.245
					c0,0,1.304-0.715,1.304-3.049C197.127,188.407,197.127,151.502,197.127,151.502z M146.522,147.528
					c-5.208,0-10.231-1.298-13.78-3.56l-61.284-39.049c-2.954-1.883-4.615-4.211-4.556-6.39c0.058-2.177,1.84-4.413,4.891-6.134
					l60.245-34.018c3.73-2.106,9.01-3.314,14.485-3.314s10.754,1.208,14.484,3.314l60.246,34.018
					c3.051,1.721,4.833,3.957,4.891,6.134c0.061,2.179-1.603,4.505-4.557,6.389l-61.283,39.049
					C156.753,146.229,151.73,147.528,146.522,147.528z"/>
			</g>
		</g>
	</g>
</g>
<g>
</g>
<g>
</g>
<g>
</g>
<g>
</g>
<g>
</g>
<g>
</g>
<g>
</g>
<g>
</g>
<g>
</g>
<g>
</g>
<g>
</g>
<g>
</g>
<g>
</g>
<g>
</g>
<g>
</g>
</svg>
