<svg width="124" height="124" viewBox="0 0 124 124" fill="none" xmlns="http://www.w3.org/2000/svg">
<path d="M81.4947 60.7934C81.8788 61.0665 82.283 61.1715 82.7075 61.0874C83.0511 61.0244 83.3745 60.8774 83.7181 60.6464C84.0617 60.4154 84.3851 60.1424 84.7085 59.8274C85.1127 59.4494 85.3957 59.0293 85.5776 58.5883C85.7595 58.1473 85.8606 57.7483 85.8606 57.3703C85.8606 57.0132 85.7797 56.7402 85.618 56.5302C85.4563 56.3202 85.2138 56.2362 84.9308 56.2782C84.8499 56.2992 84.7489 56.3412 84.6074 56.4042C84.3851 56.5092 84.1425 56.6772 83.9202 56.8872C83.6979 57.0972 83.4755 57.3283 83.2734 57.6013C83.0713 57.8743 82.8692 58.1473 82.6872 58.4623C82.5053 58.7563 82.3234 59.0503 82.1819 59.3444C82.0202 59.6384 81.899 59.9114 81.7777 60.1634C81.6564 60.3944 81.5554 60.6044 81.4947 60.7934ZM81.7575 60.1634C81.232 61.0665 80.666 61.9695 80.0394 62.8725C79.4129 63.7756 78.8065 64.5946 78.1597 65.3297C77.4523 66.1487 76.7651 66.8417 76.0778 67.3878C75.3906 67.9338 74.7438 68.2488 74.097 68.3748C74.0162 68.3748 73.9556 68.3748 73.8747 68.3748C73.8141 68.3748 73.7332 68.3748 73.6726 68.3748C73.2886 68.3118 73.0864 67.9758 73.046 67.4088V67.1358C73.046 66.9048 73.0662 66.6107 73.1066 66.2957C73.1471 65.9807 73.2077 65.6237 73.2886 65.2457C73.4907 64.3636 73.8141 63.3136 74.279 62.0955C74.7236 60.8774 75.33 59.4704 76.0981 57.8323C76.0172 57.8743 75.9161 57.8953 75.7949 57.9163C75.6938 57.9373 75.5928 57.9583 75.5119 57.9583C75.1481 58.0213 74.8045 58.0423 74.4811 58.0213C74.1577 58.0003 73.8747 57.9373 73.612 57.7903C73.4098 58.4623 73.1471 59.1554 72.8641 59.8694C72.5609 60.5624 72.2173 61.2555 71.8333 61.9275L69.8727 62.7885C70.1557 62.2845 70.4184 61.7805 70.661 61.2345C70.9035 60.7094 71.1056 60.1634 71.2875 59.6384C71.4695 59.1134 71.6312 58.5883 71.7524 58.0843C71.8939 57.5803 71.995 57.0972 72.0556 56.6562C72.0758 56.5932 72.0758 56.5302 72.0758 56.4882C72.0758 56.4462 72.096 56.3832 72.1163 56.3202C72.0354 56.1942 71.9748 56.0262 71.8939 55.8582C71.8333 55.6902 71.7726 55.5012 71.7322 55.3332C71.6918 55.1651 71.6514 54.9761 71.6312 54.7871C71.6109 54.5981 71.5907 54.4511 71.5907 54.3041L71.6109 54.0311C71.6918 53.5271 71.9141 53.107 72.2577 52.771C72.6013 52.435 73.0864 52.225 73.6928 52.12C73.8343 52.099 73.9151 52.099 73.996 52.12C74.1375 52.162 74.2385 52.267 74.3194 52.456C74.4002 52.645 74.4407 52.876 74.4407 53.17C74.4407 53.4851 74.4407 53.7791 74.4204 54.0311C74.4002 54.2831 74.38 54.5351 74.3396 54.8081C74.4609 55.0601 74.6226 55.2702 74.8045 55.4592C75.047 55.7322 75.33 55.9632 75.6736 56.1102C75.997 56.2572 76.3608 56.2992 76.7853 56.2362C76.9268 56.2152 77.0885 56.1732 77.2299 56.1102C77.3916 56.0472 77.5533 55.9632 77.715 55.8792L78.5842 55.9842C77.7352 57.7273 77.0682 59.2604 76.5427 60.5834C76.0374 61.9065 75.6736 63.0196 75.4715 63.9436C75.3906 64.2796 75.33 64.5946 75.2896 64.8676C75.2491 65.1407 75.2289 65.3927 75.2289 65.6027C75.2289 65.9177 75.2694 66.1487 75.3502 66.2957C75.4311 66.4427 75.5321 66.5267 75.6534 66.5897C76.0374 66.2327 76.4215 65.8547 76.7853 65.4137C77.1491 64.9937 77.4927 64.5316 77.8363 64.0486C78.1799 63.5656 78.5033 63.0826 78.8267 62.5575C79.1501 62.0325 79.4735 61.5285 79.7969 61.0034L81.7575 60.1634ZM65.9111 60.3524C65.6483 60.1844 65.3654 60.0794 65.0218 60.0374C64.6781 59.9954 64.3345 59.9954 63.9909 60.0584C63.9101 60.0794 63.8495 60.0794 63.7686 60.1004C63.6878 60.1214 63.6271 60.1424 63.5463 60.1634H63.5058C63.3239 60.2264 63.1218 60.3524 62.9197 60.4784C62.7176 60.6254 62.4952 60.8354 62.2729 61.0874C61.9293 61.4865 61.5655 61.9695 61.2219 62.5785C60.8783 63.1666 60.5144 63.9016 60.1506 64.7416C60.09 64.8886 60.0091 65.0987 59.9081 65.3927C59.807 65.6657 59.7059 65.9597 59.6251 66.2747C59.5442 66.5897 59.4634 66.9258 59.3825 67.2618C59.3219 67.5978 59.2815 67.9128 59.2815 68.2068C59.2815 68.3538 59.2815 68.5008 59.3219 68.6478C59.3421 68.7948 59.3825 68.9209 59.4432 69.0469C59.5038 69.1729 59.5847 69.2569 59.6655 69.3199C59.7666 69.3829 59.8879 69.4039 60.0293 69.3829C60.2315 69.3409 60.4538 69.2149 60.7166 68.9629C60.9793 68.7318 61.2623 68.4168 61.5453 68.0808C61.8282 67.7238 62.1314 67.3458 62.4144 66.9258C62.7176 66.5057 62.9803 66.0857 63.2431 65.7077C63.5058 65.3087 63.7282 64.9517 63.9303 64.6156C64.1324 64.2796 64.2739 64.0276 64.375 63.8806C64.3952 63.8386 64.4154 63.8176 64.4154 63.7966C64.4356 63.7756 64.4558 63.7546 64.4558 63.7336C64.6377 63.2296 64.8601 62.7045 65.0824 62.1375C65.3654 61.5495 65.6281 60.9614 65.9111 60.3524ZM88.2254 59.5124C88.6296 58.8193 89.0137 58.1473 89.3775 57.4963C89.7413 56.8662 90.1456 56.2152 90.6104 55.5432C90.5902 55.5012 90.5902 55.4802 90.5902 55.4382C90.5902 55.3962 90.5902 55.3752 90.5902 55.3332C90.5902 55.0811 90.6711 54.8291 90.8328 54.5981C91.0551 54.2201 91.3381 53.8841 91.6615 53.5901C91.9849 53.3171 92.288 53.086 92.5912 52.939C92.7934 52.834 92.9753 52.771 93.0965 52.75C93.1572 52.75 93.1976 52.729 93.238 52.75C93.2785 52.75 93.3189 52.771 93.3593 52.771C93.4401 52.813 93.5008 52.876 93.5008 52.981C93.5008 53.17 93.3997 53.4221 93.1774 53.7581C93.137 53.8421 93.0763 53.9261 93.0157 54.0101C92.955 54.0941 92.8944 54.1781 92.8338 54.2831C93.0561 54.5141 93.3391 54.7451 93.6827 54.9761C94.0061 55.2072 94.3497 55.4382 94.7135 55.6692C95.0773 55.9002 95.4209 56.1522 95.7646 56.4042C96.1082 56.6562 96.4316 56.9292 96.7145 57.2233C96.9975 57.5173 97.2198 57.8323 97.3815 58.1683C97.5432 58.5043 97.6443 58.8823 97.6443 59.2814C97.6443 59.4284 97.6241 59.5544 97.6039 59.7014C97.5837 59.8484 97.5432 59.9954 97.5028 60.1634C97.806 59.7644 98.1092 59.3444 98.3921 58.9243C98.6953 58.4833 98.9783 58.0003 99.2815 57.4963L101.262 56.6352C100.737 57.5173 100.211 58.3363 99.6453 59.0923C99.0794 59.8484 98.5134 60.5414 97.9273 61.1715C97.3411 61.8015 96.755 62.3475 96.1688 62.8305C95.5826 63.3136 95.0167 63.7336 94.4508 64.0696L94.0465 64.3216C93.6423 64.5736 93.238 64.7626 92.8338 64.9306C92.4295 65.0777 92.0455 65.2037 91.6615 65.2667C91.5806 65.2877 91.4796 65.3087 91.3987 65.3087C91.3179 65.3297 91.237 65.3297 91.1764 65.3297C90.6711 65.3717 90.2466 65.3297 89.903 65.2037C89.5392 65.0777 89.2562 64.8886 89.0541 64.6156C88.9732 64.5106 88.9328 64.4056 88.8722 64.2586C88.8318 64.1326 88.8115 63.9856 88.8115 63.8176C88.8115 63.3766 88.9732 62.8725 89.3169 62.3055L91.3179 61.4445C91.2168 61.6125 91.136 61.7805 91.0955 61.9275C91.0551 62.0745 91.0349 62.2215 91.0349 62.3685C91.0349 62.5785 91.0955 62.7885 91.1966 62.9775C91.3785 63.2086 91.6211 63.3766 91.9242 63.4606C92.2274 63.5446 92.5306 63.5656 92.854 63.5446L93.0157 63.5236C93.3795 63.4606 93.7433 63.3136 94.1274 63.0616C94.5114 62.8095 94.8348 62.4525 95.1178 61.9695C95.3603 61.5495 95.4816 61.1295 95.4816 60.7304C95.4816 60.4994 95.4007 60.2684 95.2592 60.0164C95.1178 59.7644 94.9156 59.5124 94.6933 59.2604C94.471 59.0083 94.2082 58.7563 93.905 58.5043C93.6018 58.2523 93.3189 58.0213 93.0157 57.7903C92.7125 57.5593 92.4295 57.3493 92.1668 57.1602C91.8838 56.9712 91.6615 56.8032 91.4796 56.6352L91.3987 56.5512C91.2976 56.7402 91.1764 56.9502 91.0551 57.1392C90.9338 57.3283 90.8328 57.5383 90.7115 57.7273C90.6104 57.9163 90.5094 58.0843 90.4083 58.2523C90.3073 58.3993 90.2466 58.5463 90.186 58.6303L88.2254 59.5124ZM110.479 54.9971C109.954 55.8792 109.428 56.6982 108.842 57.4543C108.276 58.2103 107.69 58.9033 107.104 59.5334C106.518 60.1634 105.931 60.7094 105.345 61.2135C104.759 61.6965 104.193 62.1165 103.627 62.4525C102.738 62.9985 101.949 63.3346 101.222 63.4816L101.101 63.5026C100.514 63.6076 100.009 63.5656 99.5644 63.3976C99.3623 63.2926 99.1804 63.1666 99.0389 62.9986C98.8974 62.8305 98.7762 62.6205 98.6751 62.3685C98.5943 62.1375 98.5336 61.8855 98.4932 61.6545C98.473 61.4025 98.4528 61.1505 98.4528 60.8984C98.4528 60.5834 98.473 60.2684 98.5336 59.9324C98.5741 59.5964 98.6549 59.2604 98.756 58.9243C98.9581 58.1893 99.2613 57.4543 99.6453 56.7192C100.029 55.9842 100.454 55.2912 100.939 54.6401C101.343 54.0941 101.768 53.5901 102.192 53.17C102.617 52.75 103.041 52.372 103.466 52.057C103.89 51.763 104.294 51.511 104.678 51.3219C105.083 51.1539 105.446 51.0279 105.81 50.9649C106.033 50.9229 106.255 50.9019 106.437 50.9229C106.619 50.9439 106.801 50.9649 106.942 51.0279C107.225 51.1539 107.427 51.364 107.528 51.658C107.569 51.742 107.589 51.826 107.609 51.91C107.629 51.994 107.629 52.099 107.629 52.204C107.629 52.477 107.569 52.771 107.468 53.107C107.346 53.4431 107.185 53.8211 106.962 54.2411L104.961 55.1021C105.143 54.8081 105.264 54.5561 105.345 54.3041C105.426 54.0521 105.467 53.8421 105.467 53.6531C105.467 53.5691 105.467 53.5061 105.446 53.4221C105.446 53.3591 105.426 53.2961 105.386 53.233C105.345 53.128 105.285 53.023 105.204 52.96C105.123 52.876 105.042 52.813 104.941 52.771C104.86 52.75 104.759 52.729 104.658 52.708C104.557 52.687 104.456 52.708 104.355 52.729L104.274 52.75C104.092 52.792 103.85 52.897 103.587 53.107C103.324 53.3171 103.041 53.6321 102.738 54.0521C102.334 54.5981 101.97 55.1861 101.646 55.8162C101.323 56.4462 101.08 57.0552 100.898 57.6853C100.716 58.2943 100.636 58.8823 100.636 59.4494C100.636 59.6804 100.656 59.9114 100.676 60.1424C100.696 60.3734 100.757 60.5834 100.838 60.7934C100.999 61.2345 101.242 61.5075 101.565 61.6545C101.727 61.7175 101.889 61.7805 102.051 61.8015C102.212 61.8225 102.394 61.8225 102.596 61.7805L102.718 61.7595C102.9 61.7175 103.082 61.6545 103.284 61.5705C103.466 61.5075 103.668 61.4025 103.87 61.2765C104.537 60.8564 105.265 60.2054 106.073 59.3024C106.881 58.3993 107.67 57.2653 108.498 55.8792L110.479 54.9971ZM82.9096 62.1795C82.6064 62.3475 82.3234 62.4735 82.0405 62.5785C81.7575 62.6835 81.4947 62.7675 81.2117 62.8095L80.9894 62.8515V63.1246C80.9894 63.5446 81.0501 63.9436 81.1713 64.3006C81.2926 64.6576 81.5352 64.9306 81.8585 65.1407C82.1415 65.3087 82.4245 65.3507 82.7277 65.2877C82.9096 65.2457 83.1117 65.1827 83.2936 65.0987C83.4755 65.0147 83.6776 64.8886 83.8596 64.7626C84.0415 64.6366 84.2436 64.4896 84.4255 64.3216C84.6074 64.1536 84.7691 64.0066 84.9308 63.8596C85.4563 63.3556 86.002 62.7255 86.5478 62.0115C87.0935 61.2975 87.6594 60.4574 88.2052 59.5124L90.1658 58.6513C89.519 59.7644 88.852 60.7514 88.1648 61.6335C87.4775 62.5155 86.8105 63.2926 86.1233 63.9436C85.1531 64.8886 84.2638 65.6237 83.3947 66.1487C82.5458 66.6737 81.7777 66.9888 81.1511 67.0938C80.7873 67.1568 80.4639 67.1358 80.1607 67.0518C79.8575 66.9678 79.615 66.7997 79.4331 66.5897C79.231 66.3587 79.0895 66.0857 78.9682 65.7497C78.8671 65.4137 78.8065 65.0357 78.8065 64.5946C78.8065 64.2166 78.8469 63.7966 78.9278 63.3556C79.0086 62.9145 79.1501 62.4525 79.332 61.9485C79.5139 61.4655 79.7565 60.9404 80.0394 60.4154C80.3224 59.8904 80.666 59.3444 81.0703 58.7773C81.9596 57.5173 82.8085 56.5512 83.6372 55.9002C84.4659 55.2492 85.2542 54.8291 86.0021 54.6821L86.1637 54.6611C86.7701 54.5561 87.235 54.6401 87.5382 54.9131C87.8414 55.1861 87.9828 55.5852 87.9828 56.0682C87.9828 56.3412 87.9424 56.6142 87.8616 56.9292C87.7807 57.2443 87.6392 57.5593 87.4573 57.8743C87.2148 58.2943 86.9116 58.7353 86.5478 59.1554C86.184 59.5754 85.8201 59.9744 85.3957 60.3524C84.9914 60.7304 84.567 61.0664 84.1223 61.4025C83.7383 61.6965 83.3138 61.9695 82.9096 62.1795ZM47.6392 67.0938L47.8009 66.7787C47.8818 66.4217 47.9829 66.0647 48.1041 65.7077C48.3265 64.9517 48.6094 64.1746 48.9328 63.3766C49.2562 62.5785 49.5796 61.6965 49.9434 60.7514C50.186 60.1214 50.4487 59.4494 50.7721 58.7143C51.0955 57.9793 51.4189 57.2443 51.7828 56.4882C52.1466 55.7322 52.5306 54.9551 52.9551 54.1991C53.3795 53.4221 53.804 52.687 54.2486 51.973C54.6933 51.2589 55.1582 50.5869 55.6433 49.9569C56.1284 49.3268 56.5933 48.7598 57.0784 48.2768C57.2198 48.1508 57.3613 48.0248 57.523 47.8778C57.6847 47.7518 57.8464 47.6258 58.0081 47.5208C58.1698 47.4157 58.3315 47.3107 58.473 47.2477C58.6347 47.1637 58.7762 47.1217 58.9177 47.1007C59.0996 47.0587 59.2613 47.1007 59.3825 47.2057C59.5038 47.3107 59.5645 47.4998 59.5645 47.7728C59.5645 47.8358 59.5645 47.9408 59.5442 48.0458C59.5442 48.1508 59.524 48.2558 59.4836 48.3608C59.4028 48.7808 59.2411 49.2638 58.9783 49.8729C58.7358 50.4609 58.4326 51.1119 58.0688 51.826C57.7049 52.54 57.3007 53.2961 56.856 54.0941C56.4113 54.8921 55.9263 55.7322 55.4412 56.5722C54.9359 57.4123 54.4306 58.2733 53.905 59.1344C53.3795 59.9954 52.8742 60.8564 52.3689 61.6755C51.904 62.4315 51.4594 63.1666 51.0551 63.8596C50.6307 64.5526 50.2668 65.2037 49.9232 65.7917C49.903 65.9387 49.8626 66.1277 49.802 66.3797C49.7615 66.6107 49.7009 66.8838 49.6605 67.1988C49.62 67.4928 49.5796 67.8078 49.5392 68.1438C49.4988 68.4798 49.4988 68.7948 49.4988 69.0889C49.4988 69.3829 49.519 69.6559 49.5594 69.9289C49.5998 70.2019 49.6605 70.4119 49.7413 70.6009C49.8424 70.79 49.9434 70.937 50.1051 71.021C50.2668 71.105 50.4487 71.147 50.6711 71.105C50.9743 71.063 51.2572 70.937 51.5402 70.7479C51.8434 70.5589 52.1264 70.3279 52.3891 70.0339C52.4902 69.9289 52.5912 69.8029 52.6923 69.6979C52.7934 69.5929 52.8742 69.4879 52.9753 69.3829C53.0561 69.2779 53.1572 69.1519 53.238 69.0259C53.3189 68.8999 53.4199 68.7528 53.5008 68.6058C53.238 68.5638 52.9753 68.4588 52.7125 68.3118C52.47 68.1648 52.2274 67.9548 52.0253 67.7238C51.8232 67.4928 51.6615 67.2198 51.5402 66.9048C51.4189 66.5897 51.3583 66.2747 51.3583 65.9387C51.3583 65.3927 51.4594 64.8886 51.6615 64.3846C51.8636 63.9016 52.1264 63.4816 52.4498 63.1036C52.7731 62.7255 53.137 62.4315 53.5412 62.1795C53.9455 61.9275 54.3295 61.7805 54.7135 61.6965C54.9359 61.6545 55.138 61.6545 55.2997 61.6755C55.7848 61.7595 56.1688 61.9485 56.4518 62.2845C56.7347 62.6205 56.8762 63.0406 56.8964 63.5656V63.7336C56.8964 64.3006 56.7752 64.9096 56.5326 65.5187C56.2901 66.1277 56.0071 66.7157 55.6837 67.2618C55.9263 67.1988 56.189 67.0938 56.4316 66.9468C56.6943 66.7997 56.9369 66.6317 57.1794 66.4217C57.422 66.2117 57.6443 65.9807 57.8666 65.7077C58.089 65.4557 58.2709 65.1617 58.4528 64.8676L60.4134 64.0066C59.9687 64.7626 59.5038 65.4137 59.0389 65.9597C58.5741 66.5057 58.089 66.9468 57.6241 67.3248C57.1592 67.6818 56.7145 67.9548 56.2699 68.1648C55.8252 68.3538 55.421 68.5008 55.0369 68.5638L54.7944 68.6058C54.6125 68.8579 54.4306 69.0889 54.2689 69.2989C54.1072 69.5089 53.905 69.7189 53.7029 69.9499C52.9551 70.7269 52.187 71.378 51.3987 71.882C50.6104 72.386 49.8424 72.722 49.0743 72.8481C48.7105 72.9111 48.4275 72.8901 48.185 72.7641C47.9424 72.638 47.7605 72.449 47.6392 72.218C47.4978 71.966 47.4169 71.672 47.3563 71.336C47.2956 71 47.2754 70.6429 47.2754 70.2859C47.2754 70.0339 47.2754 69.7609 47.2956 69.5089H47.3158V69.5299C47.1744 69.7399 46.7903 70.3279 46.1435 71.084C45.4361 71.903 44.7489 72.596 44.0617 73.1421C43.3745 73.6881 42.7277 74.0031 42.0809 74.1291C42 74.1291 41.9394 74.1291 41.8585 74.1291C41.7979 74.1291 41.7171 74.1291 41.6564 74.1291C41.2724 74.0661 41.0703 73.7301 41.0298 73.1631V72.8901C41.0298 72.659 41.0501 72.365 41.0905 72.05C41.1309 71.735 41.1915 71.399 41.2724 71C41.4745 70.1179 41.7979 69.0679 42.2628 67.8498C42.7075 66.6317 43.3138 65.2247 44.0819 63.5866C44.001 63.6286 43.9 63.6496 43.7787 63.6706C43.6776 63.6916 43.5766 63.7126 43.4957 63.7126C43.1319 63.7756 42.7883 63.7966 42.4649 63.7756C42.1415 63.7546 41.8585 63.6916 41.5958 63.5446C41.3937 64.2166 41.1309 64.9096 40.8479 65.6237C40.5448 66.3167 40.2011 67.0098 39.8171 67.6818L37.8565 68.5428C38.1395 68.0388 38.4023 67.5348 38.6448 66.9888C38.8874 66.4637 39.0895 65.9177 39.2714 65.3927C39.4533 64.8676 39.615 64.3426 39.7363 63.8386C39.8777 63.3346 39.9788 62.8515 40.0394 62.4105C40.0597 62.3475 40.0597 62.2845 40.0597 62.2425C40.0597 62.2005 40.0799 62.1375 40.1001 62.0745C40.0192 61.9485 39.9586 61.7805 39.8777 61.6125C39.8171 61.4445 39.7565 61.2555 39.7161 61.0874C39.6756 60.9194 39.6352 60.7304 39.615 60.5414C39.5948 60.3524 39.5746 60.2054 39.5746 60.0584L39.5948 59.7854C39.6756 59.2814 39.898 58.8613 40.2416 58.5253C40.5852 58.1893 41.0703 57.9793 41.6766 57.8743C41.8181 57.8533 41.899 57.8533 41.9798 57.8743C42.1213 57.9163 42.2224 58.0213 42.3032 58.2103C42.3841 58.3993 42.4245 58.6303 42.4245 58.9243C42.4245 59.2394 42.4245 59.5334 42.4043 59.7854C42.3841 60.0374 42.3639 60.2894 42.3234 60.5624C42.4447 60.8144 42.6064 61.0244 42.7883 61.2135C43.0309 61.4865 43.3138 61.7175 43.6574 61.8645C43.9808 62.0115 44.3447 62.0535 44.7691 61.9905C44.9106 61.9695 45.0723 61.9275 45.2138 61.8645C45.3755 61.8015 45.5372 61.7175 45.6989 61.6335L46.568 61.7385C45.7191 63.4816 45.0521 65.0147 44.5266 66.3377C44.0213 67.6608 43.6574 68.7738 43.4553 69.6979C43.3745 70.0339 43.3138 70.3489 43.2734 70.6219C43.233 70.895 43.2128 71.147 43.2128 71.357C43.2128 71.672 43.2532 71.903 43.334 72.05C43.4149 72.197 43.516 72.281 43.6372 72.344C44.0213 71.987 44.4053 71.609 44.7691 71.168C45.1329 70.7479 45.4765 70.2859 45.8201 69.8029C46.1638 69.3199 46.4871 68.8369 46.8105 68.3118C47.1339 67.9128 47.3967 67.4928 47.6392 67.0938ZM33.9758 66.0857C33.713 65.9177 33.43 65.8127 33.0864 65.7707C32.7428 65.7287 32.3992 65.7287 32.0556 65.7917C31.9748 65.8127 31.9141 65.8127 31.8333 65.8337C31.7524 65.8547 31.6918 65.8757 31.611 65.8967H31.5705C31.3886 65.9597 31.1865 66.0857 30.9844 66.2117C30.7822 66.3587 30.5599 66.5477 30.3376 66.8207C29.994 67.2198 29.6302 67.7028 29.2865 68.3118C28.9429 68.8999 28.5791 69.6349 28.2153 70.4749C28.1547 70.6219 28.0738 70.832 27.9727 71.105C27.8717 71.378 27.7706 71.672 27.6898 71.987C27.6089 72.302 27.5281 72.638 27.4472 72.9741C27.3866 73.3101 27.3462 73.6251 27.3462 73.9191C27.3462 74.0661 27.3462 74.2131 27.3866 74.3601C27.4068 74.5071 27.4472 74.6332 27.5079 74.7592C27.5685 74.8852 27.6494 74.9692 27.7302 75.0322C27.8313 75.0952 27.9525 75.1162 28.094 75.0952C28.2961 75.0532 28.5185 74.9272 28.7812 74.6752C29.044 74.4441 29.327 74.1291 29.6099 73.7931C29.8929 73.4361 30.1961 73.0581 30.4791 72.638C30.7822 72.218 31.045 71.798 31.3078 71.42C31.5705 71.021 31.7929 70.6639 31.995 70.3279C32.1971 69.9919 32.3386 69.7399 32.4396 69.5929C32.4599 69.5509 32.4801 69.5299 32.4801 69.5089C32.5003 69.4879 32.5205 69.4669 32.5205 69.4459C32.7024 68.9419 32.9247 68.4168 33.1471 67.8498C33.4301 67.2828 33.6928 66.6947 33.9758 66.0857ZM22.2931 74.6962C21.2219 74.8852 19.9485 75.3052 18.5134 75.9562C16.9975 76.6283 15.7848 77.2793 14.9157 77.9723C12.6923 79.7574 11.5806 81.2485 11.5806 82.5086C11.5806 83.2646 12.0859 83.5376 13.0763 83.3696C14.5923 83.0966 16.3709 81.9835 18.3922 80.0304C20.3527 78.1613 21.6463 76.3762 22.2931 74.6962ZM25.709 75.4102C25.709 75.8932 25.6079 76.1662 25.4058 76.2082C25.3249 76.2292 25.2845 76.1242 25.2643 75.8932C25.2239 75.4102 25.042 75.0742 24.7388 74.9062C23.8292 76.8383 22.0304 78.8334 19.3421 80.8705C16.6337 82.9286 14.3093 84.1256 12.3285 84.4827C10.671 84.7767 9.86256 84.3567 9.86256 83.2226C9.86256 82.1935 10.5093 80.9965 11.7827 79.6524C12.7125 78.6864 13.7636 77.8043 14.9763 77.0063C15.9263 76.3972 17.1794 75.7672 18.7358 75.1372C20.2921 74.5071 21.5857 74.1081 22.5761 73.9191C22.6771 73.5831 22.7176 73.2891 22.7176 72.9951C22.7176 71.336 21.5251 70.5799 19.1602 70.7479C18.3113 71.294 17.3815 71.651 16.3911 71.84C15.0976 72.071 14.4508 71.987 14.4508 71.567C14.4508 71.21 15.3603 70.79 17.1592 70.3069C18.6145 69.9079 19.9687 69.3409 21.2421 68.6058C22.8186 67.7028 24.2335 66.5687 25.5069 65.1827C27.1036 63.5026 27.9121 61.9275 27.9121 60.4994C27.9121 58.2943 25.9515 57.2443 22.0304 57.3493C14.4306 67.9128 9.78171 76.4392 8.04346 82.9916C7.76048 83.9576 7.63921 84.7347 7.63921 85.3227C7.63921 86.0787 7.86155 86.4148 8.286 86.3308C8.42749 86.3098 8.64982 86.2257 8.93279 86.1207C9.21577 85.9947 9.4381 85.9317 9.57958 85.9107C9.76149 85.8897 9.84234 85.8897 9.84234 85.9317C9.84234 86.0787 9.4381 86.3518 8.62961 86.6878C7.82112 87.0448 7.25518 87.2548 6.952 87.2968C5.86054 87.4858 5.29459 87.0028 5.29459 85.8477C5.29459 83.7266 7.05306 79.4424 10.5498 73.0371C13.0966 68.3538 15.6635 64.0486 18.2507 60.1634C18.2305 59.9324 18.7155 59.0713 19.7059 57.5593C19.3017 57.6013 18.8975 57.6643 18.5134 57.7273C12.4498 58.8193 7.94239 61.3395 5.03183 65.2877C3.79889 66.9678 3.19252 68.3748 3.19252 69.5509C3.19252 70.0339 3.35422 70.4329 3.67761 70.7059C4.00101 70.979 4.16271 71.147 4.16271 71.168C4.16271 71.21 4.12228 71.252 4.02122 71.273C3.39464 71.378 2.88934 71.147 2.48509 70.5799C2.1617 70.0969 2 69.5089 2 68.7949C2 67.5978 2.42446 66.3797 3.27337 65.1407C4.82971 62.8725 7.4573 60.9194 11.1763 59.2814C14.0667 58.0003 17.139 57.1182 20.3527 56.5722C20.4336 56.4462 20.4942 56.3202 20.5751 56.1732C21.04 55.6692 21.707 55.3542 22.5559 55.1861C23.0612 55.1021 23.3037 55.1651 23.3037 55.3962C23.3037 55.4802 23.1218 55.7532 22.7782 56.2362C27.7302 55.7952 30.1961 56.8452 30.1961 59.3864C30.1961 61.2975 28.9429 63.4816 26.4568 65.9387C24.1324 68.2278 21.9899 69.6139 20.0496 70.1179C21.3836 69.9499 22.4952 70.0969 23.425 70.5169C24.6175 71.063 25.2239 71.861 25.2239 72.9531C25.2239 73.2891 25.1633 73.6461 25.042 74.0451C25.4866 74.3601 25.709 74.8012 25.709 75.4102ZM31.4088 73.1211C30.7822 73.8981 30.1759 74.5491 29.6302 75.0532C29.0642 75.5782 28.5387 75.9772 28.0738 76.2712C27.5281 76.6073 27.043 76.7963 26.659 76.8803C26.4366 76.9223 26.2345 76.9223 26.0324 76.8803C25.6686 76.7963 25.426 76.5232 25.2845 76.0612C25.2441 75.9562 25.2239 75.8302 25.2037 75.7042C25.1835 75.5782 25.1835 75.4522 25.1835 75.3052C25.1835 74.3811 25.5069 73.1421 26.1334 71.588C26.5377 70.6009 26.9621 69.7399 27.4068 69.0049C27.8515 68.2698 28.3164 67.6398 28.7812 67.1148C29.4482 66.3587 30.1152 65.7287 30.7822 65.2877C31.4493 64.8256 32.0758 64.4896 32.7024 64.2796C32.8439 64.2376 32.9652 64.1956 33.1067 64.1536C33.2279 64.1116 33.3694 64.0696 33.5311 64.0486C33.7939 64.0066 34.0364 63.9856 34.2992 63.9646C34.5619 63.9646 34.8045 63.9856 35.047 64.0066C35.2896 64.0486 35.5119 64.1116 35.714 64.2166C35.9162 64.3216 36.0981 64.4476 36.2395 64.5946C35.33 66.5477 34.6428 68.1858 34.1779 69.5509C33.713 70.916 33.4503 71.987 33.3896 72.7641C33.3896 72.8061 33.3896 72.8481 33.3896 72.8901C33.3896 72.9321 33.3896 72.9951 33.3896 73.0581C33.3896 73.1631 33.3896 73.2891 33.4098 73.4151C33.4301 73.5411 33.4503 73.6461 33.4705 73.7721C33.4907 73.8771 33.5311 73.9611 33.5917 74.0241C33.6524 74.0871 33.713 74.1081 33.7939 74.0871C33.8545 74.0661 33.9758 73.9821 34.1577 73.7931C34.3396 73.6041 34.5417 73.3731 34.7641 73.1001C35.2896 72.491 35.8151 71.777 36.381 70.958C36.9268 70.1389 37.4523 69.3409 37.9374 68.5008L39.898 67.6398C39.3522 68.5638 38.7863 69.4669 38.1799 70.3699C37.5736 71.252 36.947 72.071 36.3406 72.7851C35.6332 73.6041 34.946 74.2971 34.2385 74.8432C33.5513 75.3682 32.8843 75.7042 32.2577 75.8092C32.0556 75.8512 31.8737 75.8302 31.7524 75.7882C31.611 75.7462 31.5099 75.6622 31.429 75.5362C31.3482 75.4312 31.2876 75.3052 31.2471 75.1372C31.2067 74.9902 31.1865 74.8222 31.1865 74.6542C31.1865 74.3811 31.2067 74.1291 31.2269 73.8771C31.3078 73.6461 31.3482 73.3941 31.4088 73.1211ZM113.976 50.9649C113.693 51.0069 113.41 51.1329 113.107 51.3219C112.804 51.511 112.521 51.763 112.278 52.036C111.854 52.498 111.49 53.044 111.146 53.6531C110.803 54.2621 110.54 54.8921 110.318 55.5642C110.156 56.0892 110.055 56.5932 110.014 57.0552C110.014 57.1392 109.994 57.2023 109.994 57.2863C109.994 57.3703 109.994 57.4333 109.994 57.5173C109.994 58.1683 110.115 58.7353 110.358 59.1764C110.499 59.4284 110.702 59.6384 110.924 59.7854C111.146 59.9324 111.409 60.0164 111.692 60.0374C111.874 60.0374 112.036 60.0374 112.197 60.0164C112.5 59.9534 112.783 59.8484 113.087 59.6594C113.37 59.4704 113.653 59.2184 113.915 58.9453C114.34 58.4833 114.704 57.9373 115.047 57.3493C115.391 56.7402 115.674 56.1102 115.876 55.4172C116.017 54.8921 116.118 54.3881 116.159 53.9261C116.179 53.8421 116.179 53.7581 116.179 53.6741C116.179 53.5901 116.179 53.5061 116.179 53.4431C116.179 52.771 116.058 52.225 115.795 51.784C115.654 51.532 115.451 51.3219 115.229 51.1749C115.007 51.0279 114.744 50.9439 114.461 50.9229C114.279 50.9229 114.117 50.9439 113.976 50.9649ZM121.576 53.002C120.949 54.0731 120.302 55.0391 119.615 55.9002C118.928 56.7402 118.221 57.4753 117.513 58.1053C116.806 58.7353 116.098 59.2394 115.411 59.6384C114.724 60.0374 114.057 60.3524 113.43 60.5414C112.965 60.8564 112.5 61.1295 112.056 61.3395C111.591 61.5495 111.146 61.6965 110.702 61.7805C110.56 61.8015 110.398 61.8225 110.277 61.8435C110.156 61.8645 110.014 61.8645 109.893 61.8435C109.529 61.8225 109.206 61.7175 108.923 61.5495C108.64 61.3815 108.418 61.1505 108.256 60.8354C108.114 60.6044 108.013 60.3104 107.933 59.9954C107.852 59.6804 107.811 59.3234 107.811 58.9243C107.811 58.8403 107.811 58.7773 107.811 58.6933C107.811 58.6093 107.811 58.5253 107.831 58.4623C107.852 58.2103 107.892 57.9373 107.953 57.6643C108.013 57.3913 108.094 57.0972 108.175 56.8032C108.418 55.9842 108.781 55.1861 109.246 54.4091C109.711 53.6321 110.217 52.918 110.803 52.267C111.53 51.448 112.298 50.7759 113.107 50.2299C113.915 49.7049 114.704 49.3478 115.492 49.2218C115.654 49.2008 115.795 49.1798 115.937 49.1588C116.058 49.1378 116.199 49.1588 116.321 49.1798C116.684 49.2008 117.008 49.3058 117.291 49.4739C117.574 49.6419 117.796 49.8729 117.958 50.1879C118.099 50.4189 118.2 50.7129 118.281 51.0279C118.362 51.3429 118.402 51.7 118.402 52.078C118.402 52.162 118.402 52.225 118.402 52.309C118.402 52.393 118.402 52.456 118.382 52.54C118.342 53.065 118.241 53.6111 118.059 54.1991C117.796 55.0181 117.452 55.8162 116.988 56.5932C116.543 57.3703 116.017 58.0843 115.451 58.7143C116.199 58.1683 116.927 57.4753 117.655 56.6772C118.382 55.8582 119.049 54.9341 119.656 53.8631L121.576 53.002ZM63.3644 67.3878C62.7378 68.1648 62.1314 68.8159 61.5857 69.3199C61.0197 69.8449 60.4942 70.2439 60.0293 70.5379C59.4836 70.874 58.9985 71.063 58.6145 71.147C58.3921 71.189 58.19 71.189 57.9879 71.147C57.6241 71.063 57.3815 70.79 57.24 70.3279C57.1996 70.2229 57.1794 70.0969 57.1592 69.9709C57.139 69.8449 57.139 69.7189 57.139 69.5719C57.139 68.6478 57.4624 67.4088 58.089 65.8547C58.4932 64.8676 58.9177 64.0066 59.3623 63.2716C59.807 62.5365 60.2719 61.9065 60.7368 61.3815C61.4038 60.6254 62.0708 59.9954 62.7378 59.5544C63.4048 59.0924 64.0314 58.7563 64.6579 58.5463C64.7994 58.5043 64.9207 58.4623 65.0622 58.4203C65.1835 58.3783 65.3249 58.3363 65.4866 58.3153C65.7494 58.2733 65.9919 58.2523 66.2547 58.2313C66.5175 58.2313 66.76 58.2523 67.0026 58.2733C67.2451 58.3153 67.4674 58.3783 67.6696 58.4833C67.8717 58.5883 68.0536 58.7143 68.1951 58.8613C67.2855 60.8144 66.5983 62.4525 66.1334 63.8176C65.6685 65.1827 65.4058 66.2537 65.3452 67.0308C65.3452 67.0728 65.3452 67.1148 65.3452 67.1568C65.3452 67.1988 65.3452 67.2618 65.3452 67.3248C65.3452 67.4298 65.3452 67.5558 65.3654 67.6818C65.3856 67.8078 65.4058 67.9128 65.426 68.0388C65.4462 68.1438 65.4866 68.2278 65.5473 68.2908C65.6079 68.3538 65.6686 68.3748 65.7494 68.3538C65.81 68.3328 65.9313 68.2488 66.1132 68.0598C66.2951 67.8708 66.4972 67.6398 66.7196 67.3668C67.2451 66.7577 67.7706 66.0437 68.3366 65.2247C68.8823 64.4056 69.4078 63.6076 69.8929 62.7675L71.8535 61.9065C71.3078 62.8305 70.7418 63.7336 70.1355 64.6366C69.5291 65.5187 68.9025 66.3377 68.2961 67.0518C67.5887 67.8708 66.8813 68.5638 66.1941 69.1099C65.5069 69.6349 64.8398 69.9709 64.2133 70.0759C64.0111 70.1179 63.8292 70.0969 63.708 70.0549C63.5665 70.0129 63.4654 69.9289 63.3846 69.8029C63.3037 69.6979 63.2431 69.5719 63.2027 69.4039C63.1622 69.2569 63.142 69.0889 63.142 68.9209C63.142 68.6478 63.1622 68.3958 63.1824 68.1438C63.2431 67.9128 63.2835 67.6608 63.3644 67.3878Z" fill="white"/>
<path d="M29.6692 80.4083L30.1139 80.3663L29.8916 80.3873L81.7763 70.5798L81.271 67.5557L98.7546 67.3877L98.2089 78.4132H98.128L98.027 68.3957L29.9724 80.5973L30.0128 91.0349L82.5444 81.5844L45.7177 88.9978L46.6879 91.4759L29.6086 91.6019L29.6692 80.4083Z" fill="white"/>
<path d="M90.8707 72.1339V71.6509L92.3866 71.3779V71.8399L92.0026 71.9029V77.3842L92.5281 77.2792C92.7505 77.2372 92.8919 77.1532 92.993 77.0272C93.0334 76.9432 93.0739 76.8802 93.1143 76.7752C93.1345 76.6912 93.1547 76.5862 93.1547 76.4602L93.1951 75.4101L93.6802 75.3261V77.5312L90.8707 78.0352V77.5522L91.275 77.4892V72.0499L90.8707 72.1339ZM88.0208 72.638V76.4182C88.0208 76.6702 88.0208 76.9012 88.0208 77.0692C88.0208 77.2372 88.041 77.4052 88.041 77.5522C88.041 77.6572 88.0612 77.7622 88.0814 77.8462C88.1219 77.9302 88.1623 77.9932 88.2229 78.0562C88.324 78.1612 88.5059 78.1822 88.7484 78.1402C88.9506 78.0982 89.0921 78.0352 89.1931 77.9512C89.2942 77.8672 89.3548 77.7412 89.3952 77.5942C89.4155 77.4472 89.4357 77.2372 89.4357 77.0062V76.1661V72.344L89.0314 72.407V71.9239L90.5675 71.6509V72.1339L90.1633 72.1969V76.0191C90.1633 76.2922 90.1633 76.5442 90.1431 76.7542C90.1229 76.9642 90.1027 77.1532 90.042 77.3212C89.9814 77.6572 89.8399 77.9302 89.6176 78.1402C89.3952 78.3503 89.1123 78.4763 88.7484 78.5393C88.2229 78.6233 87.8591 78.5183 87.6368 78.2032C87.4144 77.8882 87.3134 77.3212 87.3134 76.5442V72.764L86.8889 72.848V72.365L88.4251 72.0919V72.575L88.0208 72.638ZM84.4028 76.0191C84.4028 76.3132 84.4028 76.5862 84.4028 76.7962C84.4028 77.0272 84.423 77.2372 84.423 77.4472C84.423 77.5942 84.4433 77.7622 84.4635 77.9092C84.5039 78.0562 84.5443 78.2242 84.6049 78.4133C84.706 78.7073 84.8879 78.8333 85.1103 78.7913C85.4336 78.7283 85.6358 78.4133 85.6964 77.8462C85.7773 77.2792 85.8177 76.5862 85.8177 75.7461C85.8177 74.8641 85.7773 74.171 85.7166 73.667C85.6358 73.163 85.4539 72.932 85.1103 72.995C84.8879 73.037 84.706 73.226 84.6049 73.562C84.5443 73.751 84.5039 73.919 84.4635 74.066C84.423 74.234 84.423 74.4021 84.423 74.5701C84.423 74.8431 84.423 75.0951 84.423 75.3261C84.423 75.5781 84.4028 75.7881 84.4028 76.0191ZM83.5943 76.1451C83.5943 74.8431 83.756 73.919 84.0794 73.394C84.4028 72.869 84.7464 72.575 85.09 72.512C85.4337 72.449 85.7773 72.617 86.1209 73.016C86.4443 73.415 86.6262 74.276 86.6262 75.5781C86.6262 76.9012 86.4645 77.8252 86.1411 78.3293C85.8177 78.8333 85.4741 79.1273 85.1103 79.1903C84.7666 79.2533 84.423 79.0853 84.0996 78.6863C83.756 78.3293 83.5943 77.4682 83.5943 76.1451ZM82.4625 77.9932C82.4625 77.7412 82.4422 77.5522 82.3816 77.3842C82.321 77.2162 82.2603 77.0902 82.1997 76.9852C82.1795 76.9432 82.1188 76.8802 82.0178 76.7752C81.9167 76.6702 81.8763 76.6282 81.8763 76.6282L81.4923 76.2502C81.2295 75.9561 81.0274 75.7041 80.8859 75.4731C80.7646 75.2421 80.704 74.9901 80.704 74.6751C80.704 74.2341 80.8051 73.856 81.0274 73.583C81.2497 73.289 81.5125 73.121 81.8561 73.058C82.1593 72.995 82.4018 73.079 82.6242 73.31L82.6848 73.058L83.0486 72.995V74.8851L82.6039 74.9691C82.6039 73.961 82.4018 73.478 81.9774 73.562C81.7752 73.604 81.6338 73.709 81.5731 73.898C81.5125 74.087 81.4721 74.3181 81.4721 74.5911C81.4721 74.8011 81.5125 74.9691 81.5933 75.0741C81.6742 75.2001 81.7955 75.3471 81.9976 75.5361L82.3816 75.9141C82.705 76.2712 82.9273 76.5862 83.089 76.8802C83.2507 77.1532 83.3316 77.4682 83.3316 77.8252C83.3316 78.3503 83.2103 78.7913 82.988 79.1483C82.7656 79.5053 82.4018 79.7153 81.9369 79.7993C81.5327 79.8623 81.2093 79.7783 81.0072 79.5053C80.7848 79.2323 80.6838 78.8963 80.6838 78.4973C80.6838 78.3713 80.6838 78.2873 80.704 78.2242C80.704 78.1612 80.7242 78.0772 80.7646 77.9722C80.8051 77.8672 80.8455 77.7832 80.9061 77.7202C80.9668 77.6572 81.0274 77.6152 81.1082 77.5942C81.2093 77.5732 81.2901 77.6152 81.3912 77.7202C81.4721 77.8252 81.5125 77.9722 81.5125 78.1822C81.5125 78.2873 81.5125 78.3713 81.4923 78.4763C81.4721 78.5603 81.4518 78.6443 81.4114 78.7493L81.3912 78.7913L81.371 78.8543L81.3508 78.9593C81.3508 79.0643 81.4114 79.1483 81.5327 79.2533C81.6338 79.3373 81.755 79.3583 81.8965 79.3373C81.9572 79.3163 82.038 79.2953 82.1188 79.2323C82.1997 79.1903 82.3008 79.0643 82.4018 78.8543C82.422 78.6863 82.4625 78.3923 82.4625 77.9932ZM76.3584 79.0853C76.3584 78.8333 76.3382 78.6443 76.2775 78.4763C76.2169 78.3083 76.1563 78.1822 76.0956 78.0772C76.0754 78.0352 76.0148 77.9722 75.9137 77.8672C75.8126 77.7622 75.7722 77.7202 75.7722 77.7202L75.3882 77.3422C75.1254 77.0482 74.9233 76.7962 74.7818 76.5652C74.6605 76.3342 74.5999 76.0821 74.5999 75.7671C74.5999 75.3261 74.701 74.9481 74.9233 74.6751C75.1456 74.3811 75.4084 74.213 75.752 74.15C76.0552 74.087 76.2977 74.171 76.5201 74.4021L76.5807 74.15L76.9445 74.087V75.9771L76.4999 76.0611C76.4999 75.0531 76.2977 74.5701 75.8733 74.6541C75.6712 74.6961 75.5297 74.8011 75.469 74.9901C75.4084 75.1791 75.368 75.4101 75.368 75.6831C75.368 75.8931 75.4084 76.0611 75.4892 76.1661C75.5701 76.2922 75.6914 76.4392 75.8935 76.6282L76.2775 77.0062C76.6009 77.3632 76.8233 77.6782 76.9849 77.9722C77.1466 78.2452 77.2275 78.5603 77.2275 78.9173C77.2275 79.4423 77.1062 79.8833 76.8839 80.2403C76.6616 80.5974 76.2977 80.8074 75.8329 80.8914C75.4286 80.9544 75.1052 80.8704 74.9031 80.5974C74.6808 80.3244 74.5797 79.9883 74.5797 79.5893C74.5797 79.4633 74.5797 79.3793 74.5999 79.3163C74.5999 79.2533 74.6201 79.1693 74.6605 79.0643C74.701 78.9593 74.7414 78.8753 74.802 78.8123C74.8627 78.7493 74.9233 78.7073 75.0041 78.6863C75.1052 78.6653 75.1861 78.7073 75.2871 78.8123C75.368 78.9173 75.4084 79.0643 75.4084 79.2743C75.4084 79.3793 75.4084 79.4633 75.3882 79.5683C75.368 79.6523 75.3478 79.7363 75.3073 79.8413L75.2871 79.8833L75.2669 79.9463L75.2467 80.0513C75.2467 80.1563 75.3073 80.2403 75.4286 80.3454C75.5297 80.4294 75.6509 80.4504 75.7924 80.4294C75.8531 80.4084 75.9339 80.3874 76.0148 80.3244C76.0956 80.2824 76.1967 80.1563 76.2977 79.9463C76.3179 79.7783 76.3584 79.4843 76.3584 79.0853ZM73.1042 76.5232C73.1042 76.1241 73.0436 75.8091 72.9223 75.5781C72.8414 75.4101 72.6797 75.3471 72.4372 75.3891C72.3766 75.4101 72.3159 75.4101 72.2553 75.4311C72.1947 75.4731 72.1542 75.4941 72.134 75.5151V77.9092C72.1947 77.9092 72.2553 77.9092 72.3564 77.8882C72.8414 77.7832 73.1042 77.3212 73.1042 76.5232ZM71.3862 81.0804V75.6411L71.0021 75.7041V75.2211L72.5383 74.9481C72.8414 74.8851 73.1446 74.9481 73.4276 75.0951C73.7308 75.2421 73.8723 75.6831 73.8723 76.3762C73.8723 76.9642 73.7106 77.4052 73.4276 77.6992L73.1244 77.9302C73.0638 77.9722 73.0031 78.0142 72.9425 78.0352C73.1851 78.0772 73.367 78.2032 73.5084 78.3923C73.6499 78.5813 73.7106 78.8543 73.7106 79.1693L73.7712 80.0303C73.7712 80.1563 73.7712 80.2403 73.7914 80.3244C73.8116 80.4084 73.8318 80.4714 73.8723 80.5344C73.9127 80.5974 74.0138 80.6184 74.1755 80.5764V81.0594C74.034 81.1644 73.8925 81.2274 73.751 81.2694C73.6904 81.2694 73.6701 81.2904 73.6297 81.2904C73.2861 81.2694 73.084 80.9754 73.0234 80.3664L72.9223 79.2533C72.9223 79.1063 72.9021 78.9593 72.8617 78.8333C72.8212 78.7073 72.7606 78.6023 72.7 78.5183C72.5989 78.3923 72.4372 78.3503 72.2351 78.3923C72.1744 78.3923 72.134 78.4133 72.1138 78.4133V80.9754L72.518 80.9124V81.3954L71.0021 81.6684V81.1854L71.3862 81.0804ZM70.5979 77.3422L70.1532 77.4262C70.1532 77.1532 70.133 76.8802 70.1128 76.6282C70.0926 76.3762 70.0522 76.1871 69.9713 76.0821C69.8702 75.9561 69.7288 75.9141 69.5266 75.9561L69.0213 76.0401V78.3083L69.3852 78.2452V77.5732L69.8702 77.4892V79.3793L69.3852 79.4633V78.7703L69.0213 78.8333V81.5214L69.5469 81.4374C69.7692 81.3954 69.9107 81.3114 70.0117 81.1854C70.0522 81.1014 70.0926 81.0384 70.1128 80.9334C70.133 80.8494 70.1532 80.7444 70.1532 80.6184L70.2139 79.5683L70.699 79.4843V81.6894L67.8895 82.1934V81.7104L68.2937 81.6474V76.2081L67.8895 76.2711V75.7881L70.5979 75.3051V77.3422ZM66.8991 82.4245V82.1514C66.6969 82.4245 66.4544 82.5715 66.1714 82.6345C65.747 82.7185 65.3831 82.5295 65.08 82.1094C64.9385 81.8784 64.8172 81.5634 64.7364 81.1224C64.6555 80.6814 64.6151 80.1563 64.6151 79.5263C64.6151 79.0013 64.6353 78.5813 64.6555 78.2452C64.6959 77.9092 64.7566 77.6152 64.8374 77.3422C65.0193 76.8172 65.2214 76.4602 65.4438 76.2711C65.5448 76.1871 65.6661 76.1031 65.7672 76.0611C65.8884 76.0191 65.9895 75.9771 66.1108 75.9561C66.3735 75.9141 66.5959 76.0191 66.8182 76.2711L66.9193 76.0191L67.2629 75.9561V77.9722L66.8182 78.0562C66.8182 77.8462 66.798 77.6572 66.7778 77.4472C66.7374 77.2582 66.6969 77.0692 66.6363 76.8802C66.5352 76.5652 66.3533 76.4182 66.1108 76.4602C65.8682 76.5022 65.7065 76.6912 65.6055 77.0272C65.5044 77.3632 65.4438 77.8462 65.4438 78.4343V79.3583C65.4438 81.2064 65.6863 82.0884 66.2118 82.0044C66.3533 81.9834 66.4948 81.8574 66.6363 81.6054C66.7778 81.3744 66.8788 81.0384 66.9193 80.6394V79.6523C66.7576 79.6733 66.6565 79.7573 66.5959 79.8833C66.5352 80.0093 66.515 80.3034 66.515 80.7864L66.131 80.8494V79.3373L67.5256 79.0853L67.5458 82.2984L66.8991 82.4245ZM63.2002 78.2873C63.2002 77.8882 63.1396 77.5732 63.0183 77.3422C62.9375 77.1742 62.7758 77.1112 62.5332 77.1532C62.4726 77.1742 62.4119 77.1742 62.3513 77.1952C62.2907 77.2372 62.2502 77.2582 62.23 77.2792V79.6733C62.2907 79.6733 62.3513 79.6733 62.4524 79.6523C62.9375 79.5473 63.2002 79.1063 63.2002 78.2873ZM61.5024 82.8655V77.4262L61.1184 77.4892V77.0062L62.6545 76.7332C62.9577 76.6702 63.2609 76.7332 63.5438 76.8802C63.847 77.0272 63.9885 77.4682 63.9885 78.1612C63.9885 78.7493 63.8268 79.1903 63.5438 79.4843L63.2406 79.7153C63.18 79.7573 63.1194 79.7993 63.0587 79.8203C63.3013 79.8623 63.4832 79.9883 63.6247 80.1773C63.7662 80.3664 63.8268 80.6394 63.8268 80.9544L63.8874 81.8154C63.8874 81.9414 63.8874 82.0254 63.9076 82.1094C63.9279 82.1934 63.9481 82.2564 63.9885 82.3195C64.0289 82.3825 64.13 82.4035 64.2917 82.3615V82.8445C64.1502 82.9495 64.0087 83.0125 63.8672 83.0545C63.8066 83.0545 63.7864 83.0755 63.746 83.0755C63.4023 83.0545 63.2002 82.7605 63.1396 82.1514L63.0385 81.0384C63.0385 80.8914 63.0183 80.7444 62.9779 80.6184C62.9375 80.4924 62.8768 80.3874 62.8162 80.3034C62.7151 80.1773 62.5534 80.1353 62.3513 80.1773C62.2907 80.1773 62.2502 80.1983 62.23 80.1983V82.7605L62.6343 82.6975V83.1805L61.1184 83.4535V82.9705L61.5024 82.8655ZM58.2887 77.9932V81.7734C58.2887 82.0254 58.2887 82.2564 58.2887 82.4245C58.2887 82.5925 58.3089 82.7605 58.3089 82.9075C58.3089 83.0125 58.3291 83.1175 58.3493 83.2015C58.3897 83.2855 58.4301 83.3485 58.4908 83.4115C58.5918 83.5165 58.7738 83.5375 59.0163 83.4955C59.2184 83.4535 59.3599 83.3905 59.461 83.3065C59.562 83.2225 59.6227 83.0965 59.6631 82.9495C59.6833 82.8025 59.7035 82.5925 59.7035 82.3615V81.5214V77.6992L59.2993 77.7622V77.2792L60.8354 77.0062V77.4892L60.4312 77.5522V81.3744C60.4312 81.6474 60.4312 81.8994 60.4109 82.1094C60.3907 82.3195 60.3705 82.5085 60.3099 82.6765C60.2492 83.0125 60.1078 83.2855 59.8854 83.4955C59.6631 83.7055 59.3801 83.8315 59.0163 83.8945C58.4908 83.9785 58.127 83.8735 57.9046 83.5585C57.6823 83.2435 57.5812 82.6765 57.5812 81.8994V78.1192L57.1568 78.2032V77.7202L58.6929 77.4472V77.9302L58.2887 77.9932ZM55.0749 83.9995C55.1356 83.9995 55.176 83.9995 55.2366 83.9785C55.277 83.9785 55.3175 83.9785 55.3377 83.9575C55.5802 83.9155 55.7621 83.8105 55.8632 83.6425C56.0047 83.4115 56.0855 83.0125 56.0855 82.4875C56.0855 82.3615 56.0653 82.1724 56.0451 81.9414C56.0249 81.7104 55.9845 81.5424 55.9238 81.4374C55.8632 81.3324 55.7621 81.2694 55.5802 81.2274C55.4994 81.2064 55.3983 81.2064 55.277 81.2274C55.2366 81.2274 55.2164 81.2484 55.176 81.2484C55.1153 81.2484 55.0951 81.2694 55.0547 81.2694L55.0749 83.9995ZM55.0749 80.7654C55.1153 80.7654 55.1558 80.7654 55.2164 80.7654C55.277 80.7654 55.3175 80.7654 55.3579 80.7444C55.5802 80.7024 55.7419 80.5764 55.843 80.3454C55.944 80.1143 55.9845 79.7363 55.9845 79.1903C55.9845 78.8753 55.9036 78.6443 55.7217 78.5183C55.6206 78.4133 55.4792 78.3923 55.2972 78.4133C55.2568 78.4133 55.176 78.4553 55.0547 78.4973L55.0749 80.7654ZM54.3271 84.1465V78.7073L53.9228 78.7703V78.2873L55.5196 77.9932C55.6409 77.9722 55.7823 77.9722 55.944 77.9932C56.1057 78.0142 56.2876 78.1402 56.4696 78.3293C56.6515 78.5393 56.7323 78.8543 56.7323 79.2953C56.7323 79.5893 56.6717 79.8623 56.5706 80.1143C56.4696 80.3664 56.2472 80.5974 55.9238 80.8494C56.1462 80.8704 56.3685 80.9964 56.5706 81.2274C56.7525 81.4374 56.8536 81.8364 56.8536 82.4665C56.8536 82.8025 56.8132 83.0965 56.7323 83.3485C56.6515 83.6005 56.5504 83.7895 56.4089 83.9365C56.1462 84.2095 55.8834 84.3566 55.6206 84.3986L53.8824 84.7136V84.2305L54.3271 84.1465ZM48.5868 80.4924L48.0815 83.6005L49.1325 83.4115L48.5868 80.4924ZM49.2134 83.9365L47.9804 84.1675L47.7783 85.3646L48.1826 85.3016V85.7636L46.9092 85.9946V85.5326L47.2326 85.4696L48.3442 79.2113L49.0315 79.0853L50.1836 84.9446L50.5676 84.8816V85.3436L49.0315 85.6166V85.1546L49.4357 85.0916L49.2134 83.9365ZM44.4231 80.4714C44.3018 80.4924 44.2007 80.5764 44.1401 80.7234C44.0795 80.8704 44.039 81.0174 44.0188 81.1644L43.9582 81.9834V82.0884V82.1724L43.5337 82.2564V80.9544V80.1563L46.6262 79.6103V80.0933L46.3028 80.1563L44.3827 85.9736L45.6965 85.7636C45.8177 85.7426 45.9188 85.6376 46.0198 85.4696C46.0603 85.3856 46.1007 85.3226 46.1209 85.2386C46.1411 85.1756 46.1613 85.0916 46.1815 84.9866L46.2422 84.1675V84.1045V83.9995L46.6666 83.9155V86.0366C46.4847 86.0786 46.2624 86.1206 46.0198 86.1626C45.7773 86.2046 45.5752 86.2466 45.4135 86.2676L43.3316 86.6037V86.1416L43.6146 86.0996L45.5145 80.2824L44.4231 80.4714ZM40.8253 81.1224C40.704 81.1434 40.603 81.2274 40.5423 81.3744C40.4817 81.5214 40.4413 81.6684 40.4211 81.8154L40.3604 82.6345V82.7395V82.8235L39.936 82.9075V81.6054V80.8074L43.0284 80.2613V80.7444L42.705 80.8074L40.7849 86.6247L42.0987 86.4147C42.22 86.3937 42.321 86.2887 42.4221 86.1206C42.4625 86.0366 42.5029 85.9736 42.5231 85.9106C42.5433 85.8476 42.5636 85.7636 42.5838 85.6586L42.6444 84.8396V84.7556V84.6506L43.0689 84.5666V86.6877C42.887 86.7297 42.6646 86.7717 42.4221 86.8137C42.1795 86.8557 41.9774 86.8977 41.8157 86.9187L39.7339 87.2547V86.7927L40.0168 86.7507L41.9168 80.9334L40.8253 81.1224ZM38.3392 87.0237V81.5844L37.935 81.6474V81.1644L39.4509 80.8914V81.3744L39.0668 81.4374V86.8767L39.4509 86.8137V87.2967L37.935 87.5697V87.0867L38.3392 87.0237ZM35.7925 84.7346C35.9137 84.7346 36.035 84.7346 36.1159 84.7136C36.3584 84.6716 36.5201 84.5456 36.6212 84.3146C36.7424 83.9995 36.8233 83.6215 36.8233 83.1805C36.8233 82.6765 36.7627 82.3195 36.6414 82.0884C36.5403 81.9204 36.3584 81.8574 36.0957 81.8994C36.0148 81.9204 35.9137 81.9414 35.8127 81.9834L35.7925 84.7346ZM35.7925 85.2596V87.5067L36.1765 87.4437V87.9267L34.6606 88.1997V87.7167L35.0648 87.6537V82.2144L34.6606 82.2775V81.7944L35.8935 81.5634C36.2169 81.5004 36.4999 81.4794 36.702 81.5004C36.9244 81.5214 37.1265 81.6474 37.3084 81.8784C37.4903 82.1094 37.5914 82.5295 37.5914 83.0965C37.5914 84.3146 37.1265 85.0286 36.2169 85.1756L35.7925 85.2596Z" fill="white"/>
<path d="M32.7009 84.7135C33.0849 84.7135 33.3881 85.0286 33.3881 85.4276C33.3881 85.8266 33.0849 86.1416 32.7009 86.1416C32.3168 86.1416 32.0136 85.8266 32.0136 85.4276C31.9934 85.0286 32.3168 84.7135 32.7009 84.7135Z" fill="white"/>
<path d="M51.9237 81.1857C52.3078 81.1857 52.6109 81.5007 52.6109 81.8997C52.6109 82.2987 52.3078 82.6138 51.9237 82.6138C51.5397 82.6138 51.2365 82.2987 51.2365 81.8997C51.2163 81.5007 51.5397 81.1857 51.9237 81.1857Z" fill="white"/>
<path d="M78.807 76.4182C79.1911 76.4182 79.4942 76.7332 79.4942 77.1323C79.4942 77.5313 79.1911 77.8463 78.807 77.8463C78.423 77.8463 78.1198 77.5313 78.1198 77.1323C78.0996 76.7332 78.423 76.4182 78.807 76.4182Z" fill="white"/>
<path d="M95.1363 73.1631C95.5204 73.1631 95.8236 73.4781 95.8236 73.8771C95.8236 74.2761 95.5204 74.5911 95.1363 74.5911C94.7523 74.5911 94.4491 74.2761 94.4491 73.8771C94.4289 73.4781 94.7523 73.1631 95.1363 73.1631Z" fill="white"/>
<path d="M86.971 41.9345L86.4253 41.6195C86.6072 41.2625 86.7689 40.9265 86.9306 40.5905C87.0721 40.2544 87.1529 39.9814 87.1327 39.7714C87.1125 39.5194 86.971 39.3304 86.7285 39.1834L86.1019 38.8264L84.586 41.6825L85.0306 41.9345L85.4753 41.0735L86.0817 41.4095L84.8083 43.7826L84.2019 43.4466L84.6668 42.5855L84.2221 42.3335L82.4233 45.6727L83.0701 46.0507C83.3328 46.1977 83.5551 46.2397 83.7371 46.1557C83.8381 46.1137 83.9392 46.0297 84.02 45.9457C84.1009 45.8617 84.2019 45.7567 84.2828 45.5887L85.0509 44.3286L85.6572 44.6646L84.1817 47.4368L80.7456 45.4627L81.069 44.8536L81.5541 45.1267L85.1923 38.3014L84.7072 38.0283L85.0306 37.4193L88.3454 39.3304L86.971 41.9345ZM80.9882 38.7004L80.402 38.4694C80.5435 38.0913 80.6648 37.7343 80.7456 37.3773C80.8467 37.0203 80.8669 36.7473 80.8467 36.5373C80.7861 36.2853 80.6244 36.1172 80.3616 36.0122L79.6946 35.7392L78.5829 38.7844L79.068 38.9734L79.4116 38.0703L80.0584 38.3224L79.1287 40.8425L78.4819 40.5905L78.8255 39.6664L78.3404 39.4774L77.0064 43.0686L77.5521 43.2786L77.3096 43.9296L75.3086 43.1316L75.5511 42.4805L76.0766 42.6905L78.7648 35.4032L78.2393 35.1932L78.4819 34.5422L82.019 35.9492L80.9882 38.7004ZM71.8118 34.7312L70.4576 38.8894L71.9129 39.1204L71.8118 34.7312ZM71.9331 39.8764L70.2151 39.6034L69.6896 41.1785L70.2353 41.2625L70.1342 41.9135L68.3758 41.6195L68.4768 40.9685L68.9215 41.0315L71.7714 32.7151L72.7214 32.8621L73.0246 41.7035L73.5501 41.7875L73.449 42.4385L71.3065 42.1235L71.4076 41.4725L71.9533 41.5565L71.9331 39.8764ZM66.395 32.3371L66.3545 35.2142L65.7279 35.1932C65.7279 34.9202 65.728 34.6682 65.6875 34.4162C65.6673 34.1852 65.5865 33.8491 65.4854 33.4081C65.3843 32.9671 65.1418 32.7571 64.778 32.7361C64.3131 32.7361 64.0099 33.4081 63.8684 34.7942C63.828 35.3192 63.7876 35.9492 63.7674 36.7053C63.7269 39.3514 64.0503 40.6955 64.7578 40.6955C64.9801 40.6955 65.2226 40.4855 65.445 40.0234C65.6673 39.5824 65.7886 38.9944 65.8088 38.2594L66.5162 38.2804C66.496 39.5614 66.2939 40.4225 65.9099 40.8635C65.5258 41.3045 65.1216 41.5355 64.6971 41.5775C63.9897 41.5565 63.444 41.1575 63.0801 40.3385C62.7163 39.5194 62.5546 38.3014 62.5748 36.6843C62.5951 34.9202 62.8578 33.6601 63.3227 32.8831C63.6865 32.2741 64.1716 31.98 64.7578 32.0011C65.1418 32.0431 65.4652 32.2531 65.7482 32.6521L65.9099 32.3161L66.395 32.3371ZM53.2772 42.5015L52.4283 39.3514L49.4975 35.4662L49.0326 35.5922L48.8507 34.9412L50.9326 34.3112L51.1145 34.9622L50.6496 35.0882L52.6506 37.9023L52.7517 34.4582L52.206 34.6262L52.0241 33.9751L53.8432 33.4291L54.0251 34.0801L53.4995 34.2482L53.3783 39.0784L54.2474 42.1865L54.7729 42.0395L54.9548 42.6905L52.9134 43.3206L52.7315 42.6695L53.2772 42.5015ZM48.6284 45.0007L46.8093 45.9667L46.5061 45.3577L46.9912 45.1057L43.5753 38.1333C43.5349 38.1543 43.4945 38.1753 43.4339 38.1963C43.2317 38.3014 43.1105 38.5114 43.0902 38.7844L43.1509 39.1414L43.2924 39.5614L43.3934 39.7504C43.4339 39.8344 43.4743 39.9184 43.4945 39.9604L43.7775 40.6325L43.2115 40.9265L41.8977 38.2383L45.5157 36.3273L46.8295 39.0154L46.2636 39.3094L45.8997 38.6794L45.7583 38.4904C45.7178 38.4064 45.6774 38.3224 45.6572 38.2804C45.5764 38.1123 45.4955 37.9653 45.4147 37.8603C45.3338 37.7553 45.253 37.6923 45.1923 37.6503C44.97 37.5033 44.7477 37.4823 44.5455 37.5873C44.4849 37.6083 44.4445 37.6503 44.4243 37.6503L47.8603 44.6436L48.3454 44.3916L48.6284 45.0007ZM42.6052 47.9618L38.2999 41.5775L37.8351 41.9135L37.451 41.3465L39.1893 40.0864L39.5733 40.6535L39.1287 40.9895L43.4339 47.3738L43.8785 47.0378L44.2626 47.6048L42.5243 48.8648L42.1403 48.2978L42.6052 47.9618ZM34.783 43.5726L36.683 45.6727L36.2181 46.1137C36.0362 45.9037 35.8543 45.7357 35.6724 45.5887C35.4904 45.4417 35.2075 45.2527 34.8437 45.0007C34.4798 44.7696 34.1564 44.7696 33.8735 45.0427C33.5299 45.3787 33.7724 46.0927 34.6011 47.1848C34.9043 47.5838 35.3085 48.0668 35.8138 48.6338C37.5521 50.5659 38.684 51.301 39.2095 50.7969C39.3712 50.6289 39.3914 50.3139 39.2701 49.8309C39.1489 49.3479 38.8255 48.8228 38.3404 48.2978L38.8659 47.7938C39.7148 48.7388 40.1393 49.4949 40.1595 50.0829C40.1797 50.6709 40.0382 51.133 39.7552 51.469C39.2297 51.973 38.5829 52.057 37.7744 51.742C36.9659 51.427 36.0362 50.6709 34.9649 49.4739C33.8128 48.1928 33.1458 47.1008 32.9639 46.1977C32.8224 45.5047 32.9639 44.9376 33.4086 44.5176C33.7118 44.2656 34.0958 44.1816 34.5405 44.2656L34.4192 43.9086L34.783 43.5726Z" fill="white"/>
<path d="M32.2971 50.608C32.762 50.608 33.146 51.007 33.146 51.4901C33.146 51.9731 32.762 52.3721 32.2971 52.3721C31.8322 52.3721 31.4482 51.9731 31.4482 51.4901C31.4482 51.007 31.8322 50.608 32.2971 50.608Z" fill="white"/>
<path d="M88.8306 43.6987C89.2955 43.6987 89.6796 44.0977 89.6796 44.5807C89.6796 45.0638 89.2955 45.4628 88.8306 45.4628C88.3658 45.4628 87.9817 45.0638 87.9817 44.5807C87.9817 44.0977 88.3658 43.6987 88.8306 43.6987Z" fill="white"/>
</svg>
