<svg width="160" height="80" viewBox="0 0 160 80" fill="none" xmlns="http://www.w3.org/2000/svg">
<path d="M106.021 38.9218C106.533 39.2858 107.072 39.4258 107.638 39.3138C108.096 39.2298 108.528 39.0338 108.986 38.7258C109.444 38.4177 109.875 38.0537 110.306 37.6337C110.845 37.1297 111.223 36.5696 111.465 35.9816C111.708 35.3936 111.842 34.8616 111.842 34.3575C111.842 33.8815 111.735 33.5175 111.519 33.2375C111.303 32.9575 110.98 32.8455 110.603 32.9015C110.495 32.9295 110.36 32.9855 110.171 33.0695C109.875 33.2095 109.552 33.4335 109.255 33.7135C108.959 33.9935 108.662 34.3015 108.393 34.6656C108.123 35.0296 107.854 35.3936 107.611 35.8136C107.369 36.2056 107.126 36.5977 106.938 36.9897C106.722 37.3817 106.56 37.7457 106.399 38.0817C106.237 38.3897 106.102 38.6698 106.021 38.9218ZM106.372 38.0817C105.671 39.2858 104.916 40.4898 104.081 41.6939C103.245 42.898 102.437 43.99 101.575 44.9701C100.631 46.0621 99.715 46.9862 98.7987 47.7142C97.8824 48.4423 97.0201 48.8623 96.1577 49.0303C96.0499 49.0303 95.969 49.0303 95.8612 49.0303C95.7804 49.0303 95.6726 49.0303 95.5917 49.0303C95.0797 48.9463 94.8102 48.4983 94.7563 47.7422V47.3782C94.7563 47.0702 94.7832 46.6782 94.8371 46.2581C94.891 45.8381 94.9719 45.3621 95.0797 44.8581C95.3492 43.682 95.7804 42.2819 96.4002 40.6579C96.9931 39.0338 97.8016 37.1577 98.8257 34.9736C98.7179 35.0296 98.5831 35.0576 98.4214 35.0856C98.2867 35.1136 98.1519 35.1416 98.0441 35.1416C97.559 35.2256 97.1009 35.2536 96.6697 35.2256C96.2385 35.1976 95.8612 35.1136 95.5109 34.9176C95.2414 35.8136 94.891 36.7377 94.5137 37.6897C94.1095 38.6138 93.6514 39.5378 93.1393 40.4338L90.5252 41.5819C90.9025 40.9099 91.2528 40.2378 91.5762 39.5098C91.8996 38.8098 92.1691 38.0817 92.4117 37.3817C92.6542 36.6817 92.8698 35.9816 93.0315 35.3096C93.2202 34.6375 93.3549 33.9935 93.4358 33.4055C93.4627 33.3215 93.4627 33.2375 93.4627 33.1815C93.4627 33.1255 93.4897 33.0415 93.5166 32.9575C93.4088 32.7895 93.328 32.5654 93.2202 32.3414C93.1393 32.1174 93.0585 31.8654 93.0046 31.6414C92.9507 31.4174 92.8968 31.1654 92.8698 30.9134C92.8429 30.6613 92.8159 30.4653 92.8159 30.2693L92.8429 29.9053C92.9507 29.2333 93.2471 28.6732 93.7053 28.2252C94.1634 27.7772 94.8102 27.4972 95.6187 27.3572C95.8073 27.3292 95.9151 27.3292 96.0229 27.3572C96.2116 27.4132 96.3463 27.5532 96.4541 27.8052C96.5619 28.0572 96.6158 28.3652 96.6158 28.7572C96.6158 29.1773 96.6158 29.5693 96.5889 29.9053C96.5619 30.2413 96.535 30.5773 96.4811 30.9414C96.6428 31.2774 96.8584 31.5574 97.1009 31.8094C97.4243 32.1734 97.8016 32.4814 98.2597 32.6774C98.6909 32.8735 99.176 32.9295 99.742 32.8455C99.9306 32.8175 100.146 32.7615 100.335 32.6774C100.55 32.5934 100.766 32.4814 100.982 32.3694L102.14 32.5094C101.009 34.8336 100.119 36.8777 99.4186 38.6418C98.7448 40.4058 98.2597 41.8899 97.9902 43.122C97.8824 43.57 97.8016 43.99 97.7477 44.354C97.6938 44.7181 97.6668 45.0541 97.6668 45.3341C97.6668 45.7541 97.7207 46.0621 97.8285 46.2581C97.9363 46.4542 98.0711 46.5662 98.2328 46.6502C98.7448 46.1741 99.2569 45.6701 99.742 45.0821C100.227 44.5221 100.685 43.906 101.143 43.262C101.601 42.618 102.033 41.9739 102.464 41.2739C102.895 40.5739 103.326 39.9018 103.757 39.2018L106.372 38.0817ZM85.2431 38.3337C84.8927 38.1097 84.5154 37.9697 84.0573 37.9137C83.5991 37.8577 83.141 37.8577 82.6828 37.9417C82.5751 37.9697 82.4942 37.9697 82.3864 37.9977C82.2786 38.0257 82.1978 38.0537 82.09 38.0817H82.0361C81.7935 38.1657 81.524 38.3337 81.2545 38.5017C80.985 38.6978 80.6886 38.9778 80.3921 39.3138C79.934 39.8458 79.4489 40.4898 78.9908 41.3019C78.5326 42.0859 78.0475 43.066 77.5624 44.186C77.4816 44.382 77.3738 44.6621 77.239 45.0541C77.1043 45.4181 76.9695 45.8101 76.8617 46.2301C76.7539 46.6502 76.6461 47.0982 76.5383 47.5462C76.4575 47.9942 76.4036 48.4143 76.4036 48.8063C76.4036 49.0023 76.4036 49.1983 76.4575 49.3943C76.4844 49.5903 76.5383 49.7583 76.6192 49.9263C76.7 50.0943 76.8078 50.2063 76.9156 50.2904C77.0504 50.3744 77.2121 50.4024 77.4007 50.3744C77.6702 50.3183 77.9667 50.1503 78.317 49.8143C78.6674 49.5063 79.0447 49.0863 79.4219 48.6383C79.7992 48.1622 80.2035 47.6582 80.5808 47.0982C80.985 46.5382 81.3354 45.9781 81.6857 45.4741C82.0361 44.9421 82.3325 44.4661 82.602 44.018C82.8715 43.57 83.0602 43.234 83.1949 43.038C83.2218 42.982 83.2488 42.954 83.2488 42.926C83.2757 42.898 83.3027 42.87 83.3027 42.842C83.5452 42.1699 83.8417 41.4699 84.1381 40.7139C84.5154 39.9298 84.8658 39.1458 85.2431 38.3337ZM114.995 37.2137C115.534 36.2896 116.046 35.3936 116.532 34.5255C117.017 33.6855 117.556 32.8175 118.176 31.9214C118.149 31.8654 118.149 31.8374 118.149 31.7814C118.149 31.7254 118.149 31.6974 118.149 31.6414C118.149 31.3054 118.256 30.9694 118.472 30.6613C118.768 30.1573 119.146 29.7093 119.577 29.3173C120.008 28.9533 120.412 28.6452 120.817 28.4492C121.086 28.3092 121.329 28.2252 121.49 28.1972C121.571 28.1972 121.625 28.1692 121.679 28.1972C121.733 28.1972 121.787 28.2252 121.841 28.2252C121.948 28.2812 122.029 28.3652 122.029 28.5052C122.029 28.7572 121.895 29.0933 121.598 29.5413C121.544 29.6533 121.463 29.7653 121.383 29.8773C121.302 29.9893 121.221 30.1013 121.14 30.2413C121.436 30.5493 121.814 30.8574 122.272 31.1654C122.703 31.4734 123.161 31.7814 123.646 32.0894C124.131 32.3974 124.59 32.7334 125.048 33.0695C125.506 33.4055 125.937 33.7695 126.314 34.1615C126.692 34.5535 126.988 34.9736 127.204 35.4216C127.419 35.8696 127.554 36.3736 127.554 36.9057C127.554 37.1017 127.527 37.2697 127.5 37.4657C127.473 37.6617 127.419 37.8577 127.365 38.0817C127.77 37.5497 128.174 36.9897 128.551 36.4296C128.955 35.8416 129.333 35.1976 129.737 34.5255L132.378 33.3775C131.677 34.5535 130.977 35.6456 130.222 36.6537C129.467 37.6617 128.713 38.5858 127.931 39.4258C127.15 40.2658 126.368 40.9939 125.587 41.6379C124.805 42.2819 124.051 42.842 123.296 43.29L122.757 43.626C122.218 43.962 121.679 44.214 121.14 44.438C120.601 44.6341 120.089 44.8021 119.577 44.8861C119.469 44.9141 119.334 44.9421 119.227 44.9421C119.119 44.9701 119.011 44.9701 118.93 44.9701C118.256 45.0261 117.69 44.9701 117.232 44.8021C116.747 44.6341 116.37 44.382 116.1 44.018C115.993 43.878 115.939 43.738 115.858 43.542C115.804 43.374 115.777 43.178 115.777 42.954C115.777 42.3659 115.993 41.6939 116.451 40.9379L119.119 39.7898C118.984 40.0138 118.876 40.2378 118.822 40.4338C118.768 40.6299 118.741 40.8259 118.741 41.0219C118.741 41.3019 118.822 41.5819 118.957 41.8339C119.2 42.1419 119.523 42.3659 119.927 42.4779C120.331 42.59 120.736 42.618 121.167 42.59L121.383 42.562C121.868 42.4779 122.353 42.2819 122.865 41.9459C123.377 41.6099 123.808 41.1339 124.185 40.4898C124.509 39.9298 124.67 39.3698 124.67 38.8378C124.67 38.5297 124.563 38.2217 124.374 37.8857C124.185 37.5497 123.916 37.2137 123.619 36.8777C123.323 36.5416 122.973 36.2056 122.568 35.8696C122.164 35.5336 121.787 35.2256 121.383 34.9176C120.978 34.6095 120.601 34.3295 120.251 34.0775C119.873 33.8255 119.577 33.6015 119.334 33.3775L119.227 33.2655C119.092 33.5175 118.93 33.7975 118.768 34.0495C118.607 34.3015 118.472 34.5815 118.31 34.8336C118.176 35.0856 118.041 35.3096 117.906 35.5336C117.771 35.7296 117.69 35.9256 117.61 36.0376L114.995 37.2137ZM144.667 31.1934C143.966 32.3694 143.266 33.4615 142.484 34.4695C141.73 35.4776 140.948 36.4016 140.166 37.2417C139.385 38.0817 138.603 38.8098 137.822 39.4818C137.04 40.1258 136.286 40.6859 135.531 41.1339C134.345 41.8619 133.294 42.3099 132.324 42.506L132.162 42.534C131.381 42.674 130.707 42.618 130.114 42.3939C129.845 42.2539 129.602 42.0859 129.414 41.8619C129.225 41.6379 129.063 41.3579 128.928 41.0219C128.821 40.7139 128.74 40.3778 128.686 40.0698C128.659 39.7338 128.632 39.3978 128.632 39.0618C128.632 38.6418 128.659 38.2217 128.74 37.7737C128.794 37.3257 128.901 36.8777 129.036 36.4296C129.306 35.4496 129.71 34.4695 130.222 33.4895C130.734 32.5094 131.3 31.5854 131.947 30.7173C132.486 29.9893 133.052 29.3173 133.618 28.7572C134.184 28.1972 134.75 27.6932 135.315 27.2732C135.881 26.8812 136.42 26.5451 136.932 26.2931C137.471 26.0691 137.957 25.9011 138.442 25.8171C138.738 25.7611 139.035 25.7331 139.277 25.7611C139.52 25.7891 139.762 25.8171 139.951 25.9011C140.328 26.0691 140.598 26.3491 140.732 26.7411C140.786 26.8531 140.813 26.9652 140.84 27.0772C140.867 27.1892 140.867 27.3292 140.867 27.4692C140.867 27.8332 140.786 28.2252 140.652 28.6732C140.49 29.1213 140.274 29.6253 139.978 30.1853L137.31 31.3334C137.552 30.9414 137.714 30.6053 137.822 30.2693C137.93 29.9333 137.984 29.6533 137.984 29.4013C137.984 29.2893 137.984 29.2053 137.957 29.0933C137.957 29.0093 137.93 28.9253 137.876 28.8413C137.822 28.7012 137.741 28.5612 137.633 28.4772C137.525 28.3652 137.418 28.2812 137.283 28.2252C137.175 28.1972 137.04 28.1692 136.906 28.1412C136.771 28.1132 136.636 28.1412 136.501 28.1692L136.393 28.1972C136.151 28.2532 135.828 28.3932 135.477 28.6732C135.127 28.9533 134.75 29.3733 134.345 29.9333C133.806 30.6613 133.321 31.4454 132.89 32.2854C132.459 33.1255 132.135 33.9375 131.893 34.7776C131.65 35.5896 131.543 36.3736 131.543 37.1297C131.543 37.4377 131.569 37.7457 131.596 38.0537C131.623 38.3617 131.704 38.6418 131.812 38.9218C132.028 39.5098 132.351 39.8738 132.782 40.0698C132.998 40.1538 133.213 40.2378 133.429 40.2658C133.645 40.2938 133.887 40.2938 134.157 40.2378L134.318 40.2098C134.561 40.1538 134.803 40.0698 135.073 39.9578C135.315 39.8738 135.585 39.7338 135.854 39.5658C136.744 39.0058 137.714 38.1377 138.792 36.9337C139.87 35.7296 140.921 34.2175 142.026 32.3694L144.667 31.1934ZM107.908 40.7699C107.503 40.9939 107.126 41.1619 106.749 41.3019C106.372 41.4419 106.021 41.5539 105.644 41.6099L105.347 41.6659V42.0299C105.347 42.59 105.428 43.122 105.59 43.598C105.752 44.074 106.075 44.438 106.506 44.7181C106.884 44.9421 107.261 44.9981 107.665 44.9141C107.908 44.8581 108.177 44.7741 108.42 44.6621C108.662 44.5501 108.932 44.382 109.174 44.214C109.417 44.046 109.686 43.85 109.929 43.626C110.171 43.402 110.387 43.206 110.603 43.01C111.303 42.3379 112.031 41.4979 112.759 40.5459C113.486 39.5938 114.241 38.4737 114.969 37.2137L117.583 36.0656C116.72 37.5497 115.831 38.8658 114.915 40.0418C113.998 41.2179 113.109 42.2539 112.193 43.122C110.899 44.382 109.713 45.3621 108.554 46.0621C107.423 46.7622 106.399 47.1822 105.563 47.3222C105.078 47.4062 104.647 47.3782 104.243 47.2662C103.838 47.1542 103.515 46.9302 103.272 46.6502C103.003 46.3421 102.814 45.9781 102.653 45.5301C102.518 45.0821 102.437 44.5781 102.437 43.99C102.437 43.486 102.491 42.926 102.599 42.3379C102.706 41.7499 102.895 41.1339 103.138 40.4618C103.38 39.8178 103.704 39.1178 104.081 38.4177C104.458 37.7177 104.916 36.9897 105.455 36.2336C106.641 34.5535 107.773 33.2655 108.878 32.3974C109.983 31.5294 111.034 30.9694 112.031 30.7734L112.247 30.7453C113.055 30.6053 113.675 30.7173 114.079 31.0814C114.483 31.4454 114.672 31.9774 114.672 32.6214C114.672 32.9855 114.618 33.3495 114.51 33.7695C114.403 34.1895 114.214 34.6095 113.971 35.0296C113.648 35.5896 113.244 36.1776 112.759 36.7377C112.274 37.2977 111.788 37.8297 111.223 38.3337C110.684 38.8378 110.118 39.2858 109.525 39.7338C109.013 40.1258 108.447 40.4898 107.908 40.7699ZM60.8806 47.3222L61.0962 46.9022C61.204 46.4262 61.3387 45.9501 61.5004 45.4741C61.7969 44.466 62.1742 43.43 62.6054 42.3659C63.0366 41.3019 63.4678 40.1258 63.9529 38.8658C64.2763 38.0257 64.6266 37.1297 65.0578 36.1496C65.489 35.1696 65.9202 34.1895 66.4053 33.1815C66.8904 32.1734 67.4024 31.1374 67.9683 30.1293C68.5343 29.0933 69.1002 28.1132 69.6931 27.1612C70.286 26.2091 70.9059 25.3131 71.5527 24.473C72.1994 23.633 72.8193 22.8769 73.4661 22.2329C73.6547 22.0649 73.8434 21.8969 74.059 21.7009C74.2746 21.5329 74.4902 21.3649 74.7058 21.2249C74.9214 21.0849 75.137 20.9448 75.3256 20.8608C75.5412 20.7488 75.7299 20.6928 75.9185 20.6648C76.161 20.6088 76.3766 20.6648 76.5383 20.8048C76.7 20.9448 76.7809 21.1969 76.7809 21.5609C76.7809 21.6449 76.7809 21.7849 76.7539 21.9249C76.7539 22.0649 76.727 22.2049 76.6731 22.3449C76.5653 22.9049 76.3497 23.549 75.9993 24.361C75.6759 25.1451 75.2717 26.0131 74.7866 26.9652C74.3015 27.9172 73.7625 28.9253 73.1696 29.9893C72.5767 31.0534 71.9299 32.1734 71.2832 33.2935C70.6094 34.4135 69.9357 35.5616 69.235 36.7097C68.5343 37.8577 67.8605 39.0058 67.1868 40.0978C66.567 41.1059 65.9741 42.0859 65.4351 43.01C64.8691 43.934 64.384 44.8021 63.9259 45.5861C63.899 45.7821 63.8451 46.0341 63.7642 46.3702C63.7103 46.6782 63.6295 47.0422 63.5756 47.4622C63.5217 47.8542 63.4678 48.2742 63.4139 48.7223C63.36 49.1703 63.36 49.5903 63.36 49.9823C63.36 50.3744 63.3869 50.7384 63.4408 51.1024C63.4947 51.4664 63.5756 51.7464 63.6834 51.9984C63.8181 52.2505 63.9529 52.4465 64.1684 52.5585C64.384 52.6705 64.6266 52.7265 64.923 52.6705C65.3273 52.6145 65.7046 52.4465 66.0819 52.1944C66.4861 51.9424 66.8634 51.6344 67.2138 51.2424C67.3485 51.1024 67.4833 50.9344 67.618 50.7944C67.7527 50.6544 67.8605 50.5144 67.9953 50.3744C68.1031 50.2343 68.2378 50.0663 68.3456 49.8983C68.4534 49.7303 68.5882 49.5343 68.696 49.3383C68.3456 49.2823 67.9953 49.1423 67.645 48.9463C67.3216 48.7503 66.9982 48.4703 66.7287 48.1622C66.4592 47.8542 66.2436 47.4902 66.0819 47.0702C65.9202 46.6502 65.8393 46.2301 65.8393 45.7821C65.8393 45.0541 65.9741 44.382 66.2436 43.71C66.5131 43.066 66.8634 42.506 67.2946 42.0019C67.7258 41.4979 68.2109 41.1059 68.7499 40.7699C69.2889 40.4338 69.8009 40.2378 70.313 40.1258C70.6094 40.0698 70.8789 40.0698 71.0945 40.0978C71.7413 40.2098 72.2533 40.4618 72.6306 40.9099C73.0079 41.3579 73.1966 41.9179 73.2235 42.618V42.842C73.2235 43.598 73.0618 44.41 72.7384 45.2221C72.415 46.0341 72.0378 46.8182 71.6066 47.5462C71.9299 47.4622 72.2803 47.3222 72.6037 47.1262C72.954 46.9302 73.2774 46.7062 73.6008 46.4262C73.9242 46.1461 74.2207 45.8381 74.5171 45.4741C74.8136 45.1381 75.0561 44.7461 75.2986 44.354L77.9128 43.206C77.3199 44.214 76.7 45.0821 76.0802 45.8101C75.4603 46.5382 74.8136 47.1262 74.1937 47.6302C73.5739 48.1062 72.981 48.4703 72.3881 48.7503C71.7952 49.0023 71.2562 49.1983 70.7442 49.2823L70.4208 49.3383C70.1782 49.6743 69.9357 49.9823 69.7201 50.2623C69.5045 50.5424 69.235 50.8224 68.9655 51.1304C67.9683 52.1664 66.9443 53.0345 65.8932 53.7065C64.8422 54.3786 63.8181 54.8266 62.794 54.9946C62.3089 55.0786 61.9316 55.0506 61.6082 54.8826C61.2848 54.7146 61.0423 54.4626 60.8806 54.1545C60.6919 53.8185 60.5841 53.4265 60.5033 52.9785C60.4225 52.5305 60.3955 52.0544 60.3955 51.5784C60.3955 51.2424 60.3955 50.8784 60.4225 50.5424H60.4494V50.5704C60.2608 50.8504 59.7487 51.6344 58.8863 52.6425C57.9431 53.7345 57.0268 54.6586 56.1105 55.3866C55.1942 56.1147 54.3318 56.5347 53.4694 56.7027C53.3616 56.7027 53.2808 56.7027 53.173 56.7027C53.0922 56.7027 52.9844 56.7027 52.9035 56.7027C52.3915 56.6187 52.122 56.1707 52.0681 55.4146V55.0506C52.0681 54.7426 52.095 54.3506 52.1489 53.9305C52.2028 53.5105 52.2837 53.0625 52.3915 52.5305C52.661 51.3544 53.0922 49.9543 53.712 48.3303C54.3049 46.7062 55.1134 44.8301 56.1375 42.646C56.0297 42.702 55.8949 42.73 55.7332 42.758C55.5985 42.786 55.4637 42.814 55.3559 42.814C54.8708 42.898 54.4127 42.926 53.9815 42.898C53.5503 42.87 53.173 42.786 52.8227 42.59C52.5532 43.486 52.2028 44.41 51.8255 45.3621C51.4213 46.2861 50.9631 47.2102 50.4511 48.1062L47.837 49.2543C48.2143 48.5823 48.5646 47.9102 48.888 47.1822C49.2114 46.4822 49.4809 45.7541 49.7234 45.0541C49.966 44.354 50.1816 43.654 50.3433 42.982C50.5319 42.3099 50.6667 41.6659 50.7475 41.0779C50.7745 40.9939 50.7745 40.9099 50.7745 40.8539C50.7745 40.7979 50.8014 40.7139 50.8284 40.6299C50.7206 40.4618 50.6397 40.2378 50.5319 40.0138C50.4511 39.7898 50.3702 39.5378 50.3163 39.3138C50.2624 39.0898 50.2085 38.8378 50.1816 38.5858C50.1546 38.3337 50.1277 38.1377 50.1277 37.9417L50.1546 37.5777C50.2624 36.9057 50.5589 36.3456 51.017 35.8976C51.4752 35.4496 52.122 35.1696 52.9305 35.0296C53.1191 35.0016 53.2269 35.0016 53.3347 35.0296C53.5233 35.0856 53.6581 35.2256 53.7659 35.4776C53.8737 35.7296 53.9276 36.0376 53.9276 36.4296C53.9276 36.8497 53.9276 37.2417 53.9006 37.5777C53.8737 37.9137 53.8467 38.2497 53.7928 38.6137C53.9545 38.9498 54.1701 39.2298 54.4127 39.4818C54.7361 39.8458 55.1134 40.1538 55.5715 40.3498C56.0027 40.5459 56.4878 40.6019 57.0537 40.5178C57.2424 40.4898 57.458 40.4338 57.6466 40.3498C57.8622 40.2658 58.0778 40.1538 58.2934 40.0418L59.4523 40.1818C58.3204 42.506 57.431 44.5501 56.7304 46.3141C56.0566 48.0782 55.5715 49.5623 55.302 50.7944C55.1942 51.2424 55.1134 51.6624 55.0595 52.0264C55.0056 52.3905 54.9786 52.7265 54.9786 53.0065C54.9786 53.4265 55.0325 53.7345 55.1403 53.9305C55.2481 54.1265 55.3829 54.2386 55.5446 54.3226C56.0566 53.8465 56.5687 53.3425 57.0537 52.7545C57.5388 52.1944 57.997 51.5784 58.4551 50.9344C58.9133 50.2903 59.3445 49.6463 59.7757 48.9463C60.2069 48.4143 60.5572 47.8542 60.8806 47.3222ZM42.6626 45.9781C42.3123 45.7541 41.935 45.6141 41.4769 45.5581C41.0187 45.5021 40.5606 45.5021 40.1024 45.5861C39.9946 45.6141 39.9138 45.6141 39.806 45.6421C39.6982 45.6701 39.6173 45.6981 39.5095 45.7261H39.4556C39.2131 45.8101 38.9436 45.9781 38.6741 46.1461C38.4046 46.3421 38.1082 46.5942 37.8117 46.9582C37.3536 47.4902 36.8685 48.1342 36.4103 48.9463C35.9522 49.7303 35.4671 50.7104 34.982 51.8304C34.9011 52.0264 34.7934 52.3065 34.6586 52.6705C34.5239 53.0345 34.3891 53.4265 34.2813 53.8465C34.1735 54.2666 34.0657 54.7146 33.9579 55.1626C33.8771 55.6106 33.8232 56.0306 33.8232 56.4227C33.8232 56.6187 33.8232 56.8147 33.8771 57.0107C33.904 57.2067 33.9579 57.3747 34.0388 57.5427C34.1196 57.7107 34.2274 57.8227 34.3352 57.9067C34.47 57.9907 34.6316 58.0187 34.8203 57.9907C35.0898 57.9347 35.3862 57.7667 35.7366 57.4307C36.0869 57.1227 36.4642 56.7027 36.8415 56.2547C37.2188 55.7786 37.6231 55.2746 38.0004 54.7146C38.4046 54.1545 38.7549 53.5945 39.1053 53.0905C39.4556 52.5585 39.7521 52.0824 40.0216 51.6344C40.2911 51.1864 40.4797 50.8504 40.6145 50.6544C40.6414 50.5984 40.6684 50.5704 40.6684 50.5424C40.6953 50.5144 40.7223 50.4864 40.7223 50.4584C40.9648 49.7863 41.2613 49.0863 41.5577 48.3303C41.935 47.5742 42.2853 46.7902 42.6626 45.9781ZM27.0858 57.4587C25.6574 57.7107 23.9596 58.2708 22.0462 59.1388C20.025 60.0349 18.408 60.9029 17.2491 61.8269C14.2847 64.2071 12.8024 66.1952 12.8024 67.8753C12.8024 68.8833 13.4762 69.2473 14.7967 69.0233C16.8179 68.6593 19.1895 67.1752 21.8845 64.5711C24.4986 62.079 26.2234 59.6988 27.0858 57.4587ZM31.6402 58.4108C31.6402 59.0548 31.5055 59.4188 31.236 59.4748C31.1282 59.5028 31.0743 59.3628 31.0473 59.0548C30.9935 58.4108 30.7509 57.9627 30.3467 57.7387C29.1339 60.3149 26.7354 62.975 23.1511 65.6911C19.5399 68.4353 16.4406 70.0314 13.7996 70.5074C11.5897 70.8994 10.5117 70.3394 10.5117 68.8273C10.5117 67.4552 11.3741 65.8592 13.0719 64.0671C14.3116 62.779 15.713 61.6029 17.33 60.5389C18.5966 59.7268 20.2675 58.8868 22.3426 58.0468C24.4177 57.2067 26.1425 56.6747 27.463 56.4227C27.5978 55.9746 27.6517 55.5826 27.6517 55.1906C27.6517 52.9785 26.0617 51.9704 22.9086 52.1944C21.7767 52.9225 20.537 53.3985 19.2165 53.6505C17.4917 53.9585 16.6293 53.8465 16.6293 53.2865C16.6293 52.8105 17.842 52.2505 20.2405 51.6064C22.1809 51.0744 23.9865 50.3183 25.6844 49.3383C27.7864 48.1342 29.6729 46.6222 31.3707 44.7741C33.4998 42.534 34.5778 40.4338 34.5778 38.5297C34.5778 35.5896 31.9636 34.1895 26.7354 34.3295C16.6023 48.4143 10.4039 59.7828 8.08626 68.5193C7.70897 69.8074 7.54727 70.8434 7.54727 71.6274C7.54727 72.6355 7.84371 73.0835 8.40966 72.9715C8.5983 72.9435 8.89475 72.8315 9.27205 72.6915C9.64934 72.5235 9.94579 72.4395 10.1344 72.4115C10.377 72.3835 10.4848 72.3835 10.4848 72.4395C10.4848 72.6355 9.94579 72.9995 8.8678 73.4475C7.78982 73.9236 7.03523 74.2036 6.63098 74.2596C5.1757 74.5116 4.42111 73.8676 4.42111 72.3275C4.42111 69.4993 6.76573 63.787 11.428 55.2466C14.8237 49.0023 18.2463 43.262 21.6958 38.0817C21.6689 37.7737 22.3157 36.6256 23.6362 34.6095C23.0972 34.6655 22.5582 34.7496 22.0462 34.8336C13.9613 36.2896 7.95151 39.6498 4.07077 44.9141C2.42684 47.1542 1.61835 49.0303 1.61835 50.5984C1.61835 51.2424 1.83395 51.7744 2.26514 52.1384C2.69633 52.5025 2.91193 52.7265 2.91193 52.7545C2.91193 52.8105 2.85803 52.8665 2.72328 52.8945C1.88785 53.0345 1.2141 52.7265 0.675112 51.9704C0.243917 51.3264 0.0283203 50.5424 0.0283203 49.5903C0.0283203 47.9942 0.594263 46.3701 1.72615 44.7181C3.80127 41.6939 7.30472 39.0898 12.2635 36.9057C16.1173 35.1976 20.2136 34.0215 24.4986 33.2935C24.6064 33.1255 24.6872 32.9575 24.795 32.7615C25.4149 32.0894 26.3042 31.6694 27.4361 31.4454C28.1098 31.3334 28.4332 31.4174 28.4332 31.7254C28.4332 31.8374 28.1907 32.2014 27.7325 32.8455C34.3352 32.2574 37.6231 33.6575 37.6231 37.0457C37.6231 39.5938 35.9522 42.506 32.6374 45.7821C29.5382 48.8343 26.6815 50.6824 24.0943 51.3544C25.873 51.1304 27.3553 51.3264 28.5949 51.8864C30.185 52.6145 30.9935 53.6785 30.9935 55.1346C30.9935 55.5826 30.9126 56.0587 30.7509 56.5907C31.3438 57.0107 31.6402 57.5987 31.6402 58.4108ZM39.24 55.3586C38.4046 56.3947 37.5961 57.2627 36.8685 57.9347C36.1139 58.6348 35.4132 59.1668 34.7934 59.5588C34.0657 60.0069 33.4189 60.2589 32.9069 60.3709C32.6104 60.4269 32.3409 60.4269 32.0714 60.3709C31.5863 60.2589 31.2629 59.8948 31.0743 59.2788C31.0204 59.1388 30.9935 58.9708 30.9665 58.8028C30.9396 58.6348 30.9396 58.4668 30.9396 58.2708C30.9396 57.0387 31.3707 55.3866 32.2062 53.3145C32.7452 51.9984 33.3111 50.8504 33.904 49.8703C34.4969 48.8903 35.1167 48.0502 35.7366 47.3502C36.6259 46.3421 37.5153 45.5021 38.4046 44.9141C39.2939 44.298 40.1294 43.85 40.9648 43.57C41.1535 43.514 41.3152 43.458 41.5038 43.402C41.6655 43.346 41.8542 43.29 42.0698 43.262C42.4201 43.206 42.7435 43.178 43.0938 43.15C43.4442 43.15 43.7676 43.178 44.091 43.206C44.4144 43.262 44.7108 43.346 44.9803 43.486C45.2498 43.626 45.4924 43.794 45.681 43.99C44.4683 46.5942 43.552 48.7783 42.9321 50.5984C42.3123 52.4185 41.9619 53.8465 41.8811 54.8826C41.8811 54.9386 41.8811 54.9946 41.8811 55.0506C41.8811 55.1066 41.8811 55.1906 41.8811 55.2746C41.8811 55.4146 41.8811 55.5826 41.9081 55.7506C41.935 55.9186 41.962 56.0586 41.9889 56.2267C42.0159 56.3667 42.0697 56.4787 42.1506 56.5627C42.2314 56.6467 42.3123 56.6747 42.4201 56.6467C42.5009 56.6187 42.6626 56.5067 42.9052 56.2547C43.1477 56.0026 43.4172 55.6946 43.7137 55.3306C44.4144 54.5186 45.1151 53.5665 45.8696 52.4745C46.5973 51.3824 47.298 50.3183 47.9448 49.1983L50.5589 48.0502C49.8312 49.2823 49.0767 50.4864 48.2682 51.6904C47.4597 52.8665 46.6242 53.9585 45.8158 54.9106C44.8725 56.0026 43.9562 56.9267 43.013 57.6547C42.0967 58.3548 41.2074 58.8028 40.3719 58.9428C40.1024 58.9988 39.8599 58.9708 39.6982 58.9148C39.5095 58.8588 39.3748 58.7468 39.267 58.5788C39.1592 58.4388 39.0783 58.2708 39.0244 58.0468C38.9705 57.8507 38.9436 57.6267 38.9436 57.4027C38.9436 57.0387 38.9705 56.7027 38.9975 56.3667C39.1053 56.0586 39.1592 55.7226 39.24 55.3586ZM149.329 25.8171C148.952 25.8731 148.575 26.0411 148.17 26.2931C147.766 26.5451 147.389 26.8812 147.066 27.2452C146.5 27.8612 146.014 28.5892 145.556 29.4013C145.098 30.2133 144.748 31.0534 144.451 31.9494C144.236 32.6494 144.101 33.3215 144.047 33.9375C144.047 34.0495 144.02 34.1335 144.02 34.2455C144.02 34.3575 144.02 34.4415 144.02 34.5535C144.02 35.4216 144.182 36.1776 144.505 36.7657C144.694 37.1017 144.963 37.3817 145.26 37.5777C145.556 37.7737 145.907 37.8857 146.284 37.9137C146.527 37.9137 146.742 37.9137 146.958 37.8857C147.362 37.8017 147.739 37.6617 148.144 37.4097C148.521 37.1577 148.898 36.8217 149.248 36.4576C149.814 35.8416 150.299 35.1136 150.758 34.3295C151.216 33.5175 151.593 32.6774 151.863 31.7534C152.051 31.0534 152.186 30.3813 152.24 29.7653C152.267 29.6533 152.267 29.5413 152.267 29.4293C152.267 29.3173 152.267 29.2053 152.267 29.1213C152.267 28.2252 152.105 27.4972 151.755 26.9092C151.566 26.5731 151.297 26.2931 151 26.0971C150.704 25.9011 150.353 25.7891 149.976 25.7611C149.734 25.7611 149.518 25.7891 149.329 25.8171ZM159.462 28.5332C158.627 29.9613 157.765 31.2494 156.848 32.3974C155.932 33.5175 154.989 34.4975 154.045 35.3376C153.102 36.1776 152.159 36.8497 151.243 37.3817C150.326 37.9137 149.437 38.3337 148.602 38.5858C147.982 39.0058 147.362 39.3698 146.769 39.6498C146.149 39.9298 145.556 40.1258 144.963 40.2378C144.775 40.2658 144.559 40.2938 144.398 40.3218C144.236 40.3498 144.047 40.3498 143.885 40.3218C143.4 40.2938 142.969 40.1538 142.592 39.9298C142.215 39.7058 141.918 39.3978 141.703 38.9778C141.514 38.6698 141.379 38.2777 141.271 37.8577C141.164 37.4377 141.11 36.9617 141.11 36.4296C141.11 36.3176 141.11 36.2336 141.11 36.1216C141.11 36.0096 141.11 35.8976 141.137 35.8136C141.164 35.4776 141.217 35.1136 141.298 34.7496C141.379 34.3855 141.487 33.9935 141.595 33.6015C141.918 32.5094 142.403 31.4454 143.023 30.4093C143.643 29.3733 144.317 28.4212 145.098 27.5532C146.068 26.4611 147.092 25.5651 148.17 24.837C149.248 24.137 150.299 23.661 151.351 23.493C151.566 23.465 151.755 23.437 151.943 23.409C152.105 23.381 152.294 23.409 152.455 23.437C152.941 23.465 153.372 23.605 153.749 23.829C154.126 24.053 154.423 24.361 154.638 24.781C154.827 25.0891 154.962 25.4811 155.07 25.9011C155.177 26.3211 155.231 26.7971 155.231 27.3012C155.231 27.4132 155.231 27.4972 155.231 27.6092C155.231 27.7212 155.231 27.8052 155.204 27.9172C155.15 28.6172 155.016 29.3453 154.773 30.1293C154.423 31.2214 153.965 32.2854 153.345 33.3215C152.752 34.3575 152.051 35.3096 151.297 36.1496C152.294 35.4216 153.264 34.4975 154.234 33.4335C155.204 32.3414 156.094 31.1094 156.902 29.6813L159.462 28.5332ZM81.8474 47.7142C81.012 48.7503 80.2035 49.6183 79.4758 50.2904C78.7213 50.9904 78.0206 51.5224 77.4007 51.9144C76.6731 52.3625 76.0263 52.6145 75.5143 52.7265C75.2178 52.7825 74.9483 52.7825 74.6788 52.7265C74.1937 52.6145 73.8703 52.2504 73.6817 51.6344C73.6278 51.4944 73.6008 51.3264 73.5739 51.1584C73.5469 50.9904 73.5469 50.8224 73.5469 50.6264C73.5469 49.3943 73.9781 47.7422 74.8136 45.6701C75.3526 44.354 75.9185 43.206 76.5114 42.2259C77.1043 41.2459 77.7241 40.4058 78.344 39.7058C79.2333 38.6978 80.1226 37.8577 81.012 37.2697C81.9013 36.6537 82.7367 36.2056 83.5722 35.9256C83.7608 35.8696 83.9225 35.8136 84.1112 35.7576C84.2729 35.7016 84.4615 35.6456 84.6771 35.6176C85.0275 35.5616 85.3509 35.5336 85.7012 35.5056C86.0516 35.5056 86.375 35.5336 86.6983 35.5616C87.0217 35.6176 87.3182 35.7016 87.5877 35.8416C87.8572 35.9816 88.0997 36.1496 88.2884 36.3456C87.0756 38.9498 86.1593 41.1339 85.5395 42.954C84.9197 44.7741 84.5693 46.2021 84.4885 47.2382C84.4885 47.2942 84.4885 47.3502 84.4885 47.4062C84.4885 47.4622 84.4885 47.5462 84.4885 47.6302C84.4885 47.7702 84.4885 47.9382 84.5154 48.1062C84.5424 48.2742 84.5693 48.4143 84.5963 48.5823C84.6232 48.7223 84.6771 48.8343 84.758 48.9183C84.8388 49.0023 84.9197 49.0303 85.0275 49.0023C85.1083 48.9743 85.27 48.8623 85.5126 48.6103C85.7551 48.3583 86.0246 48.0502 86.321 47.6862C87.0217 46.8742 87.7224 45.9221 88.477 44.8301C89.2047 43.738 89.9053 42.674 90.5521 41.5539L93.1663 40.4058C92.4386 41.6379 91.684 42.842 90.8755 44.046C90.0671 45.2221 89.2316 46.3141 88.4231 47.2662C87.4799 48.3583 86.5367 49.2823 85.6204 50.0103C84.7041 50.7104 83.8147 51.1584 82.9793 51.2984C82.7098 51.3544 82.4673 51.3264 82.3055 51.2704C82.1169 51.2144 81.9822 51.1024 81.8744 50.9344C81.7666 50.7944 81.6857 50.6264 81.6318 50.4024C81.5779 50.2063 81.551 49.9823 81.551 49.7583C81.551 49.3943 81.5779 49.0583 81.6049 48.7223C81.6857 48.4143 81.7396 48.0782 81.8474 47.7142Z" fill="white"/>
<path d="M36.9207 65.0751L37.5136 65.0191L37.2171 65.0471L106.397 51.9704L105.723 47.9382L129.035 47.7142L128.307 62.415H128.199L128.064 49.0583L37.3249 65.3271L37.3788 79.2438L107.421 66.6432L58.3187 76.5277L59.6123 79.8318L36.8398 79.9999L36.9207 65.0751Z" fill="white"/>
<path d="M118.523 54.0426V53.3986L120.544 53.0345V53.6506L120.032 53.7346V61.0429L120.733 60.9029C121.029 60.8469 121.218 60.7349 121.352 60.5669C121.406 60.4549 121.46 60.3709 121.514 60.2309C121.541 60.1189 121.568 59.9789 121.568 59.8109L121.622 58.4108L122.269 58.2988V61.239L118.523 61.911V61.267L119.062 61.183V53.9306L118.523 54.0426ZM114.723 54.7146V59.7549C114.723 60.0909 114.723 60.3989 114.723 60.6229C114.723 60.8469 114.75 61.071 114.75 61.267C114.75 61.407 114.777 61.547 114.804 61.659C114.858 61.771 114.912 61.855 114.992 61.939C115.127 62.079 115.37 62.107 115.693 62.051C115.963 61.995 116.151 61.911 116.286 61.799C116.421 61.687 116.502 61.519 116.555 61.323C116.582 61.127 116.609 60.8469 116.609 60.5389V59.4189V54.3226L116.07 54.4066V53.7626L118.119 53.3986V54.0426L117.58 54.1266V59.2229C117.58 59.5869 117.58 59.9229 117.553 60.2029C117.526 60.4829 117.499 60.7349 117.418 60.9589C117.337 61.407 117.148 61.771 116.852 62.051C116.555 62.331 116.178 62.499 115.693 62.583C114.992 62.695 114.507 62.555 114.211 62.135C113.914 61.715 113.78 60.9589 113.78 59.9229V54.8826L113.214 54.9946V54.3506L115.262 53.9866V54.6306L114.723 54.7146ZM109.899 59.2229C109.899 59.6149 109.899 59.9789 109.899 60.2589C109.899 60.5669 109.926 60.8469 109.926 61.127C109.926 61.323 109.953 61.547 109.98 61.743C110.034 61.939 110.088 62.163 110.168 62.415C110.303 62.807 110.546 62.975 110.842 62.919C111.273 62.835 111.543 62.415 111.624 61.659C111.731 60.9029 111.785 59.9789 111.785 58.8588C111.785 57.6828 111.731 56.7587 111.651 56.0867C111.543 55.4147 111.3 55.1067 110.842 55.1907C110.546 55.2467 110.303 55.4987 110.168 55.9467C110.088 56.1987 110.034 56.4227 109.98 56.6187C109.926 56.8427 109.926 57.0668 109.926 57.2908C109.926 57.6548 109.926 57.9908 109.926 58.2988C109.926 58.6348 109.899 58.9148 109.899 59.2229ZM108.821 59.3909C108.821 57.6548 109.037 56.4227 109.468 55.7227C109.899 55.0226 110.357 54.6306 110.815 54.5466C111.273 54.4626 111.731 54.6866 112.19 55.2187C112.621 55.7507 112.863 56.8987 112.863 58.6348C112.863 60.3989 112.648 61.631 112.217 62.303C111.785 62.975 111.327 63.3671 110.842 63.4511C110.384 63.5351 109.926 63.3111 109.495 62.779C109.037 62.303 108.821 61.155 108.821 59.3909ZM107.312 61.855C107.312 61.519 107.285 61.267 107.204 61.0429C107.123 60.8189 107.042 60.6509 106.961 60.5109C106.934 60.4549 106.854 60.3709 106.719 60.2309C106.584 60.0909 106.53 60.0349 106.53 60.0349L106.018 59.5309C105.668 59.1389 105.398 58.8028 105.21 58.4948C105.048 58.1868 104.967 57.8508 104.967 57.4308C104.967 56.8427 105.102 56.3387 105.398 55.9747C105.695 55.5827 106.045 55.3587 106.503 55.2747C106.908 55.1907 107.231 55.3027 107.527 55.6107L107.608 55.2747L108.093 55.1907V57.7108L107.5 57.8228C107.5 56.4787 107.231 55.8347 106.665 55.9467C106.395 56.0027 106.207 56.1427 106.126 56.3947C106.045 56.6467 105.991 56.9547 105.991 57.3188C105.991 57.5988 106.045 57.8228 106.153 57.9628C106.261 58.1308 106.422 58.3268 106.692 58.5788L107.204 59.0828C107.635 59.5589 107.932 59.9789 108.147 60.3709C108.363 60.7349 108.471 61.155 108.471 61.631C108.471 62.331 108.309 62.919 108.012 63.3951C107.716 63.8711 107.231 64.1511 106.611 64.2631C106.072 64.3471 105.641 64.2351 105.371 63.8711C105.075 63.5071 104.94 63.059 104.94 62.527C104.94 62.359 104.94 62.247 104.967 62.163C104.967 62.079 104.994 61.967 105.048 61.827C105.102 61.687 105.156 61.575 105.237 61.491C105.317 61.407 105.398 61.351 105.506 61.323C105.641 61.295 105.749 61.351 105.883 61.491C105.991 61.631 106.045 61.827 106.045 62.107C106.045 62.247 106.045 62.359 106.018 62.499C105.991 62.611 105.964 62.723 105.91 62.863L105.883 62.919L105.856 63.003L105.83 63.1431C105.83 63.2831 105.91 63.3951 106.072 63.5351C106.207 63.6471 106.369 63.6751 106.557 63.6471C106.638 63.6191 106.746 63.5911 106.854 63.5071C106.961 63.4511 107.096 63.2831 107.231 63.003C107.258 62.779 107.312 62.387 107.312 61.855ZM99.173 63.3111C99.173 62.975 99.146 62.723 99.0652 62.499C98.9843 62.275 98.9035 62.107 98.8226 61.967C98.7957 61.911 98.7148 61.827 98.5801 61.687C98.4453 61.547 98.3914 61.491 98.3914 61.491L97.8794 60.9869C97.529 60.5949 97.2596 60.2589 97.0709 59.9509C96.9092 59.6429 96.8284 59.3069 96.8284 58.8868C96.8284 58.2988 96.9631 57.7948 97.2595 57.4308C97.556 57.0387 97.9063 56.8147 98.3645 56.7307C98.7687 56.6467 99.0921 56.7587 99.3886 57.0668L99.4694 56.7307L99.9545 56.6467V59.1669L99.3616 59.2789C99.3616 57.9348 99.0921 57.2908 98.5262 57.4028C98.2567 57.4588 98.068 57.5988 97.9872 57.8508C97.9063 58.1028 97.8524 58.4108 97.8524 58.7748C97.8524 59.0548 97.9063 59.2789 98.0141 59.4189C98.1219 59.5869 98.2836 59.7829 98.5531 60.0349L99.0652 60.5389C99.4964 61.0149 99.7928 61.435 100.008 61.827C100.224 62.191 100.332 62.611 100.332 63.0871C100.332 63.7871 100.17 64.3751 99.8737 64.8511C99.5772 65.3272 99.0921 65.6072 98.4723 65.7192C97.9333 65.8032 97.5021 65.6912 97.2326 65.3272C96.9361 64.9631 96.8014 64.5151 96.8014 63.9831C96.8014 63.8151 96.8014 63.7031 96.8284 63.6191C96.8284 63.5351 96.8553 63.4231 96.9092 63.2831C96.9631 63.1431 97.017 63.031 97.0978 62.947C97.1787 62.863 97.2595 62.807 97.3673 62.779C97.5021 62.751 97.6099 62.807 97.7446 62.947C97.8524 63.0871 97.9063 63.2831 97.9063 63.5631C97.9063 63.7031 97.9063 63.8151 97.8794 63.9551C97.8524 64.0671 97.8255 64.1791 97.7716 64.3191L97.7446 64.3751L97.7177 64.4591L97.6907 64.5991C97.6907 64.7391 97.7716 64.8511 97.9333 64.9911C98.068 65.1032 98.2297 65.1312 98.4184 65.1032C98.4992 65.0751 98.607 65.0471 98.7148 64.9631C98.8226 64.9071 98.9574 64.7391 99.0921 64.4591C99.1191 64.2351 99.173 63.8431 99.173 63.3111ZM94.8341 59.8949C94.8341 59.3629 94.7532 58.9428 94.5915 58.6348C94.4837 58.4108 94.2681 58.3268 93.9447 58.3828C93.8639 58.4108 93.7831 58.4108 93.7022 58.4388C93.6214 58.4948 93.5675 58.5228 93.5405 58.5508V61.743C93.6214 61.743 93.7022 61.743 93.837 61.715C94.4837 61.575 94.8341 60.9589 94.8341 59.8949ZM92.5434 65.9712V58.7188L92.0313 58.8028V58.1588L94.0795 57.7948C94.4837 57.7108 94.888 57.7948 95.2653 57.9908C95.6695 58.1868 95.8582 58.7748 95.8582 59.6989C95.8582 60.4829 95.6426 61.0709 95.2653 61.463L94.861 61.771C94.7802 61.827 94.6993 61.883 94.6185 61.911C94.9419 61.967 95.1844 62.135 95.3731 62.387C95.5617 62.639 95.6426 63.003 95.6426 63.4231L95.7234 64.5711C95.7234 64.7391 95.7234 64.8511 95.7504 64.9631C95.7773 65.0751 95.8043 65.1592 95.8582 65.2432C95.9121 65.3272 96.0468 65.3552 96.2624 65.2992V65.9432C96.0738 66.0832 95.8851 66.1672 95.6965 66.2232C95.6156 66.2232 95.5887 66.2512 95.5348 66.2512C95.0766 66.2232 94.8071 65.8312 94.7263 65.0191L94.5915 63.5351C94.5915 63.3391 94.5646 63.1431 94.5107 62.975C94.4568 62.807 94.3759 62.667 94.2951 62.555C94.1603 62.387 93.9447 62.331 93.6753 62.387C93.5944 62.387 93.5405 62.415 93.5136 62.415V65.8312L94.0525 65.7472V66.3912L92.0313 66.7552V66.1112L92.5434 65.9712ZM91.4923 60.9869L90.8994 61.099C90.8994 60.7349 90.8725 60.3709 90.8455 60.0349C90.8186 59.6989 90.7647 59.4469 90.6569 59.3069C90.5221 59.1389 90.3335 59.0828 90.064 59.1389L89.3903 59.2509V62.275L89.8754 62.191V61.295L90.5221 61.183V63.7031L89.8754 63.8151V62.891L89.3903 62.975V66.5592L90.091 66.4472C90.3874 66.3912 90.576 66.2792 90.7108 66.1112C90.7647 65.9992 90.8186 65.9152 90.8455 65.7752C90.8725 65.6632 90.8994 65.5232 90.8994 65.3552L90.9803 63.9551L91.6271 63.8431V66.7832L87.8811 67.4553V66.8112L88.4201 66.7272V59.4749L87.8811 59.5589V58.9148L91.4923 58.2708V60.9869ZM86.5606 67.7633V67.3993C86.2911 67.7633 85.9677 67.9593 85.5904 68.0433C85.0244 68.1553 84.5393 67.9033 84.1351 67.3433C83.9464 67.0352 83.7847 66.6152 83.6769 66.0272C83.5691 65.4392 83.5152 64.7391 83.5152 63.8991C83.5152 63.1991 83.5422 62.639 83.5691 62.191C83.623 61.743 83.7039 61.351 83.8117 60.9869C84.0542 60.2869 84.3237 59.8109 84.6202 59.5589C84.7549 59.4469 84.9166 59.3349 85.0514 59.2789C85.2131 59.2229 85.3478 59.1669 85.5095 59.1389C85.8599 59.0828 86.1563 59.2229 86.4528 59.5589L86.5875 59.2229L87.0456 59.1389V61.827L86.4528 61.939C86.4528 61.659 86.4258 61.407 86.3989 61.127C86.345 60.8749 86.2911 60.6229 86.2102 60.3709C86.0755 59.9509 85.8329 59.7549 85.5095 59.8109C85.1861 59.8669 84.9705 60.1189 84.8358 60.5669C84.701 61.0149 84.6202 61.659 84.6202 62.443V63.6751C84.6202 66.1392 84.9436 67.3153 85.6443 67.2033C85.8329 67.1753 86.0216 67.0072 86.2102 66.6712C86.3989 66.3632 86.5336 65.9152 86.5875 65.3832V64.0671C86.3719 64.0951 86.2372 64.2071 86.1563 64.3751C86.0755 64.5431 86.0485 64.9351 86.0485 65.5792L85.5365 65.6632V63.6471L87.396 63.3111L87.4229 67.5953L86.5606 67.7633ZM81.6288 62.247C81.6288 61.715 81.5479 61.295 81.3862 60.9869C81.2784 60.7629 81.0628 60.6789 80.7394 60.7349C80.6586 60.7629 80.5777 60.7629 80.4969 60.7909C80.416 60.8469 80.3621 60.8749 80.3352 60.9029V64.0951C80.416 64.0951 80.4969 64.0951 80.6316 64.0671C81.2784 63.9271 81.6288 63.3391 81.6288 62.247ZM79.365 68.3513V61.099L78.853 61.183V60.5389L80.9011 60.1749C81.3054 60.0909 81.7096 60.1749 82.0869 60.3709C82.4912 60.5669 82.6798 61.155 82.6798 62.079C82.6798 62.863 82.4642 63.4511 82.0869 63.8431L81.6827 64.1511C81.6018 64.2071 81.521 64.2631 81.4401 64.2911C81.7635 64.3471 82.0061 64.5151 82.1947 64.7671C82.3834 65.0191 82.4642 65.3832 82.4642 65.8032L82.5451 66.9512C82.5451 67.1193 82.5451 67.2313 82.572 67.3433C82.599 67.4553 82.6259 67.5393 82.6798 67.6233C82.7337 67.7073 82.8685 67.7353 83.084 67.6793V68.3233C82.8954 68.4633 82.7068 68.5473 82.5181 68.6033C82.4373 68.6033 82.4103 68.6313 82.3564 68.6313C81.8983 68.6033 81.6288 68.2113 81.5479 67.3993L81.4132 65.9152C81.4132 65.7192 81.3862 65.5232 81.3323 65.3552C81.2784 65.1872 81.1976 65.0471 81.1167 64.9351C80.982 64.7671 80.7664 64.7111 80.4969 64.7671C80.416 64.7671 80.3621 64.7951 80.3352 64.7951V68.2113L80.8742 68.1273V68.7713L78.853 69.1354V68.4913L79.365 68.3513ZM75.08 61.855V66.8952C75.08 67.2313 75.08 67.5393 75.08 67.7633C75.08 67.9873 75.107 68.2113 75.107 68.4073C75.107 68.5473 75.1339 68.6873 75.1609 68.7993C75.2148 68.9113 75.2687 68.9953 75.3495 69.0793C75.4843 69.2194 75.7268 69.2474 76.0502 69.1914C76.3197 69.1354 76.5083 69.0513 76.6431 68.9393C76.7778 68.8273 76.8587 68.6593 76.9126 68.4633C76.9395 68.2673 76.9665 67.9873 76.9665 67.6793V66.5592V61.463L76.4275 61.547V60.9029L78.4757 60.5389V61.183L77.9367 61.267V66.3632C77.9367 66.7272 77.9367 67.0632 77.9097 67.3433C77.8828 67.6233 77.8558 67.8753 77.775 68.0993C77.6941 68.5473 77.5055 68.9113 77.209 69.1914C76.9126 69.4714 76.5353 69.6394 76.0502 69.7234C75.3495 69.8354 74.8644 69.6954 74.568 69.2754C74.2715 68.8553 74.1368 68.0993 74.1368 67.0632V62.023L73.5708 62.135V61.491L75.619 61.127V61.771L75.08 61.855ZM70.795 69.8634C70.8759 69.8634 70.9298 69.8634 71.0106 69.8354C71.0645 69.8354 71.1184 69.8354 71.1454 69.8074C71.4688 69.7514 71.7113 69.6114 71.8461 69.3874C72.0347 69.0794 72.1425 68.5473 72.1425 67.8473C72.1425 67.6793 72.1156 67.4273 72.0886 67.1193C72.0617 66.8112 72.0078 66.5872 71.9269 66.4472C71.8461 66.3072 71.7113 66.2232 71.4688 66.1672C71.361 66.1392 71.2262 66.1392 71.0645 66.1672C71.0106 66.1672 70.9837 66.1952 70.9298 66.1952C70.8489 66.1952 70.822 66.2232 70.7681 66.2232L70.795 69.8634ZM70.795 65.5512C70.8489 65.5512 70.9028 65.5512 70.9837 65.5512C71.0645 65.5512 71.1184 65.5512 71.1723 65.5232C71.4688 65.4672 71.6844 65.2992 71.8191 64.9911C71.9539 64.6831 72.0078 64.1791 72.0078 63.4511C72.0078 63.031 71.9 62.723 71.6574 62.555C71.5227 62.415 71.334 62.387 71.0915 62.415C71.0376 62.415 70.9298 62.471 70.7681 62.527L70.795 65.5512ZM69.7979 70.0594V62.807L69.2589 62.891V62.247L71.3879 61.855C71.5496 61.827 71.7383 61.827 71.9539 61.855C72.1695 61.883 72.412 62.051 72.6546 62.303C72.8971 62.583 73.0049 63.003 73.0049 63.5911C73.0049 63.9831 72.9241 64.3471 72.7893 64.6831C72.6546 65.0191 72.3581 65.3272 71.9269 65.6632C72.2234 65.6912 72.5198 65.8592 72.7893 66.1672C73.0319 66.4472 73.1666 66.9792 73.1666 67.8193C73.1666 68.2673 73.1127 68.6593 73.0049 68.9953C72.8971 69.3314 72.7624 69.5834 72.5737 69.7794C72.2234 70.1434 71.873 70.3394 71.5227 70.3954L69.205 70.8154V70.1714L69.7979 70.0594ZM62.1442 65.1872L61.4705 69.3314L62.8718 69.0793L62.1442 65.1872ZM62.9796 69.7794L61.3357 70.0874L61.0662 71.6835L61.6052 71.5995V72.2155L59.9074 72.5235V71.9075L60.3386 71.8235L61.8208 63.4791L62.7371 63.3111L64.2732 71.1235L64.7853 71.0394V71.6555L62.7371 72.0195V71.4035L63.2761 71.3195L62.9796 69.7794ZM56.5926 65.1592C56.4309 65.1872 56.2961 65.2992 56.2153 65.4952C56.1344 65.6912 56.0805 65.8872 56.0536 66.0832L55.9727 67.1753V67.3153V67.4273L55.4068 67.5393V65.8032V64.7391L59.5301 64.0111V64.6551L59.0989 64.7391L56.5387 72.4955L58.2904 72.2155C58.4521 72.1875 58.5869 72.0475 58.7216 71.8235C58.7755 71.7115 58.8294 71.6275 58.8564 71.5155C58.8833 71.4315 58.9103 71.3195 58.9372 71.1795L59.0181 70.0874V70.0034V69.8634L59.584 69.7514V72.5795C59.3415 72.6355 59.045 72.6915 58.7216 72.7475C58.3982 72.8035 58.1287 72.8595 57.9131 72.8875L55.1373 73.3356V72.7195L55.5146 72.6635L58.0479 64.9071L56.5926 65.1592ZM51.7956 66.0272C51.6339 66.0552 51.4991 66.1672 51.4183 66.3632C51.3374 66.5592 51.2835 66.7552 51.2566 66.9512L51.1757 68.0433V68.1833V68.2953L50.6098 68.4073V66.6712V65.6072L54.7331 64.8791V65.5232L54.3019 65.6072L51.7417 73.3636L53.4934 73.0836C53.6551 73.0555 53.7898 72.9155 53.9246 72.6915C53.9785 72.5795 54.0324 72.4955 54.0593 72.4115C54.0863 72.3275 54.1132 72.2155 54.1402 72.0755L54.221 70.9834V70.8714V70.7314L54.787 70.6194V73.4476C54.5444 73.5036 54.248 73.5596 53.9246 73.6156C53.6012 73.6716 53.3317 73.7276 53.1161 73.7556L50.3403 74.2036V73.5876L50.7176 73.5316L53.2508 65.7752L51.7956 66.0272ZM48.4808 73.8956V66.6432L47.9418 66.7272V66.0832L49.963 65.7192V66.3632L49.4509 66.4472V73.6996L49.963 73.6156V74.2596L47.9418 74.6236V73.9796L48.4808 73.8956ZM45.0851 70.8434C45.2468 70.8434 45.4085 70.8434 45.5163 70.8154C45.8397 70.7594 46.0553 70.5914 46.19 70.2834C46.3517 69.8634 46.4595 69.3594 46.4595 68.7713C46.4595 68.0993 46.3787 67.6233 46.217 67.3153C46.0822 67.0912 45.8397 67.0072 45.4894 67.0632C45.3816 67.0913 45.2468 67.1193 45.1121 67.1753L45.0851 70.8434ZM45.0851 71.5435V74.5396L45.5971 74.4556V75.0997L43.5759 75.4637V74.8196L44.1149 74.7356V67.4833L43.5759 67.5673V66.9232L45.2199 66.6152C45.651 66.5312 46.0283 66.5032 46.2978 66.5312C46.5943 66.5592 46.8638 66.7272 47.1063 67.0352C47.3489 67.3433 47.4836 67.9033 47.4836 68.6593C47.4836 70.2834 46.8638 71.2355 45.651 71.4315L45.0851 71.5435Z" fill="white"/>
<path d="M40.9628 70.8154C41.4749 70.8154 41.8792 71.2355 41.8792 71.7675C41.8792 72.2995 41.4749 72.7195 40.9628 72.7195C40.4508 72.7195 40.0465 72.2995 40.0465 71.7675C40.0195 71.2355 40.4508 70.8154 40.9628 70.8154Z" fill="white"/>
<path d="M66.5933 66.1115C67.1053 66.1115 67.5095 66.5315 67.5095 67.0635C67.5095 67.5955 67.1053 68.0155 66.5933 68.0155C66.0812 68.0155 65.677 67.5955 65.677 67.0635C65.65 66.5315 66.0812 66.1115 66.5933 66.1115Z" fill="white"/>
<path d="M102.437 59.7548C102.95 59.7548 103.354 60.1748 103.354 60.7069C103.354 61.2389 102.95 61.6589 102.437 61.6589C101.925 61.6589 101.521 61.2389 101.521 60.7069C101.494 60.1748 101.925 59.7548 102.437 59.7548Z" fill="white"/>
<path d="M124.21 55.4147C124.722 55.4147 125.126 55.8347 125.126 56.3667C125.126 56.8987 124.722 57.3187 124.21 57.3187C123.698 57.3187 123.294 56.8987 123.294 56.3667C123.267 55.8347 123.698 55.4147 124.21 55.4147Z" fill="white"/>
<path d="M113.323 13.7767L112.595 13.3567C112.838 12.8806 113.053 12.4326 113.269 11.9846C113.458 11.5366 113.565 11.1726 113.538 10.8925C113.511 10.5565 113.323 10.3045 112.999 10.1085L112.164 9.63248L110.143 13.4407L110.736 13.7767L111.329 12.6286L112.137 13.0766L110.439 16.2408L109.631 15.7928L110.251 14.6447L109.658 14.3087L107.259 18.7609L108.122 19.2649C108.472 19.461 108.768 19.517 109.011 19.405C109.146 19.349 109.28 19.2369 109.388 19.1249C109.496 19.0129 109.631 18.8729 109.739 18.6489L110.763 16.9688L111.571 17.4169L109.604 21.113L105.022 18.4809L105.454 17.6689L106.1 18.0329L110.951 8.93245L110.304 8.56843L110.736 7.75639L115.155 10.3045L113.323 13.7767ZM105.346 9.46447L104.564 9.15646C104.753 8.65243 104.915 8.17641 105.022 7.70039C105.157 7.22436 105.184 6.86035 105.157 6.58033C105.076 6.24432 104.861 6.02031 104.51 5.8803L103.621 5.51628L102.139 9.57648L102.786 9.82849L103.244 8.62443L104.106 8.96045L102.866 12.3206L102.004 11.9846L102.462 10.7525L101.815 10.5005L100.037 15.2888L100.764 15.5688L100.441 16.4368L97.7729 15.3728L98.0963 14.5047L98.797 14.7847L102.381 5.06826L101.681 4.78825L102.004 3.9202L106.72 5.79629L105.346 9.46447ZM93.1106 4.17222L91.305 9.71649L93.2453 10.0245L93.1106 4.17222ZM93.2723 11.0325L90.9816 10.6685L90.2809 12.7686L91.0085 12.8806L90.8738 13.7487L88.5291 13.3567L88.6639 12.4886L89.2568 12.5726L93.0567 1.48409L94.3233 1.6801L94.7276 13.4687L95.4283 13.5807L95.2935 14.4487L92.4368 14.0287L92.5716 13.1607L93.2992 13.2727L93.2723 11.0325ZM85.8881 0.980061L85.8342 4.81625L84.9987 4.78825C84.9987 4.42423 84.9987 4.08821 84.9448 3.7522C84.9179 3.44418 84.8101 2.99616 84.6754 2.40813C84.5406 1.8201 84.2172 1.54009 83.7321 1.51209C83.1123 1.51209 82.708 2.40813 82.5194 4.25622C82.4655 4.95625 82.4116 5.79629 82.3846 6.80434C82.3307 10.3325 82.7619 12.1246 83.7052 12.1246C84.0016 12.1246 84.325 11.8446 84.6214 11.2286C84.9179 10.6405 85.0796 9.85649 85.1065 8.87644L86.0498 8.90444C86.0228 10.6125 85.7533 11.7606 85.2413 12.3486C84.7292 12.9366 84.1902 13.2447 83.6243 13.3007C82.6811 13.2727 81.9534 12.7406 81.4683 11.6486C80.9832 10.5565 80.7676 8.93245 80.7946 6.77634C80.8215 4.42423 81.1719 2.74415 81.7917 1.7081C82.2768 0.896057 82.9236 0.504038 83.7052 0.53204C84.2172 0.588042 84.6484 0.868056 85.0257 1.40008L85.2413 0.95206L85.8881 0.980061ZM68.3978 14.5327L67.2659 10.3325L63.3582 5.15226L62.7383 5.32027L62.4958 4.45223L65.2716 3.61219L65.5142 4.48023L64.8943 4.64824L67.5623 8.40042L67.6971 3.8082L66.9694 4.03221L66.7269 3.16417L69.1524 2.43613L69.3949 3.30417L68.6942 3.52819L68.5325 9.9685L69.6913 14.1127L70.392 13.9167L70.6346 14.7847L67.9127 15.6248L67.6701 14.7567L68.3978 14.5327ZM62.1993 17.8649L59.7739 19.1529L59.3696 18.3409L60.0164 18.0049L55.4619 8.70844C55.408 8.73644 55.3541 8.76444 55.2733 8.79244C55.0038 8.93245 54.8421 9.21246 54.8151 9.57648L54.896 10.0525L55.0846 10.6125L55.2194 10.8645C55.2733 10.9765 55.3272 11.0886 55.3541 11.1446L55.7314 12.0406L54.9768 12.4326L53.2251 8.84844L58.0491 6.30032L59.8008 9.88449L59.0462 10.2765L58.5611 9.43647L58.3725 9.18446C58.3186 9.07245 58.2647 8.96045 58.2377 8.90444C58.1299 8.68043 58.0221 8.48442 57.9143 8.34442C57.8065 8.20441 57.6988 8.12041 57.6179 8.0644C57.3215 7.86839 57.025 7.84039 56.7555 7.9804C56.6747 8.0084 56.6208 8.0644 56.5938 8.0644L61.1753 17.3889L61.822 17.0528L62.1993 17.8649ZM54.1683 21.8131L48.4281 13.3007L47.8082 13.7487L47.2962 12.9926L49.6139 11.3126L50.1259 12.0686L49.533 12.5166L55.2733 21.029L55.8662 20.581L56.3782 21.337L54.0606 23.0171L53.5485 22.2611L54.1683 21.8131ZM43.7388 15.9608L46.2721 18.7609L45.6523 19.349C45.4097 19.0689 45.1672 18.8449 44.9246 18.6489C44.6821 18.4529 44.3048 18.2009 43.8197 17.8649C43.3346 17.5569 42.9034 17.5569 42.5261 17.9209C42.068 18.3689 42.3914 19.3209 43.4963 20.777C43.9005 21.309 44.4395 21.9531 45.1133 22.7091C47.4309 25.2852 48.9401 26.2653 49.6408 25.5933C49.8564 25.3692 49.8834 24.9492 49.7217 24.3052C49.56 23.6612 49.1288 22.9611 48.482 22.2611L49.1827 21.5891C50.3145 22.8491 50.8805 23.8572 50.9074 24.6412C50.9344 25.4252 50.7457 26.0413 50.3684 26.4893C49.6678 27.1613 48.8054 27.2733 47.7274 26.8533C46.6494 26.4333 45.4097 25.4252 43.9814 23.8292C42.4453 22.1211 41.5559 20.665 41.3134 19.461C41.1247 18.5369 41.3134 17.7809 41.9063 17.2208C42.3105 16.8848 42.8226 16.7728 43.4154 16.8848L43.2537 16.4088L43.7388 15.9608Z" fill="white"/>
<path d="M40.4246 25.3413C41.0445 25.3413 41.5565 25.8733 41.5565 26.5174C41.5565 27.1614 41.0445 27.6934 40.4246 27.6934C39.8048 27.6934 39.2927 27.1614 39.2927 26.5174C39.2927 25.8733 39.8048 25.3413 40.4246 25.3413Z" fill="white"/>
<path d="M115.802 16.129C116.422 16.129 116.934 16.661 116.934 17.305C116.934 17.9491 116.422 18.4811 115.802 18.4811C115.182 18.4811 114.67 17.9491 114.67 17.305C114.67 16.661 115.182 16.129 115.802 16.129Z" fill="white"/>
</svg>
