<svg width="166" height="62" viewBox="0 0 166 62" fill="none" xmlns="http://www.w3.org/2000/svg">
<path d="M102.261 45.8739C102.261 46.689 102.492 47.3293 102.897 47.7369C103.36 48.1444 103.88 48.4354 104.459 48.6101C105.095 48.7847 105.673 48.9012 106.309 48.9012C107.003 48.9012 107.64 48.9012 108.16 48.9012C108.449 48.9012 108.912 48.9012 109.548 48.8429C110.185 48.7847 110.532 48.7847 110.59 48.7847C117.357 47.2129 119.034 46.5143 124.934 43.0796C125.917 42.4974 126.669 41.9735 127.363 41.6824C127.305 41.7988 127.19 42.1481 127.074 42.6721C126.958 43.196 126.843 43.5453 126.785 43.7199V44.011C126.785 44.9425 127.132 45.4664 127.884 45.5829C128.636 45.6993 129.214 45.7575 129.735 45.7575C131.123 45.7575 132.453 45.5246 133.783 45.0589C135.114 44.5932 136.386 44.011 137.601 43.3707C138.873 42.6721 140.088 41.9735 141.302 41.2167C142.517 40.4599 143.732 39.8195 144.946 39.2955C144.946 39.3538 144.773 39.5866 144.484 39.9359C144.137 40.3434 144.021 40.5181 144.021 40.5763C144.021 41.1585 143.963 41.566 143.905 41.7406C143.847 41.9735 143.79 42.0899 143.79 42.2063C143.79 42.3228 143.732 42.4974 143.674 42.6721C143.616 42.9049 143.558 43.2542 143.558 43.8364C143.558 45.35 143.905 46.5725 144.657 47.504C145.409 48.4354 146.566 48.9012 148.243 48.9012C148.822 48.9012 150.036 48.7847 151.945 48.6101C153.854 48.3772 155.82 48.0862 157.845 47.7369C159.927 47.3293 161.778 46.9218 163.397 46.3979C165.017 45.874 165.884 45.2918 166 44.6514H165.306C164.207 44.6514 163.108 44.7678 162.009 45.0007C160.91 45.2336 159.753 45.5247 158.597 45.8157C157.382 46.165 156.167 46.4561 154.779 46.689C153.449 46.9801 152.061 47.0965 150.615 47.1547C150.441 47.1547 149.978 47.0965 149.169 47.0383C148.359 46.9218 147.896 46.9218 147.665 46.9218C147.318 46.8636 147.029 46.5143 146.855 45.8157C146.624 45.1171 146.566 44.7096 146.566 44.535C146.566 42.2646 146.797 40.4599 147.202 39.1209C147.607 37.7819 148.07 36.7922 148.59 36.1519C149.111 35.4533 149.631 35.0458 150.094 34.8711C150.557 34.6965 150.904 34.58 151.077 34.58C151.251 34.5218 151.193 34.5218 150.846 34.4636C150.499 34.4054 149.805 34.2307 148.706 33.8232C148.301 33.9397 147.549 34.0561 146.45 34.2307C145.351 34.4054 144.194 34.58 142.98 34.7547C141.765 34.9875 140.608 35.1622 139.452 35.3368C138.295 35.5115 137.543 35.6279 137.138 35.6861C136.964 35.7444 136.675 35.8608 136.213 35.9772C135.75 36.1519 135.345 36.2683 134.882 36.4429C134.42 36.6176 133.957 36.734 133.552 36.9087C133.147 37.0833 132.858 37.1415 132.742 37.1998C132.453 37.3162 131.817 37.6073 130.776 38.1312C129.735 38.6552 128.636 39.1791 127.421 39.7613C126.206 40.3434 125.049 40.9256 123.893 41.4495C118.109 44.3021 118.571 44.6514 111.689 45.9904C110.647 46.2232 109.606 46.2815 108.565 46.2815C108.392 46.2815 108.16 46.2814 107.813 46.3397C107.466 46.3979 107.177 46.3397 106.83 46.2815C106.483 46.2232 106.194 46.1068 105.962 45.9904C105.731 45.8739 105.615 45.6411 105.615 45.2918C105.615 44.5932 105.847 43.8946 106.367 43.2542C106.888 42.5556 107.466 41.9735 108.16 41.4495C108.854 40.9256 109.606 40.4598 110.416 40.1105C111.226 39.703 111.978 39.4702 112.614 39.3537C113.019 39.2955 114.06 39.0627 115.679 38.7134C117.357 38.3641 119.092 37.9566 120.943 37.5491C122.794 37.1415 124.529 36.7922 126.206 36.4429C127.884 36.0936 128.867 35.919 129.272 35.8026C129.33 35.8026 129.561 35.7443 129.966 35.5697C130.371 35.3951 130.66 35.3368 130.776 35.3368C131.007 35.2786 131.47 35.1622 132.222 35.0458C132.974 34.9293 133.436 34.8129 133.668 34.7547C133.494 34.6382 133.089 34.5218 132.511 34.4054C131.875 34.2889 131.47 34.2307 131.238 34.2307C128.925 34.2307 126.611 34.5218 124.355 35.0458C122.1 35.5697 119.786 35.8608 117.472 35.8608C117.357 35.8608 117.01 35.8608 116.489 35.8026C115.969 35.7444 115.622 35.7444 115.506 35.7444C115.795 35.3368 116.2 34.8129 116.721 34.2307C117.241 33.5904 117.53 33.0082 117.53 32.3678C117.53 32.135 117.53 31.9603 117.472 31.7857C117.415 31.611 117.299 31.4946 117.01 31.3782C116.836 31.3199 116.489 31.2617 115.969 31.2617C115.448 31.2617 115.101 31.2617 114.985 31.2617C114.407 31.2617 113.655 31.3199 112.672 31.3782C111.689 31.4946 110.763 31.611 109.78 31.8439C108.797 32.0767 107.871 32.3678 107.003 32.7753C106.136 33.1829 105.5 33.6486 105.153 34.2307C105.268 34.5218 105.384 34.6965 105.557 34.6965C105.731 34.7547 105.905 34.7547 106.136 34.7547C107.351 34.7547 108.565 34.5218 109.722 33.9979C110.879 33.4739 112.093 33.2411 113.308 33.2411H114.523C114.349 33.4157 114.002 33.7068 113.424 34.0561C112.845 34.4636 112.267 34.8711 111.689 35.2786C111.052 35.7443 110.474 36.0936 109.895 36.4429C109.317 36.7922 108.912 37.0251 108.681 37.1415C107.929 37.4908 106.83 37.7819 105.442 38.0148C103.996 38.2476 102.55 38.4805 101.104 38.7134C99.6 38.9462 98.2697 39.2373 96.9394 39.5866C95.6669 39.9359 94.7993 40.4598 94.3944 41.1002C94.5679 41.7406 94.8571 42.0899 95.3199 42.0899C95.7826 42.1481 96.1875 42.1481 96.6502 42.1481C97.9226 42.1481 99.1951 42.0317 100.468 41.857C101.74 41.6242 102.955 41.3913 104.285 41.1002V41.3913V41.6824C104.054 42.1481 103.649 42.7885 103.128 43.5453C102.55 44.4185 102.261 45.1753 102.261 45.8739ZM130.255 43.1378C131.007 42.2063 132.048 41.3331 133.378 40.4599C134.709 39.5866 136.155 38.8298 137.659 38.1894C139.162 37.4908 140.666 36.9669 142.17 36.5012C143.674 36.0354 144.946 35.8026 146.045 35.6861C146.045 35.7444 146.045 35.8026 146.103 35.8608C146.161 35.919 146.161 35.9772 146.161 35.9772C146.161 36.1519 145.525 36.6758 144.194 37.4908C142.864 38.3059 141.36 39.1791 139.625 40.1105C137.89 41.042 136.155 41.857 134.477 42.6139C132.8 43.3707 131.585 43.7199 130.833 43.7199C130.718 43.7199 130.602 43.6617 130.486 43.5453C130.313 43.3707 130.255 43.2542 130.255 43.1378Z" fill="white"/>
<path d="M74.0925 45.8739C74.0925 46.689 74.3239 47.3293 74.7288 47.7369C75.1915 48.1444 75.7121 48.4354 76.2905 48.6101C76.9267 48.7847 77.5051 48.9012 78.1413 48.9012C78.8354 48.9012 79.4716 48.9012 79.9922 48.9012C80.2814 48.9012 80.7441 48.9012 81.3803 48.8429C82.0166 48.7847 82.3636 48.7847 82.4215 48.7847C83.0577 48.6683 83.8675 48.4936 84.9086 48.2608C85.9497 48.0279 86.933 47.7951 87.9163 47.504C88.8995 47.2129 89.7671 46.98 90.519 46.8054C91.2709 46.5725 91.6758 46.4561 91.7337 46.3397L93.7581 44.3021H92.7748C91.7337 44.3021 90.6926 44.4185 89.7093 44.5932C88.6682 44.826 87.6849 45.0589 86.6438 45.2918C85.6027 45.5829 84.6194 45.8157 83.5783 45.9904C82.5372 46.2232 81.496 46.2815 80.4549 46.2815C80.2814 46.2815 80.05 46.2814 79.703 46.3397C79.356 46.3979 79.0668 46.3397 78.7197 46.2815C78.3727 46.2232 78.0835 46.1068 77.8521 45.9904C77.6208 45.8739 77.5051 45.6411 77.5051 45.2918C77.5051 44.5932 77.7364 43.8946 78.257 43.2542C78.7776 42.5556 79.356 41.9735 80.05 41.4495C80.7441 40.9256 81.496 40.4598 82.3058 40.1105C83.1155 39.703 83.8675 39.4702 84.5037 39.3537C84.9086 39.2955 85.9497 39.0627 87.5692 38.7134C89.2466 38.3641 90.9817 37.9566 92.8326 37.5491C94.6835 37.1415 96.4187 36.7922 98.0961 36.4429C99.7734 36.0936 100.757 35.919 101.162 35.8026C101.219 35.8026 101.451 35.7443 101.856 35.5697C102.261 35.3951 102.55 35.3368 102.665 35.3368C102.897 35.2786 103.359 35.1622 104.111 35.0458C104.863 34.9293 105.326 34.8129 105.557 34.7547C105.384 34.6382 104.979 34.5218 104.401 34.4054C103.764 34.2889 103.359 34.2307 103.128 34.2307C100.815 34.2307 98.5009 34.5218 96.2452 35.0458C93.9894 35.5697 91.6758 35.8608 89.3622 35.8608C89.2466 35.8608 88.8995 35.8608 88.379 35.8026C87.8584 35.7444 87.5114 35.7444 87.3957 35.7444C87.6849 35.3368 88.0898 34.8129 88.6103 34.2307C89.1309 33.5904 89.4201 33.0082 89.4201 32.3678C89.4201 32.135 89.4201 31.9603 89.3622 31.7857C89.3044 31.611 89.1887 31.4946 88.8995 31.3782C88.726 31.3199 88.379 31.2617 87.8584 31.2617C87.3378 31.2617 86.9908 31.2617 86.8751 31.2617C86.2967 31.2617 85.5448 31.3199 84.5615 31.3782C83.5783 31.4946 82.6528 31.611 81.6695 31.8439C80.6863 32.0767 79.7608 32.3678 78.8932 32.7753C78.0256 33.1829 77.3894 33.6486 77.0424 34.2307C77.158 34.5218 77.2737 34.6965 77.4472 34.6965C77.6208 34.7547 77.7943 34.7547 78.0256 34.7547C79.2403 34.7547 80.4549 34.5218 81.6117 33.9979C82.7685 33.4739 83.9831 33.2411 85.1978 33.2411H86.4124C86.2389 33.4157 85.8919 33.7068 85.3135 34.0561C84.7351 34.4636 84.1567 34.8711 83.5783 35.2786C82.942 35.7443 82.3636 36.0936 81.7852 36.4429C81.2068 36.7922 80.802 37.0251 80.5706 37.1415C79.8187 37.4908 78.7197 37.7819 77.3316 38.0148C75.8856 38.2476 74.4396 38.4805 72.9936 38.7134C71.4897 38.9462 70.1594 39.2373 68.8291 39.5866C67.5567 39.9359 66.6891 40.4598 66.2842 41.1002C66.4577 41.7406 66.7469 42.0899 67.2096 42.0899C67.6723 42.1481 68.0772 42.1481 68.5399 42.1481C69.8124 42.1481 71.0849 42.0317 72.3574 41.857C73.6298 41.6242 74.8445 41.3913 76.1748 41.1002V41.3913V41.6824C75.9434 42.1481 75.5385 42.7885 75.018 43.5453C74.3817 44.4185 74.0925 45.1753 74.0925 45.8739Z" fill="white"/>
<path d="M46.5028 42.614C47.2547 41.6826 48.2958 40.8093 49.6262 39.9361C50.9565 39.0628 52.4025 38.306 53.9063 37.6656C55.4101 36.967 56.914 36.4431 58.4178 35.9774C59.9216 35.5117 61.1941 35.2788 62.2931 35.1624C62.2931 35.2206 62.2931 35.2788 62.3509 35.337C62.4087 35.3952 62.4087 35.4534 62.4087 35.4534C62.4087 35.6281 61.7725 36.152 60.4422 36.9671C59.1119 37.7821 57.6081 38.6553 55.8729 39.5868C54.1377 40.5182 52.4025 41.3333 50.7251 42.0901C49.0478 42.8469 47.8331 43.1962 47.0812 43.1962C46.9655 43.1962 46.8499 43.1379 46.7342 43.0215C46.5607 42.8469 46.5028 42.7304 46.5028 42.614ZM59.9216 43.3126C59.9216 44.8262 60.2687 46.0488 61.0206 46.9802C61.7725 47.9117 62.9293 48.3774 64.6067 48.3774C65.1851 48.3774 66.3997 48.2609 68.3084 48.0863C70.2171 47.8534 72.1837 47.5624 74.2081 47.2131C76.2903 46.8055 78.1412 46.398 79.7607 45.8741C81.3802 45.3502 82.2478 44.768 82.3635 44.1276H81.6694C80.5704 44.1276 79.4715 44.244 78.3725 44.4769C77.2736 44.7098 76.1168 45.0009 74.96 45.2919C73.7453 45.6412 72.5307 45.9323 71.1426 46.1652C69.8122 46.4563 68.4241 46.5727 66.9781 46.6309C66.8046 46.6309 66.3418 46.5727 65.5321 46.5145C64.7223 46.398 64.2596 46.3981 64.0283 46.3981C63.6812 46.3398 63.392 45.9905 63.2185 45.2919C62.9871 44.5933 62.9293 44.1858 62.9293 44.0112C62.9293 41.7408 63.1607 39.9361 63.5655 38.5971C63.9704 37.2581 64.4331 36.2685 64.9537 35.6281C65.4743 34.9295 65.9948 34.522 66.4575 34.3473C66.9202 34.1727 67.2673 34.0563 67.4408 34.0563C67.6143 33.998 67.5565 33.998 67.2094 33.9398C66.8624 33.8816 66.1683 33.707 65.0694 33.2994C64.6645 33.4159 63.9126 33.5323 62.8136 33.707C61.7147 33.8816 60.5579 34.0563 59.3432 34.2309C58.1286 34.4638 56.9718 34.6384 55.815 34.8131C54.6582 34.9877 53.9063 35.1041 53.5014 35.1624C53.3279 35.2206 53.0387 35.337 52.576 35.4534C52.1133 35.6281 51.7084 35.7445 51.2457 35.9192C50.783 36.0938 50.3202 36.2102 49.9154 36.3849C49.5105 36.5595 49.2213 36.6178 49.1056 36.676C48.8164 36.7924 48.1802 37.0835 47.1391 37.6074C46.3871 37.9567 45.5774 38.3642 44.7098 38.7717C41.7021 40.2271 43.0324 44.8262 44.2471 45.0009C44.999 45.1173 45.5774 45.1755 46.0979 45.1755C47.4861 45.1755 48.8164 44.9426 50.1467 44.4769C51.477 44.0112 52.7495 43.429 53.9641 42.7887C55.2366 42.0901 56.4512 41.3915 57.6659 40.6347C58.8805 39.8779 60.0952 39.2375 61.3098 38.7135C61.3098 38.7718 61.1363 39.0046 60.8471 39.3539C60.5 39.7614 60.3844 39.9361 60.3844 39.9943C60.3844 40.5765 60.3265 40.984 60.2687 41.1586C60.2108 41.3915 60.153 41.5079 60.153 41.6243C60.0952 41.7408 60.0952 41.9154 60.0373 42.0901C59.9795 42.2647 59.9216 42.7304 59.9216 43.3126Z" fill="white"/>
<path d="M38.0009 29.6318V32.4262C38.1744 32.4262 38.4057 32.4262 38.7528 32.368C39.0998 32.3097 39.389 32.2515 39.736 32.1351C40.0831 32.0187 40.3723 31.844 40.6036 31.6694C40.835 31.4365 40.9507 31.2037 40.9507 30.8544C40.9507 30.2722 40.7193 29.9229 40.2566 29.7482C39.7939 29.5736 39.3312 29.5154 38.9263 29.5154C38.8106 29.5154 38.6371 29.5154 38.4057 29.5736C38.2322 29.6318 38.0587 29.6318 38.0009 29.6318Z" fill="white"/>
<path d="M14.2289 45.5249C14.2289 45.9325 14.3445 46.1653 14.6337 46.2817C14.9229 46.3982 15.1543 46.3982 15.4435 46.3982C16.1954 46.3982 17.063 46.1071 18.1041 45.5831C19.1452 45.001 19.955 44.5935 20.5912 44.3024C20.9383 44.1277 21.5167 43.8367 22.3843 43.4291C23.2519 43.0216 24.1195 42.5559 25.1027 42.0902C26.086 41.6245 26.9536 41.1587 27.7634 40.7512C28.5731 40.3437 29.1515 40.0526 29.4986 39.878V40.1691V40.3437C29.4407 40.4601 29.325 40.693 29.2094 40.9841C29.0358 41.3334 28.9202 41.6827 28.7466 42.0902C28.5731 42.4977 28.3996 42.9052 28.2839 43.2545C28.1104 43.6038 28.0526 43.8366 28.0526 43.8949V44.1859C28.0526 44.8263 28.3418 45.3503 28.9202 45.7578C29.4986 46.1653 30.1348 46.3982 30.771 46.3982C31.6386 46.3982 32.6219 46.2817 33.663 46.0489C34.7041 45.816 35.7453 45.5249 36.7864 45.2339C37.8275 44.9428 38.8108 44.5935 39.794 44.2442C40.7773 43.8949 41.5871 43.6038 42.2812 43.3709C43.3223 43.0216 43.8428 42.3231 43.8428 41.3334C42.1655 41.3334 40.5459 41.6244 38.9264 42.1484C37.3069 42.6723 35.6874 42.9634 34.0101 42.9634H32.5062C32.7376 42.2648 33.1425 41.5663 33.663 40.8677C34.2414 40.1691 34.8198 39.4705 35.3982 38.8301C36.0344 38.1315 36.6128 37.5493 37.2491 36.9672C37.8853 36.385 38.4059 35.9193 38.8108 35.57V35.2789C38.8108 34.4057 38.4059 33.9399 37.5961 33.9399C37.1912 33.9399 36.7285 34.1146 36.1501 34.4057C35.5717 34.755 35.0512 35.1043 34.5306 35.4536C34.01 35.8611 33.4895 36.2104 33.0268 36.6179C32.5641 37.0254 32.1592 37.3165 31.87 37.4911C30.5975 38.1897 29.4407 38.8301 28.3996 39.354C27.3585 39.878 26.3752 40.3437 25.4498 40.8094C24.4665 41.2751 23.4832 41.6827 22.4999 42.0902C21.4588 42.4977 20.3599 42.9634 19.0874 43.4291C18.7404 43.5456 18.3355 43.662 17.8728 43.7785C17.41 43.8949 16.9473 44.0113 16.4846 44.1277C16.0219 44.2442 15.5592 44.4188 15.1543 44.5935C14.7494 44.8263 14.4024 45.0592 14.171 45.4085V45.5249H14.2289Z" fill="white"/>
<path d="M20.7066 29.2826C20.1861 30.0977 19.2028 31.4366 17.8146 33.416C16.4265 35.3953 14.9805 37.4911 13.4188 39.6451C11.8571 41.8573 10.4112 43.9531 9.02301 45.9324C7.63485 47.9117 6.65158 49.3089 6.13102 50.124C5.6683 50.8808 5.08989 51.6376 4.45365 52.5108C3.81741 53.3841 3.12334 54.3155 2.54495 55.247C1.90871 56.2366 1.33031 57.1681 0.867597 58.1578C0.347039 59.1474 0.11568 60.0207 0 60.8357H1.09895L4.45365 57.4592L24.1192 30.3887L25.7965 28.7005C27.1847 28.8169 28.6307 28.8751 30.1923 28.8751C31.6962 28.8169 33.2579 28.7587 34.8774 28.7005C36.439 28.584 38.0007 28.4676 39.5046 28.293C41.0084 28.1183 42.3966 27.8855 43.7269 27.6526C44.9415 27.478 46.3296 27.0704 47.8913 26.4301C49.453 25.8479 51.0147 25.0911 52.5185 24.1596C54.0223 23.2282 55.237 22.1803 56.2781 20.9578C57.3192 19.7352 57.8398 18.4545 57.8398 16.9408C57.8398 14.7286 57.3192 12.7493 56.2781 11.061C55.237 9.31456 53.8488 7.80094 52.1136 6.5784C50.3784 5.35587 48.4697 4.24976 46.3297 3.43474C44.1896 2.61972 41.9917 1.92113 39.7938 1.4554C37.5958 0.931456 35.3979 0.582146 33.3157 0.349282C31.1756 0.116418 29.3826 0 27.8788 0C27.3582 0 26.2593 0.0582089 24.5241 0.174641C22.8467 0.291073 21.1115 0.582149 19.3185 0.989661C17.5254 1.39717 15.9059 1.92112 14.5178 2.5615C13.0718 3.20188 12.3777 4.07511 12.3777 5.06478C12.3777 5.53051 12.4356 5.93802 12.4934 6.28732C12.5512 6.63662 12.8983 6.81126 13.5923 6.81126C14.1129 6.81126 14.5756 6.5784 15.0383 6.05446C15.4432 5.53052 15.9638 5.23943 16.4843 5.123C16.8892 5.06479 17.4676 4.94835 18.2195 4.71548C18.9714 4.54083 19.7234 4.30797 20.4753 4.19154C21.2272 4.01689 21.9213 3.84225 22.5575 3.6676C23.1937 3.49295 23.5408 3.43474 23.7143 3.43474H26.7798C27.8788 3.43474 29.3826 3.49295 31.1756 3.6676C32.9687 3.84225 34.8774 4.07511 36.9596 4.48262C38.984 4.83192 41.1241 5.35587 43.2063 5.99624C45.3464 6.63662 47.2551 7.39342 48.9324 8.32488C50.6098 9.25634 51.9979 10.3624 53.0391 11.7014C54.0802 12.9822 54.6007 14.4958 54.6007 16.1258C54.6007 17.4066 54.0223 18.5127 52.9234 19.5024C51.8244 20.492 50.3206 21.3653 48.5276 22.1221C46.7345 22.8789 44.768 23.5193 42.6857 24.0432C40.5457 24.5671 38.5213 25.0329 36.5547 25.324C34.5882 25.6733 32.7373 25.9061 31.1178 26.0808C29.4983 26.2554 28.3415 26.3136 27.7052 26.3136V25.324C27.7052 25.324 27.9944 24.9164 28.5728 24.0432C29.1512 23.17 29.9032 22.1221 30.7129 20.9578C31.5227 19.7352 32.3903 18.5127 33.3157 17.2319C34.1833 15.9512 34.9352 14.9615 35.5715 14.1465C35.6871 13.9718 35.9763 13.5643 36.4391 12.9822C36.8439 12.4 37.3066 11.8178 37.7694 11.2357C38.2321 10.6535 38.6948 10.0714 39.0997 9.54742C39.5046 9.02348 39.8516 8.67418 40.0251 8.44132V7.62628C40.0251 7.16055 39.9673 6.81126 39.8516 6.52018C39.7359 6.2291 39.3889 6.11268 38.8683 6.11268C38.8683 6.11268 38.8105 6.11268 38.6948 6.11268C38.5791 6.11268 38.4634 6.17089 38.4056 6.2291C38.2321 6.34553 37.9429 6.63662 37.538 6.98592C37.191 7.33522 36.7861 7.74273 36.3234 8.15024C35.9185 8.55775 35.5136 8.90705 35.1087 9.31456C34.7617 9.66386 34.4725 9.95494 34.3568 10.1878C33.9519 10.7117 33.2579 11.6432 32.2167 13.0404C31.1756 14.3793 30.1345 15.893 28.9777 17.4648C27.8788 19.0366 26.7798 20.492 25.7965 21.8892C24.8133 23.2864 24.1192 24.2761 23.7143 24.8582L22.6154 25.9643H18.1617C18.5087 26.2554 19.0293 26.6047 19.7812 27.1286C20.5331 27.6526 20.938 28.1765 20.938 28.7587V29.2826H20.7066Z" fill="white"/>
<path d="M8.96521 19.677C8.96521 20.3756 9.19656 20.8413 9.65928 21.0159C10.122 21.1906 10.5847 21.2488 11.1053 21.2488C12.4356 21.2488 13.9973 20.7831 15.8481 19.7934C17.6412 18.8037 19.145 18.0469 20.244 17.523C20.8802 17.2319 21.9213 16.708 23.4252 15.9512C24.929 15.2526 26.4907 14.4375 28.2258 13.6225C29.9032 12.8075 31.5227 11.9925 32.9687 11.2939L35.9185 9.83848L38.1743 6.6366C36.7861 7.3934 35.5137 8.092 34.299 8.67416C32.506 9.60561 30.7708 10.4788 29.0356 11.2357C27.3582 11.9925 25.5652 12.7493 23.7722 13.5061C21.9792 14.2047 19.9548 15.0197 17.6412 15.8347C17.0049 16.0676 16.3109 16.2422 15.5011 16.4751C14.6913 16.708 13.8238 16.8826 13.014 17.1155C12.2042 17.3483 11.3945 17.5812 10.7004 17.9887C10.0063 18.338 9.42793 18.862 9.02305 19.4441V19.677H8.96521Z" fill="white"/>
<path d="M31.1757 57.4593L30.3081 59.4968C29.961 59.6715 29.614 59.8461 29.267 59.9043C28.9199 59.9625 28.5729 60.0208 28.168 60.0208C27.7631 60.0208 27.3582 59.9625 27.069 59.9043C26.7798 59.7879 26.5485 59.6715 26.3171 59.4968C25.9701 59.2058 25.7966 58.8565 25.7387 58.3907C25.6809 57.925 25.7387 57.401 25.9122 56.8189C26.0858 56.1785 26.375 55.5964 26.6642 55.1306C26.9534 54.6067 27.3582 54.1992 27.821 53.7916C28.3415 53.3259 28.9199 53.0349 29.4983 52.802C30.1346 52.5691 30.7129 52.4527 31.3492 52.4527C31.7541 52.4527 32.0433 52.5109 32.3325 52.5691C32.6217 52.6856 32.853 52.802 33.0844 53.0348L32.2168 55.1306C32.1011 54.8396 31.9276 54.6067 31.6962 54.4902C31.4649 54.3156 31.1757 54.2574 30.8865 54.2574C30.5394 54.2574 30.1924 54.3156 29.9032 54.432C29.5561 54.5485 29.2669 54.7813 29.0356 55.0142C28.8621 55.1889 28.6886 55.4217 28.515 55.7128C28.3415 55.9457 28.2258 56.2367 28.168 56.5278C28.0523 56.8771 28.0523 57.1682 28.0523 57.401C28.0523 57.6339 28.168 57.8668 28.3415 57.9832C28.4572 58.0996 28.5729 58.1579 28.6886 58.2161C28.8621 58.2743 29.0356 58.2743 29.2091 58.2743C29.4983 58.2743 29.8453 58.2161 30.1924 58.0414C30.4816 57.925 30.8286 57.6921 31.1757 57.4593ZM34.0098 54.8396H35.8029L33.7206 59.8461H31.9276L34.0098 54.8396ZM35.9185 52.4527C36.1499 52.4527 36.3813 52.5109 36.4969 52.6856C36.6126 52.8602 36.6126 53.0348 36.5548 53.3259C36.4391 53.617 36.2656 53.9081 36.0342 54.0827C35.8028 54.2574 35.5137 54.3738 35.2245 54.3738C34.9353 54.3738 34.7617 54.3156 34.6461 54.141C34.5304 53.9663 34.5304 53.7916 34.5882 53.5006C34.7039 53.2095 34.8774 52.9184 35.1088 52.7438C35.3401 52.5691 35.6293 52.4527 35.9185 52.4527ZM35.8607 59.8461L37.4224 56.1203H36.7861L37.3067 54.8396H37.9429L38.5213 53.4424H40.3143L39.736 54.8396H40.7192L40.1987 56.1203H39.2154L37.6537 59.8461H35.8607ZM41.529 54.8396H43.6112L43.8426 57.5175L46.1562 54.8396H48.007L41.4711 62.0001H39.4468L42.1652 59.0893L41.529 54.8396ZM58.3604 57.4593L57.4928 59.4968C57.1457 59.6715 56.7987 59.8461 56.4517 59.9043C56.1046 59.9625 55.7576 60.0208 55.3527 60.0208C54.9478 60.0208 54.5429 59.9625 54.2537 59.9043C53.9645 59.7879 53.7332 59.6715 53.5018 59.4968C53.1548 59.2058 52.9813 58.8565 52.9234 58.3907C52.8656 57.925 52.9234 57.401 53.0969 56.8189C53.2705 56.1785 53.5597 55.5964 53.8489 55.1306C54.1381 54.6067 54.5429 54.1992 55.0057 53.7916C55.5262 53.3259 56.1046 53.0349 56.683 52.802C57.3193 52.5691 57.8976 52.4527 58.5339 52.4527C58.9388 52.4527 59.228 52.5109 59.5172 52.5691C59.8064 52.6856 60.0377 52.802 60.2691 53.0348L59.4015 55.1306C59.2858 54.8396 59.1123 54.6067 58.8809 54.4902C58.6496 54.3156 58.3604 54.2574 58.0712 54.2574C57.7241 54.2574 57.3771 54.3156 57.0879 54.432C56.7408 54.5485 56.4516 54.7813 56.2203 55.0142C56.0468 55.1889 55.8733 55.4217 55.6997 55.7128C55.5262 55.9457 55.4105 56.2367 55.3527 56.5278C55.237 56.8771 55.237 57.1682 55.237 57.401C55.237 57.6339 55.3527 57.8668 55.5262 57.9832C55.6419 58.0996 55.7576 58.1579 55.8733 58.2161C56.0468 58.2743 56.2203 58.2743 56.3938 58.2743C56.683 58.2743 57.03 58.2161 57.3771 58.0414C57.6663 57.925 58.0133 57.6921 58.3604 57.4593ZM64.6071 55.4799L64.8384 54.8396H66.5736L64.4914 59.8461H62.7562L62.9875 59.264C62.6983 59.555 62.4091 59.7297 62.0621 59.8461C61.7151 59.9626 61.4259 60.0208 61.0788 60.0208C60.7318 60.0208 60.5004 59.9626 60.2691 59.8461C60.0377 59.7297 59.8642 59.555 59.7485 59.3222C59.6328 59.0893 59.575 58.8564 59.575 58.5654C59.575 58.2743 59.6328 57.925 59.7485 57.5757C59.8642 57.11 60.0956 56.7025 60.3269 56.295C60.6161 55.8875 60.9053 55.5381 61.2524 55.247C61.5416 55.0142 61.8308 54.8396 62.1778 54.7231C62.5248 54.6067 62.8719 54.5485 63.1611 54.5485C63.5659 54.5485 63.8551 54.6067 64.0287 54.7813C64.3757 55.0142 64.4914 55.1888 64.6071 55.4799ZM62.3513 58.5654C62.5248 58.5654 62.6983 58.5654 62.8719 58.5072C63.0454 58.4489 63.2189 58.3325 63.3346 58.2161C63.5081 58.0997 63.6238 57.9832 63.6816 57.8086C63.7973 57.6339 63.8551 57.4593 63.913 57.2846C63.9708 57.11 63.9708 56.9353 63.9708 56.8189C63.9708 56.7025 63.913 56.586 63.8551 56.4696C63.7973 56.3532 63.7395 56.295 63.6238 56.295C63.5081 56.2367 63.3924 56.2367 63.2767 56.2367C63.1032 56.2367 62.9297 56.2949 62.7562 56.3532C62.5827 56.4114 62.4091 56.4696 62.2935 56.6442C62.1778 56.8189 62.0043 56.9353 61.8886 57.11C61.7729 57.2846 61.7151 57.4593 61.6572 57.6339C61.5994 57.8086 61.5994 57.925 61.5994 58.0996C61.5994 58.2161 61.6572 58.3325 61.7151 58.4489C61.7729 58.5654 61.8308 58.6236 61.9464 58.6818C62.0621 58.5072 62.1778 58.5654 62.3513 58.5654ZM66.5736 59.8461L68.1353 56.1203H67.499L68.0196 54.8396H68.6558L69.0607 53.8499C69.1764 53.617 69.2921 53.3841 69.3499 53.2095C69.4656 53.0348 69.5813 52.9184 69.7548 52.7438C69.9862 52.5109 70.2754 52.3363 70.5646 52.2198C70.8538 52.1034 71.2008 52.0452 71.6057 52.0452C71.7214 52.0452 71.8949 52.0452 72.0684 52.1034C72.2419 52.1034 72.4154 52.1616 72.589 52.1616L72.0106 53.5006C71.9527 53.4424 71.837 53.4424 71.7792 53.3842C71.7214 53.3842 71.6057 53.3259 71.5478 53.3259C71.4322 53.3259 71.3165 53.3842 71.2008 53.3842C71.0851 53.4424 71.0273 53.5006 70.9116 53.5588C70.8538 53.617 70.7959 53.6752 70.7381 53.7334C70.6802 53.7917 70.6224 53.9081 70.6224 54.0245L70.3332 54.6649H71.4322L70.9116 55.9456H69.9283L68.3666 59.6715H66.5736V59.8461ZM74.9604 58.3325H76.6956C76.5221 58.5654 76.3485 58.7982 76.1172 58.9729C75.8858 59.1475 75.7123 59.3222 75.4809 59.4386C75.1339 59.6715 74.7869 59.7879 74.4398 59.9043C74.0928 60.0208 73.7457 60.0208 73.3409 60.0208C72.936 60.0208 72.589 59.9626 72.2998 59.8461C72.0106 59.7297 71.7792 59.555 71.6635 59.3222C71.5478 59.1475 71.4322 58.8565 71.4322 58.6236C71.4322 58.3325 71.4322 58.0414 71.5478 57.6339C71.6635 57.1682 71.8949 56.7607 72.1262 56.4114C72.4154 56.0039 72.7046 55.7128 73.1095 55.4217C73.4566 55.1889 73.8036 55.0142 74.1506 54.8978C74.5555 54.7813 74.9604 54.7231 75.4231 54.7231C75.9437 54.7231 76.2907 54.7813 76.5799 54.956C76.8691 55.1306 77.0426 55.3635 77.1583 55.6546C77.2161 55.8874 77.274 56.1203 77.274 56.3532C77.274 56.6442 77.2161 56.9353 77.1005 57.2264C77.0426 57.3428 77.0426 57.4011 76.9848 57.5175C76.9269 57.6339 76.9269 57.6921 76.8691 57.8086H73.0517C73.0517 57.8668 72.9938 57.8668 72.9938 57.925C72.9938 57.9832 72.9938 57.9832 72.936 58.0414C72.8782 58.2161 72.8782 58.3325 72.8782 58.4489C72.8782 58.5654 72.936 58.6818 72.9938 58.74C73.0517 58.8564 73.1095 58.9147 73.2252 58.9729C73.3409 59.0311 73.4565 59.0311 73.6301 59.0311C73.7457 59.0311 73.8614 59.0311 74.035 58.9729C74.1506 58.9147 74.2663 58.8565 74.382 58.7982C74.4398 58.74 74.5555 58.6818 74.6133 58.6236C74.8447 58.5072 74.9026 58.3907 74.9604 58.3325ZM73.6879 56.7607H75.7123C75.7701 56.6443 75.7701 56.5278 75.7701 56.4114C75.7701 56.2949 75.7701 56.1785 75.7123 56.0621C75.6545 55.9457 75.5966 55.8874 75.4809 55.8292C75.3653 55.771 75.2496 55.771 75.0761 55.7128C74.9025 55.7128 74.7869 55.7128 74.6133 55.771C74.4398 55.8292 74.3241 55.8875 74.2085 56.0039C74.0928 56.1203 73.9771 56.2367 73.9193 56.3532C73.8036 56.5278 73.6879 56.6443 73.6879 56.7607Z" fill="white"/>
<path fill-rule="evenodd" clip-rule="evenodd" d="M49.9156 55.9454C50.5518 55.9454 51.0146 56.4694 51.0146 57.0516C51.0146 57.6919 50.494 58.1576 49.9156 58.1576C49.2794 58.1576 48.8167 57.6337 48.8167 57.0516C48.8167 56.4112 49.3372 55.9454 49.9156 55.9454Z" fill="white"/>
<path d="M90.5193 54.9558C92.5437 54.8394 96.9395 54.723 103.649 54.5483C110.358 54.4319 117.473 54.3737 124.934 54.4319C132.395 54.4901 139.105 54.6647 145.12 54.9558C151.135 55.2469 154.548 55.7708 155.358 56.5277L152.928 56.6441C149.053 56.877 145.12 56.9352 141.129 56.877C137.138 56.8188 132.916 56.7023 128.578 56.5859C124.24 56.4112 119.613 56.353 114.754 56.2948C109.896 56.2366 104.921 56.353 99.8315 56.5859C99.1953 56.6441 97.5757 56.7605 94.9151 57.0516C92.2545 57.3427 90.4614 57.4591 89.6517 57.5173C85.3715 58.0413 75.4809 55.8291 90.5193 54.9558Z" fill="white"/>
</svg>
