<svg width="60" height="60" viewBox="0 0 60 60" fill="none" xmlns="http://www.w3.org/2000/svg">
<mask id="mask0" mask-type="alpha" maskUnits="userSpaceOnUse" x="0" y="0" width="60" height="60">
<rect width="60" height="60" fill="#C4C4C4"/>
</mask>
<g mask="url(#mask0)">
<path d="M50.0971 19.3386L48.4172 28.3935L48.267 28.4208V19.3386H43.7737V42.0783H48.267V31.0431H48.4172L50.3566 42.0783H55.0001L52.0364 29.3905L54.6587 19.3386H50.0971Z" fill="black"/>
<path d="M41.7658 23.7364V27.0825H37.1223V23.2038C37.1223 22.8487 37.054 22.5892 36.9447 22.439C36.8218 22.3024 36.6306 22.2204 36.3574 22.2204C36.1116 22.2204 35.9341 22.3024 35.8248 22.439C35.7155 22.5892 35.6609 22.8487 35.6609 23.2038V38.2406C35.6609 38.5821 35.7155 38.8279 35.8385 38.9781C35.9614 39.1147 36.1526 39.1967 36.4257 39.1967C36.6852 39.1967 36.8764 39.1284 36.972 38.9918C37.0813 38.8552 37.1223 38.6094 37.1223 38.2406V32.4362H41.7658V37.6807C41.7658 39.6883 41.438 40.9448 40.8098 41.4638C40.1679 41.9828 38.7202 42.2423 36.4667 42.2423C34.1449 42.2423 32.6563 41.9828 32.0144 41.4501C31.3725 40.9175 31.0583 39.661 31.0583 37.667V23.7364C31.0583 21.7151 31.3725 20.445 32.0144 19.9533C32.6563 19.448 34.1176 19.2021 36.4121 19.2021C38.7475 19.2021 40.2225 19.4616 40.8507 19.9806C41.4517 20.4996 41.7658 21.7561 41.7658 23.7364Z" fill="black"/>
<path d="M5.49146 19.3386H7.86785H9.69795H11.1593C13.1806 19.3386 14.519 19.6254 15.1882 20.199C15.8575 20.7727 16.1852 22.0291 16.1852 23.9685V26.9322C16.1852 28.216 16.035 29.1037 15.7209 29.6227C15.4068 30.1417 14.8605 30.5514 14.082 30.8519C14.8468 31.0977 15.3795 31.4801 15.7072 31.9991C16.0214 32.5181 16.1852 33.2965 16.1852 34.3618V42.0919H12.17L11.8695 29.691C11.8695 29.5544 11.9924 29.3769 12.1017 29.2403C12.4431 28.8306 12.2792 28.7486 12.17 28.5437L12.0607 28.3252L12.2519 28.2569C12.3065 28.3389 12.3748 28.3935 12.4431 28.3935L12.6889 28.2979C12.8801 28.1477 12.6889 27.7653 12.4294 27.7789L12.1836 27.8745C12.1426 27.9155 12.1426 27.9838 12.17 28.0657L11.9787 28.134L11.651 27.4921L11.8422 27.4238C11.8968 27.5058 11.9651 27.5604 12.0334 27.5741L12.2792 27.4785C12.4841 27.3282 12.2792 26.9458 12.0197 26.9595L11.7739 27.0551C11.7329 27.0961 11.7329 27.1643 11.7602 27.2463L11.569 27.3146L11.2412 26.6727L11.4188 26.6044C11.4734 26.6863 11.5417 26.741 11.61 26.741L11.8558 26.659C12.047 26.5088 11.8558 26.1264 11.5963 26.14L11.3505 26.222C11.3095 26.263 11.3095 26.3312 11.3368 26.4132L11.1456 26.4815L10.8179 25.8396L11.0091 25.7713C11.0637 25.8532 11.132 25.9079 11.2003 25.9079L11.4461 25.8123C11.651 25.662 11.4461 25.2796 11.1866 25.2933L10.9408 25.3889C10.8998 25.4298 10.8998 25.4981 10.9271 25.5801L10.7359 25.6484L10.4081 25.0065L10.5993 24.9382C10.654 25.0201 10.7223 25.0748 10.7905 25.0748L11.0364 24.9928C11.2412 24.8426 11.0364 24.4602 10.7769 24.4738L10.5311 24.5558C10.4901 24.5967 10.4901 24.665 10.5174 24.747L10.3262 24.8153L9.99842 24.1734L10.1896 24.1051C10.2443 24.187 10.3125 24.2417 10.3808 24.2417L10.6267 24.146C10.8315 23.9958 10.6267 23.6134 10.3672 23.6271L10.1213 23.7227C10.0804 23.7636 10.0804 23.8319 10.1077 23.9139L9.91647 23.9822L9.61601 23.3949C8.53707 21.2643 8.03174 22.193 8.42781 23.8319C8.61901 24.6241 8.76924 25.8123 8.61901 27.2053C8.57804 27.5604 9.01508 28.134 9.37017 28.3935C9.95744 28.8032 10.2716 29.4178 10.2716 29.65L10.2033 32.6137H10.176V33.4877L9.9711 42.051H5.55974V33.2965V27.219V19.3386H5.49146Z" fill="black"/>
<path d="M35.9888 15.8287L35.7293 16.6891H54.3035V15.8287H35.9888ZM24.0112 9V16.6482H29.0918V15.8151H26.0462V9H24.0112ZM30.2254 9V16.6482H34.8006L35.0465 15.8151H32.2603V13.2611H34.2816V12.4007H32.2603V9.8331H35.3059V9H30.2254Z" fill="black"/>
<path d="M5 16.689H22.782V15.8286H5V16.689Z" fill="black"/>
<path fill-rule="evenodd" clip-rule="evenodd" d="M18.6575 44.0178H23.0142H54.959V50.628H23.0142H18.6575H5V44.0178H18.6575ZM42.0116 48.6477H41.9023H41.8887V47.3775H41.9979C42.0526 47.3775 42.0799 47.3775 42.1072 47.4048C42.1345 47.4185 42.1482 47.4458 42.1618 47.4731C42.1755 47.5004 42.1755 47.5141 42.1755 47.5277V47.5687V48.4838C42.1755 48.5384 42.1618 48.5794 42.1345 48.6067C42.1072 48.634 42.0799 48.6477 42.0389 48.6477H42.0253H42.0116ZM41.0283 45.4518V49.0164H42.3257C42.5442 49.0164 42.6945 48.9891 42.7901 48.9208C42.8993 48.8662 42.954 48.7979 42.9949 48.7159C42.9987 48.7047 43.0035 48.6924 43.0084 48.6796C43.0216 48.646 43.0359 48.6091 43.0359 48.5794C43.0496 48.5384 43.0496 48.4974 43.0496 48.4701V47.5004C43.0496 47.3365 42.9949 47.2136 42.913 47.1317C42.8311 47.0634 42.7354 47.0088 42.6262 46.9951C42.5989 46.9951 42.575 46.9917 42.5511 46.9883C42.5272 46.9849 42.5033 46.9815 42.476 46.9815H42.353H41.9023V45.8479H42.913V45.4518H41.0283ZM38.8021 47.6916H38.4607L38.6109 45.9025H38.6519L38.8021 47.6916ZM37.9553 45.4518L37.5046 49.0437H38.3514L38.4333 48.0877H38.8431L38.9387 49.0437H39.7854L39.3347 45.4518H37.9553ZM34.2405 45.4518V49.0437H35.1146V45.8479H35.3877V49.0437H36.2618V45.4518H34.2405ZM29.7882 45.8479V49.0437H30.6623V45.8479H31.1812V45.4518H29.2692V45.8479H29.7882ZM26.9201 48.2789V46.0118V45.9981H26.9474H26.9611C27.0294 45.9845 27.0703 45.9981 27.1113 46.0391C27.1386 46.0801 27.1659 46.1347 27.1659 46.1893V48.074C27.1659 48.1423 27.1523 48.1833 27.1113 48.2243C27.0703 48.2653 27.0157 48.2789 26.9474 48.2789H26.9338H26.9201ZM26.046 46.0118V48.2789H26.046C25.9777 48.2789 25.9368 48.2789 25.9095 48.2516C25.8998 48.2419 25.8901 48.234 25.881 48.2265C25.8645 48.2129 25.85 48.2009 25.8412 48.1833C25.8275 48.1697 25.8275 48.1423 25.8275 48.1287V48.0877V46.203V46.162C25.8275 46.1552 25.8309 46.1449 25.8343 46.1347C25.8378 46.1244 25.8412 46.1142 25.8412 46.1074C25.8548 46.0801 25.8685 46.0527 25.8958 46.0391C25.9231 46.0254 25.9641 46.0118 26.0324 46.0118H26.046ZM26.046 48.675V49.0437H26.9338V48.675H27.4254H27.5347H27.5347C27.562 48.675 27.603 48.675 27.644 48.6613C27.7396 48.6477 27.8215 48.593 27.9035 48.5111C27.9854 48.4291 28.0264 48.2926 28.0264 48.115V46.1757V46.0664C28.0221 46.0495 28.0192 46.0339 28.0164 46.0188C28.0101 45.9851 28.0043 45.9539 27.9854 45.9162C27.9591 45.8372 27.8947 45.7836 27.8166 45.7186L27.8078 45.7113C27.7259 45.643 27.5893 45.6157 27.4118 45.6157H26.9201V45.3699H26.046V45.6157H25.5544H25.4315C25.3905 45.6157 25.3358 45.6294 25.2949 45.643C25.2129 45.6703 25.131 45.7113 25.049 45.7933C24.9808 45.8752 24.9398 45.9981 24.9398 46.162V48.1014C24.9398 48.3062 24.9808 48.4291 25.0627 48.5111C25.1446 48.593 25.2402 48.6477 25.3358 48.6613C25.3563 48.6613 25.3734 48.6647 25.3905 48.6681C25.4076 48.6716 25.4246 48.675 25.4451 48.675H25.5544H26.046ZM22.7136 47.6916H22.3722L22.5224 45.9025H22.5634L22.7136 47.6916ZM21.8669 45.4518L21.4162 49.0437H22.2629L22.3449 48.0877H22.7546L22.8502 49.0437H23.697L23.2463 45.4518H21.8669ZM19.19 47.4048H19.1217V45.8342H19.2037C19.2583 45.8342 19.2993 45.8479 19.3266 45.8752C19.3539 45.9025 19.3675 45.9298 19.3812 45.9571L19.3812 45.9571V45.9845V46.0118V47.2409C19.3812 47.2956 19.3675 47.3365 19.3402 47.3639C19.3129 47.3912 19.2719 47.4048 19.19 47.4048ZM18.234 45.4518V49.0437H19.108V47.8146H19.5997H19.6817C19.709 47.8009 19.75 47.8009 19.7773 47.8009C19.9002 47.7872 20.0094 47.7326 20.105 47.6643C20.2006 47.5824 20.2553 47.4321 20.2553 47.2136V46.0391C20.2553 45.8206 20.2006 45.684 20.1187 45.602C20.0368 45.5338 19.9412 45.4791 19.8319 45.4655C19.7909 45.4518 19.75 45.4518 19.709 45.4518H19.709H19.5997H18.234ZM14.8469 45.4518V49.0437H15.7347V47.3775L16.1444 49.0437H17.0048L16.4722 47.1863L16.9092 45.4518H16.0488L15.721 46.9815V45.4518H14.8469Z" fill="black"/>
<path d="M22.7276 23.2038V38.2406C22.7276 38.5821 22.7822 38.8279 22.9051 38.9781C23.028 39.1147 23.2192 39.1967 23.4924 39.1967C23.7519 39.1967 23.9431 39.1284 24.0387 38.9918C24.1479 38.8552 24.1889 38.6094 24.1889 38.2406V23.2038C24.1889 22.8487 24.1206 22.5892 24.0114 22.439C23.8884 22.3024 23.6972 22.2204 23.4241 22.2204C23.1783 22.2204 23.0007 22.3024 22.8915 22.439C22.7822 22.6029 22.7276 22.8487 22.7276 23.2038ZM18.125 23.7364C18.125 21.7151 18.4391 20.445 19.081 19.9533C19.7229 19.448 21.1843 19.2021 23.4787 19.2021C25.8141 19.2021 27.2892 19.4616 27.9174 19.9806C28.532 20.4996 28.8461 21.7561 28.8461 23.7364V37.6807C28.8461 39.6883 28.5183 40.9448 27.8901 41.4638C27.2482 41.9828 25.8005 42.2423 23.547 42.2423C21.2252 42.2423 19.7366 41.9828 19.0947 41.4501C18.4528 40.9175 18.1387 39.661 18.1387 37.667V23.7364H18.125Z" fill="black"/>
</g>
</svg>
