<svg width="60" height="60" viewBox="0 0 60 60" fill="none" xmlns="http://www.w3.org/2000/svg">
<mask id="mask0" mask-type="alpha" maskUnits="userSpaceOnUse" x="0" y="0" width="60" height="60">
<rect width="60" height="60" fill="#C4C4C4"/>
</mask>
<g mask="url(#mask0)">
<path d="M34.5556 27.0456C34.5556 27.2123 34.4751 27.3021 34.3009 27.3021C34.2875 27.3021 34.2606 27.3021 34.2204 27.2892C33.6306 27.1995 33.349 26.7251 33.349 25.8661C33.349 25.2636 33.4429 24.5841 33.644 23.8405C33.5769 23.8405 33.4697 23.8533 33.3222 23.8661C33.1748 23.8917 33.0809 23.9046 33.0005 23.9046C32.8933 23.9046 32.8396 23.8405 32.8396 23.7123C32.8396 23.4943 33.148 23.3789 33.7646 23.3789C33.8853 22.8917 34.0059 22.443 34.1266 22.0327C34.1534 21.9174 34.2338 21.8532 34.3679 21.8532C34.5556 21.8532 34.636 21.9302 34.636 22.084C34.636 22.1225 34.6226 22.1609 34.6092 22.2122C34.5154 22.4686 34.4081 22.8661 34.274 23.3917C34.2606 23.3917 34.2606 23.3917 34.2606 23.3917C34.2606 23.3917 34.5019 23.4046 34.998 23.4174C35.1722 23.443 35.2527 23.5328 35.2527 23.6481C35.2527 23.802 35.1722 23.8789 35.0248 23.8789C34.9041 23.8789 34.6226 23.8661 34.1802 23.8533C33.9657 24.5712 33.8585 25.2379 33.8585 25.8661C33.8585 26.4559 34.0059 26.7764 34.3143 26.8405C34.4751 26.8149 34.5556 26.8918 34.5556 27.0456ZM38.8052 34.7637C39.5291 34.7637 39.8911 35.1612 39.8911 35.9561C39.8911 36.315 39.8374 36.7638 39.7302 37.3151C39.6498 37.7381 39.6095 38.0458 39.6095 38.2253C39.6095 38.2638 39.6229 38.3151 39.6498 38.3792C39.6766 38.4433 39.6766 38.4817 39.6766 38.5074C39.6766 38.6612 39.5827 38.7382 39.4085 38.7382C39.194 38.7382 39.0733 38.5587 39.0733 38.1997C39.0733 38.1099 39.1135 37.7894 39.2074 37.2381C39.3146 36.5971 39.3682 36.174 39.3682 35.9817C39.3682 35.4817 39.1672 35.2381 38.7516 35.2381C38.2824 35.2381 37.8802 35.533 37.5719 36.1099C37.3172 36.5843 37.1831 37.0715 37.1831 37.5715C37.1831 38.0458 37.3574 38.2766 37.6925 38.2766C37.9874 38.2766 38.2153 38.0843 38.3628 37.6997C38.403 37.5971 38.4835 37.5458 38.5907 37.5458C38.7516 37.5458 38.832 37.6227 38.832 37.7894C38.832 37.9433 38.7382 38.1228 38.5371 38.3407C38.2824 38.6099 37.974 38.7382 37.6121 38.7382C37.2903 38.7382 37.049 38.6099 36.8748 38.3535C36.7273 38.1356 36.6469 37.8663 36.6469 37.5458C36.6469 36.9048 36.8345 36.3022 37.2099 35.7253C37.6523 35.0971 38.1751 34.7637 38.8052 34.7637ZM35.99 35.3919C35.99 35.5586 35.9096 35.6355 35.7487 35.6355C35.7085 35.6355 35.628 35.5843 35.494 35.4689C35.3599 35.3535 35.2393 35.3022 35.1052 35.3022C34.6494 35.3022 34.3009 35.5458 34.0327 36.0202C33.8048 36.4304 33.6976 36.8663 33.6976 37.3151C33.6976 37.9946 33.9657 38.3279 34.4885 38.3279C34.9041 38.3279 35.2259 38.1356 35.4538 37.7638C35.5074 37.674 35.5878 37.6227 35.6817 37.6227C35.8291 37.6227 35.9096 37.7125 35.9096 37.8792C35.9096 38.033 35.7755 38.2125 35.5208 38.4176C35.2125 38.6612 34.8505 38.7894 34.4617 38.7894C33.6038 38.7894 33.1748 38.3022 33.1748 37.3279C33.1748 36.7125 33.3356 36.1612 33.6708 35.674C34.0596 35.1099 34.5556 34.8278 35.1588 34.8278C35.3733 34.8278 35.561 34.8791 35.7487 34.9689C35.9096 35.0586 35.99 35.1996 35.99 35.3919ZM27.5309 36.5586C27.8259 36.5458 28.0806 36.4689 28.2817 36.3279C28.5498 36.174 28.6704 35.9689 28.6704 35.7125C28.6704 35.456 28.5096 35.3278 28.2012 35.3278C27.7722 35.3278 27.4237 35.5586 27.1288 36.0073C26.8875 36.4048 26.7668 36.815 26.7668 37.251C26.7668 37.9689 27.0886 38.3279 27.7454 38.3279C28.0806 38.3279 28.3621 38.1997 28.5632 37.9561C28.6168 37.892 28.6838 37.8663 28.7509 37.8663C28.9117 37.8663 28.9922 37.9561 28.9922 38.1228C28.9922 38.3023 28.8179 38.4689 28.4693 38.6099C28.1878 38.7253 27.9331 38.7894 27.7052 38.7894C27.236 38.7894 26.8741 38.6484 26.6194 38.3663C26.3646 38.0843 26.2306 37.7125 26.2306 37.2638C26.2306 36.6868 26.4049 36.1484 26.7534 35.674C27.1422 35.1227 27.6248 34.8535 28.2012 34.8535C28.8581 34.8535 29.1933 35.1355 29.1933 35.7125C29.1933 36.1099 29.0056 36.4432 28.657 36.6997C28.3353 36.9304 27.9599 37.0458 27.5175 37.0458C27.3433 37.0458 27.2628 36.9689 27.2628 36.815C27.2628 36.6612 27.3567 36.5586 27.5309 36.5586ZM24.0723 38.1869L24.0052 38.5587C23.9784 38.6997 23.898 38.7766 23.7505 38.7766C23.5897 38.7766 23.5092 38.6997 23.5092 38.533L23.6701 37.4945C23.7773 36.8022 23.831 36.3791 23.831 36.2381C23.831 35.8407 23.7505 35.5586 23.5762 35.4048C23.536 35.3663 23.5092 35.315 23.5092 35.2253C23.5092 35.0586 23.5897 34.9817 23.7505 34.9817C23.9114 34.9817 24.0588 35.1099 24.1661 35.3535C24.2465 35.5458 24.2868 35.7253 24.2868 35.8791C24.2868 35.892 24.2868 35.9048 24.2868 35.9176C24.4074 35.5971 24.5951 35.3278 24.8632 35.1355C25.1179 34.9432 25.4262 34.8406 25.7748 34.8406C25.9625 34.8406 26.0563 34.9176 26.0563 35.0842C26.0563 35.2253 25.9759 35.3022 25.815 35.315C25.2654 35.3535 24.8632 35.6612 24.5817 36.2381C24.4342 36.5458 24.2599 37.1997 24.0723 38.1869ZM19.9299 36.1227C19.9299 35.9176 19.9031 35.6355 19.8494 35.2894C19.4607 35.5201 19.1389 35.8663 18.8574 36.315C18.5759 36.7766 18.4284 37.2253 18.4284 37.6484C18.4284 38.1356 18.6027 38.3663 18.9513 38.3663C19.6081 38.3792 19.9299 37.6227 19.9299 36.1227ZM22.3697 32.0073C21.8469 32.0073 21.4045 32.097 21.0694 32.2893C21.7397 32.6355 22.2625 32.815 22.6378 32.815C22.9998 32.815 23.1741 32.6996 23.1741 32.456C23.1741 32.3021 23.0802 32.1868 22.8657 32.1098C22.7183 32.0329 22.5574 32.0073 22.3697 32.0073ZM18.0531 33.4945L18.2139 33.4817C18.2407 33.4688 18.281 33.4688 18.2944 33.4688C18.415 33.4688 18.4821 33.5458 18.4821 33.6996C18.4821 33.8791 18.3212 33.9688 17.9994 33.9688C17.6643 33.9688 17.3828 33.8663 17.1415 33.6483C16.9002 33.4304 16.7661 33.174 16.7661 32.8534C16.7661 32.4304 16.9672 32.0842 17.3694 31.8406C17.7179 31.6226 18.1201 31.5201 18.6027 31.5201C19.206 31.5201 19.8628 31.6867 20.5734 32.0201C21.0828 31.6867 21.6726 31.5201 22.3563 31.5201C22.6915 31.5201 22.9864 31.5842 23.2411 31.7124C23.536 31.8791 23.6969 32.1098 23.6969 32.4175C23.6969 32.6996 23.5896 32.9047 23.3886 33.0457C23.1741 33.1868 22.9194 33.2637 22.6244 33.2637C22.3161 33.2637 21.981 33.1996 21.6324 33.0842C21.4447 33.0201 21.1096 32.8663 20.627 32.6098C20.2918 32.9304 20.1176 33.3663 20.1176 33.9176C20.1176 34.0329 20.1444 34.2637 20.2114 34.6099C20.5063 34.5073 20.8012 34.456 21.0962 34.456C21.3777 34.456 21.686 34.5073 22.0078 34.6099C22.4233 34.7509 22.6378 34.9432 22.6378 35.1612C22.6378 35.3278 22.5574 35.4048 22.3831 35.4048C22.2893 35.4048 22.2223 35.3663 22.1686 35.3022C21.9944 35.0458 21.6324 34.9176 21.1096 34.9176C20.8817 34.9176 20.6136 34.9689 20.3455 35.0586C20.4125 35.4304 20.4527 35.7766 20.4527 36.1099C20.4527 37.9176 19.9567 38.8151 18.9513 38.8151C18.2542 38.8151 17.9056 38.4176 17.9056 37.6356C17.9056 37.0843 18.0799 36.533 18.4418 35.9945C18.7904 35.456 19.2328 35.0586 19.7556 34.8022C19.6752 34.4176 19.6215 34.1227 19.6215 33.9047C19.6215 33.3022 19.8092 32.7893 20.198 32.3406C19.6349 32.097 19.1121 31.9688 18.6295 31.9688C18.3078 31.9688 18.0263 32.0329 17.7715 32.1739C17.4766 32.3406 17.3292 32.5714 17.3292 32.8534C17.3292 33.0329 17.4096 33.1868 17.5571 33.3022C17.6911 33.4175 17.8386 33.4688 17.9994 33.4688C18.0128 33.4945 18.0263 33.4945 18.0531 33.4945ZM37.5987 23.2892C38.3226 23.2892 38.6845 23.6866 38.6845 24.4815C38.6845 24.8405 38.6309 25.2892 38.5237 25.8405C38.4432 26.2636 38.403 26.5713 38.403 26.7508C38.403 26.7892 38.4164 26.8405 38.4432 26.9046C38.4701 26.9687 38.4701 27.0072 38.4701 27.0328C38.4701 27.1867 38.3762 27.2636 38.2019 27.2636C37.9874 27.2636 37.8668 27.0841 37.8668 26.7251C37.8668 26.6354 37.907 26.3149 38.0009 25.7636C38.1081 25.1225 38.1617 24.6995 38.1617 24.5071C38.1617 24.0071 37.9606 23.7635 37.5451 23.7635C37.0759 23.7635 36.6737 24.0584 36.3653 24.6353C36.1106 25.1097 35.9766 25.5969 35.9766 26.0969C35.9766 26.5713 36.1509 26.8021 36.486 26.8021C36.7809 26.8021 37.0088 26.6097 37.1563 26.2251C37.1965 26.1226 37.2769 26.0713 37.3842 26.0713C37.5451 26.0713 37.6255 26.1482 37.6255 26.3149C37.6255 26.4687 37.5317 26.6482 37.3306 26.8662C37.0759 27.1354 36.7675 27.2636 36.4056 27.2636C36.0838 27.2636 35.8425 27.1354 35.6682 26.879C35.5208 26.661 35.4404 26.3918 35.4404 26.0713C35.4404 25.4302 35.628 24.8277 36.0034 24.2507C36.4458 23.6225 36.9686 23.2892 37.5987 23.2892ZM27.303 23.2892C28.027 23.2892 28.3889 23.6866 28.3889 24.4815C28.3889 24.8405 28.3353 25.2892 28.228 25.8405C28.1476 26.2636 28.1074 26.5713 28.1074 26.7508C28.1074 26.7892 28.1208 26.8405 28.1476 26.9046C28.1744 26.9687 28.1744 27.0072 28.1744 27.0328C28.1744 27.1867 28.0806 27.2636 27.9063 27.2636C27.6918 27.2636 27.5712 27.0841 27.5712 26.7251C27.5712 26.6354 27.6114 26.3149 27.7052 25.7636C27.8125 25.1225 27.8661 24.6995 27.8661 24.5071C27.8661 24.0071 27.665 23.7635 27.2494 23.7635C26.7802 23.7635 26.378 24.0584 26.0697 24.6353C25.815 25.1097 25.681 25.5969 25.681 26.0969C25.681 26.5713 25.8552 26.8021 26.1904 26.8021C26.4853 26.8021 26.7132 26.6097 26.8607 26.2251C26.9009 26.1226 26.9813 26.0713 27.0886 26.0713C27.2494 26.0713 27.3299 26.1482 27.3299 26.3149C27.3299 26.4687 27.236 26.6482 27.0349 26.8662C26.7802 27.1354 26.4719 27.2636 26.1099 27.2636C25.7882 27.2636 25.5469 27.1354 25.3726 26.879C25.2252 26.661 25.1447 26.3918 25.1447 26.0713C25.1447 25.4302 25.3324 24.8277 25.7078 24.2507C26.1501 23.6225 26.6864 23.2892 27.303 23.2892ZM22.3965 24.1866C22.3965 24.1353 22.3965 24.0969 22.3965 24.0584C22.3965 22.8661 22.1955 21.9174 21.8067 21.2122C21.3107 21.6353 20.9353 22.2122 20.6672 22.9302C20.4259 23.5712 20.3052 24.2507 20.3052 24.943C20.3052 25.3789 20.3589 25.7764 20.4795 26.1226C20.6404 26.6354 20.9085 26.8918 21.257 26.8918C21.686 26.8918 21.9944 26.52 22.1955 25.7636C22.3295 25.2507 22.3965 24.7251 22.3965 24.1866ZM23.6969 20.084C24.327 20.084 24.8498 20.2635 25.2922 20.6225C25.7212 20.9814 25.9357 21.4558 25.9357 22.0584C25.9357 22.584 25.7212 23.0584 25.2922 23.4558C24.8766 23.8661 24.3806 24.0841 23.8175 24.0841C23.6433 24.0841 23.5628 23.9943 23.5628 23.8276C23.5628 23.6866 23.6433 23.6097 23.8041 23.5969C24.2331 23.5712 24.6085 23.4174 24.9302 23.1097C25.252 22.8148 25.4128 22.4686 25.4128 22.0584C25.4128 21.5968 25.252 21.2379 24.9302 20.9686C24.5951 20.6994 24.1929 20.5584 23.6969 20.5584C23.1741 20.5584 22.6915 20.6737 22.2625 20.9173C22.7183 21.7379 22.9596 22.7892 22.9596 24.0841C22.9596 24.8533 22.8657 25.52 22.6647 26.0841C22.3697 26.9174 21.9005 27.3405 21.2705 27.3405C20.2918 27.3405 19.8092 26.5456 19.8092 24.943C19.8092 24.1482 19.9567 23.3917 20.2516 22.6738C20.5599 21.9045 21.0157 21.2763 21.5922 20.7891C21.2034 20.3276 20.7342 20.084 20.1846 20.084C20.0103 20.084 19.9299 20.0071 19.9299 19.8532C19.9299 19.6865 20.0103 19.6096 20.1846 19.6096C20.9219 19.6096 21.5118 19.9045 21.981 20.5199C22.4904 20.225 23.0668 20.084 23.6969 20.084Z" fill="black"/>
<path fill-rule="evenodd" clip-rule="evenodd" d="M33.1075 44.2764C24.6887 46.4302 16.0419 41.6609 13.7898 33.6095C11.5376 25.5581 16.5246 17.2887 24.9434 15.1348C33.3622 12.981 42.009 17.7503 44.2611 25.8017C44.2746 25.8658 44.288 25.9171 44.3148 25.9812C42.0358 18.2375 33.6572 13.6605 25.5064 15.7502C17.2887 17.8528 12.4224 25.9299 14.6209 33.7762C16.8061 41.5712 25.1311 46.2251 33.2952 44.2379C33.2282 44.2507 33.1746 44.2635 33.1075 44.2764ZM28.764 50.1226L27.9061 50.5201C27.6246 50.6483 27.3296 50.7508 27.0213 50.8277C26.4314 50.9944 25.6137 50.8149 25.1043 50.5072C23.9782 49.8406 22.7985 49.379 21.5249 49.0328C20.5061 48.7508 19.4604 48.5457 18.4282 48.2636C16.243 47.6482 14.8891 46.6995 13.5887 44.9046C12.9854 44.0584 12.4626 43.1738 11.8593 42.3276C11.122 41.2763 10.2909 40.3404 9.28543 39.5327C8.81622 39.1609 8.40065 38.4686 8.37384 37.8916C8.36043 37.5839 8.37383 37.2891 8.41405 36.9814L8.54811 36.0711L7.87782 35.4172C7.66333 35.1993 7.47565 34.9557 7.30137 34.7121C6.96623 34.2249 6.88579 33.43 7.01985 32.8659C7.34159 31.6351 7.43543 30.4172 7.38181 29.1607C7.34159 28.1479 7.22094 27.1222 7.19413 26.1094C7.16732 25.1222 7.26115 24.1606 7.56949 23.2247C7.89123 22.2888 8.41405 21.4555 9.03072 20.6734C9.6742 19.8657 10.3981 19.1093 11.055 18.3144C11.8727 17.3272 12.543 16.2759 13.039 15.1092C13.2669 14.5707 13.8166 13.981 14.393 13.7759C14.688 13.6733 14.9963 13.5835 15.3046 13.5323L16.2564 13.3784L16.7122 12.5707C16.8597 12.3015 17.034 12.0579 17.2351 11.8271C17.6104 11.3656 18.3746 11.045 18.9778 11.0066C20.2916 10.9168 21.5383 10.622 22.7851 10.186C23.7905 9.82707 24.7557 9.41681 25.7612 9.07065C27.9195 8.33987 29.5818 8.33987 31.7401 9.07065C32.7456 9.41681 33.7108 9.82707 34.7162 10.186C35.9496 10.622 37.1963 10.9168 38.5235 11.0066C39.1267 11.045 39.8909 11.3656 40.2662 11.8271C40.4673 12.0707 40.6416 12.3143 40.789 12.5835L41.2314 13.3912L42.1698 13.5451C42.4782 13.5964 42.7731 13.6861 43.068 13.7887C43.6445 13.9938 44.1941 14.5836 44.422 15.122C44.918 16.2887 45.5883 17.34 46.4061 18.3272C47.063 19.1221 47.7869 19.8785 48.4303 20.6862C49.0604 21.4683 49.5832 22.3016 49.8916 23.2375C50.2133 24.1735 50.2938 25.135 50.2669 26.1222C50.2401 27.135 50.1195 28.1607 50.0793 29.1735C50.0256 30.43 50.1195 31.6608 50.4412 32.8787C50.5082 33.1095 50.5216 33.3916 50.5082 33.6608C50.401 33.6352 50.3072 33.6223 50.1999 33.5967C50.2133 33.3659 50.1999 33.1351 50.1463 32.9428C49.8245 31.6864 49.7173 30.4428 49.7709 29.1479C49.8111 28.1351 49.9318 27.1222 49.9586 26.0966C50.0122 23.9811 49.5162 22.5196 48.1756 20.8401C47.5322 20.0324 46.8082 19.2759 46.1514 18.4811C45.3068 17.4682 44.6365 16.4041 44.1271 15.199C43.9394 14.7374 43.4434 14.1989 42.9474 14.0323C42.6659 13.9297 42.3843 13.8528 42.1028 13.8015L41.0169 13.622L40.4941 12.6861C40.3601 12.4297 40.1858 12.1989 39.9981 11.9681C39.6764 11.5707 38.9793 11.2886 38.4698 11.263C37.1159 11.1732 35.8557 10.8784 34.5822 10.4296C33.5901 10.0835 32.6115 9.6604 31.6061 9.31424C29.5148 8.6091 27.9195 8.6091 25.8282 9.31424C24.8227 9.64758 23.8575 10.0707 22.8521 10.4296C21.5785 10.8784 20.3184 11.1732 18.9644 11.263C18.455 11.3015 17.7579 11.5707 17.4362 11.9681C17.2485 12.1861 17.0876 12.4169 16.9401 12.6733L16.4173 13.6092L15.318 13.7887C15.0231 13.84 14.7282 13.9169 14.4601 14.0194C13.9641 14.1861 13.4814 14.7374 13.2804 15.1861C12.7709 16.3913 12.0872 17.4426 11.2561 18.4682C10.5992 19.2631 9.87528 20.0195 9.23181 20.8272C7.89123 22.5068 7.39521 23.9683 7.44884 26.0837C7.47565 27.0966 7.5963 28.1094 7.63652 29.1351C7.69014 30.43 7.5963 31.6608 7.26116 32.93C7.1405 33.4044 7.20753 34.1223 7.48905 34.5454C7.64992 34.7762 7.8376 35.007 8.03869 35.2121L8.80282 35.9813L8.64195 37.0326C8.60173 37.3147 8.58833 37.6096 8.60174 37.8916C8.61514 38.3916 9.00391 39.007 9.40608 39.3276C10.4383 40.1609 11.2829 41.1096 12.0336 42.1866C12.6235 43.0327 13.1463 43.9174 13.7496 44.7635C15.0097 46.5072 16.2967 47.4046 18.4148 48.0072C19.4336 48.3021 20.4793 48.5072 21.4981 48.7764C22.7985 49.1226 24.005 49.597 25.1579 50.2893C25.6003 50.5457 26.3242 50.7124 26.8336 50.5713C27.1151 50.4944 27.3967 50.4047 27.6648 50.2765L28.6568 49.8149L29.6488 50.2893C29.9169 50.4175 30.1985 50.5072 30.4934 50.5842C31.0028 50.7252 31.7267 50.5585 32.1691 50.3021C33.322 49.6226 34.5151 49.1482 35.8289 48.7893C36.8477 48.5072 37.8934 48.3021 38.9122 48.02C39.4082 47.879 39.8909 47.7123 40.3467 47.4944L40.9499 47.2123L41.4191 46.879C41.4593 46.8533 41.4996 46.8277 41.5398 46.7892C41.58 46.7636 41.6202 46.7379 41.6604 46.7123L42.143 46.379L42.6122 45.9174C42.9608 45.5584 43.2825 45.1738 43.5774 44.7635C44.1807 43.9302 44.7035 43.0327 45.2934 42.1866C46.0441 41.1096 46.8887 40.1609 47.9209 39.3276C48.3097 39.007 48.6985 38.3916 48.7253 37.8916C48.7387 37.6096 48.7253 37.3275 48.6851 37.0455L48.5242 35.9942L48.7789 35.7506L49.1274 35.8275L48.8593 36.0967L48.9934 37.007C49.0336 37.3019 49.047 37.6096 49.0336 37.9045C49.0068 38.4942 48.5912 39.1737 48.122 39.5455C47.1166 40.3532 46.2854 41.2891 45.5481 42.3404C44.9582 43.1866 44.4354 44.0712 43.8188 44.9174C43.5238 45.3405 43.1887 45.7379 42.8267 46.0969L42.3441 46.5841L41.8481 46.9303C41.8079 46.9559 41.7677 46.9815 41.7274 47.0072C41.6872 47.0328 41.647 47.0585 41.6068 47.0969L41.1108 47.4431L40.4807 47.738C39.9981 47.9559 39.5021 48.1354 38.9927 48.2764C37.9738 48.5713 36.9282 48.7764 35.8959 49.0457C34.6224 49.3918 33.4427 49.8534 32.3166 50.5201C31.8072 50.8278 30.9894 50.9944 30.3996 50.8406C30.0912 50.7636 29.7963 50.6611 29.5014 50.5201L28.764 50.1226ZM51.0445 36.7378C51.0981 37.1352 51.1115 37.5327 51.0981 37.9686C51.0579 39.084 50.3876 40.2635 49.4894 40.9814C47.559 42.5327 46.9021 44.0969 45.5481 45.9815C45.1861 46.4943 44.7974 46.9687 44.355 47.3918L43.1082 48.4431C43.068 48.4687 43.0278 48.5072 42.9876 48.5328C42.9474 48.5585 42.8938 48.5969 42.8535 48.6226L41.4191 49.4303C40.8561 49.6867 40.2662 49.8918 39.6496 50.0713C37.3438 50.7252 35.5876 50.8406 33.4561 52.1098C32.464 52.6996 31.0967 52.9432 29.9706 52.6355C29.5416 52.5201 29.126 52.3791 28.7506 52.1996C28.3753 52.3791 27.9731 52.5073 27.5441 52.6226C26.418 52.9303 25.0372 52.6739 24.0586 52.097C21.9271 50.8277 20.1709 50.7124 17.8651 50.0585C15.184 49.3021 13.5619 48.1739 11.9666 45.9687C10.6126 44.084 9.94231 42.5199 8.02528 40.9686C7.1405 40.2507 6.45681 39.0711 6.41659 37.9557C6.40318 37.5198 6.41659 37.1096 6.47021 36.7121C6.17528 36.4301 5.92057 36.1096 5.67927 35.7506C5.02239 34.8275 4.84811 33.4941 5.12963 32.4172C5.73289 30.0838 5.30391 28.4428 5.25029 26.1607C5.18326 23.4811 5.79992 21.6606 7.50246 19.5324C8.96369 17.7118 10.3043 16.6349 11.2561 14.4041C11.6985 13.3784 12.6503 12.404 13.7496 12.0194C14.1785 11.8656 14.5807 11.7502 15.0097 11.6861C15.2108 11.3271 15.4387 10.9938 15.7202 10.6604C16.4441 9.77579 17.7043 9.21167 18.8706 9.12193C21.3775 8.95526 22.8789 8.05781 25.1311 7.28857C27.772 6.39112 29.7695 6.39112 32.4104 7.28857C34.676 8.05781 36.164 8.94244 38.6709 9.12193C39.8238 9.19885 41.0974 9.77579 41.8213 10.6604C42.1028 10.9938 42.3441 11.3399 42.5452 11.6989C42.9608 11.763 43.363 11.8784 43.7785 12.0322C44.8778 12.4169 45.843 13.3912 46.272 14.4169C47.2238 16.6477 48.5644 17.7246 50.0256 19.5452C51.7282 21.6734 52.3448 23.494 52.2778 26.1735C52.2108 28.4684 51.7952 30.0966 52.3985 32.43C52.5325 32.9685 52.5593 33.5711 52.4789 34.148C52.3314 34.1095 52.184 34.0582 52.0365 34.0198C52.1035 33.5198 52.0767 32.9941 51.9561 32.5326C51.6611 31.4172 51.5941 30.3659 51.6343 29.2248C51.6746 28.1992 51.7952 27.1863 51.822 26.1479C51.889 23.6222 51.2724 21.8016 49.6637 19.8016C49.0068 18.9811 48.2829 18.2246 47.626 17.4298C46.8887 16.5323 46.2988 15.6349 45.8564 14.5707C45.4677 13.6605 44.6097 12.7758 43.6311 12.4297C43.2557 12.3015 42.8669 12.1861 42.4782 12.122L42.2503 12.0835L42.143 11.8912C41.9554 11.545 41.7275 11.2245 41.4727 10.9168C40.8293 10.1348 39.6764 9.62194 38.6575 9.55783C37.4644 9.48091 36.3919 9.2245 35.2659 8.82705C34.2604 8.46807 33.2818 8.04499 32.2764 7.71165C29.7963 6.86548 27.7854 6.86548 25.3054 7.71165C24.2865 8.05781 23.3213 8.48089 22.3159 8.82705C21.1898 9.2245 20.1173 9.48091 18.9242 9.55783C17.892 9.62194 16.7525 10.1348 16.109 10.9168C15.8677 11.2245 15.6398 11.5322 15.4387 11.8784L15.3314 12.0707L15.1035 12.1092C14.7014 12.1733 14.3126 12.2886 13.9238 12.4169C12.9452 12.763 12.0872 13.6476 11.6985 14.5579C11.2427 15.622 10.6662 16.5195 9.92891 17.4169C9.25862 18.2246 8.54811 18.9811 7.89123 19.7888C6.28253 21.7888 5.66586 23.6093 5.73289 26.135C5.7597 27.1607 5.88036 28.1863 5.92058 29.212C5.9742 30.3531 5.89376 31.4043 5.59883 32.5198C5.35753 33.4813 5.50499 34.6865 6.08144 35.507C6.30934 35.8275 6.55065 36.1352 6.83217 36.4044L6.99304 36.5583L6.96623 36.7762C6.9126 37.1609 6.8992 37.5583 6.9126 37.9429C6.95282 38.9429 7.56949 39.9942 8.36043 40.6353C9.27202 41.3789 9.98253 42.1866 10.6528 43.1353C11.2427 43.9943 11.7789 44.8789 12.3822 45.7251C13.8702 47.8021 15.5057 48.9303 18.026 49.6482C19.0583 49.9431 20.1039 50.1483 21.1362 50.4303C22.2891 50.738 23.3079 51.1354 24.3267 51.738C25.1981 52.2637 26.4448 52.4944 27.4503 52.2124C27.839 52.1098 28.2144 51.9816 28.5764 51.8149L28.7775 51.7252L28.9785 51.8149C29.3405 51.9816 29.7293 52.1226 30.118 52.2252C31.1235 52.4944 32.3702 52.2637 33.2416 51.7508C34.2604 51.1483 35.2793 50.7508 36.4322 50.4431C37.4644 50.1611 38.5101 49.9559 39.5423 49.6611C40.1322 49.4944 40.6952 49.2893 41.2448 49.0457L42.5988 48.2892C42.639 48.2636 42.6927 48.2251 42.7329 48.1995C42.7731 48.1739 42.8133 48.1482 42.8535 48.1098L43.7651 47.379L44.0332 47.1097C44.4488 46.6867 44.8242 46.2251 45.1727 45.7507C45.776 44.9046 46.3122 44.0071 46.9021 43.161C47.5724 42.2122 48.2829 41.4045 49.1945 40.6609C49.9854 40.0327 50.6021 38.9686 50.6423 37.9686C50.6557 37.5839 50.6423 37.1993 50.5887 36.8275L50.5619 36.6096L50.7227 36.4557C50.7898 36.3916 50.8568 36.3147 50.9238 36.2506L51.259 36.3275L51.4735 36.3147C51.3394 36.4429 51.1919 36.5967 51.0445 36.7378Z" fill="black"/>
<path fill-rule="evenodd" clip-rule="evenodd" d="M32.3302 35.5325C32.3168 36.353 31.2309 36.4941 30.9092 35.3659C30.8019 35.4556 30.7483 35.5838 30.7483 35.7761C30.7483 35.9684 30.936 36.1736 31.3247 36.3915C31.9682 36.7505 32.29 37.1608 32.29 37.6223C32.29 38.0069 32.1559 38.3018 31.8878 38.5197C31.861 38.5326 31.8476 38.5582 31.8208 38.571C32.0889 39.5582 31.7537 40.7634 30.5204 41.5839C28.6302 42.8403 27.7052 42.4429 26.0697 44.366C26.0027 44.4686 25.8552 44.4942 25.7614 44.4301C25.6541 44.366 25.6273 44.225 25.6943 44.1352C27.4773 42.0326 28.2682 42.5455 30.2657 41.2249C31.2845 40.5582 31.566 39.571 31.3918 38.7762C31.2309 38.8274 31.0432 38.8531 30.8555 38.8531C30.5338 38.8531 30.2523 38.7762 29.9976 38.6223C29.716 38.4556 29.5686 38.2121 29.5686 37.93C29.5686 37.6992 29.649 37.4941 29.7965 37.3402C29.9439 37.1864 30.145 37.1095 30.3863 37.1095C30.5606 37.1095 30.6947 37.1479 30.7617 37.2249C31.1505 37.43 31.4454 37.7633 31.6465 38.1351C31.7135 38.0197 31.7537 37.8787 31.7537 37.6992C31.7537 37.3531 31.5258 37.071 31.0834 36.8402C30.507 36.5454 30.2255 36.1992 30.2255 35.7889C30.2255 35.5069 30.3327 35.2761 30.5606 35.0966C30.641 35.0325 30.7349 34.9684 30.8421 34.9299C30.8153 34.5069 30.8689 33.9684 31.0432 33.3017L30.507 33.1863C30.145 33.7633 29.6088 34.1863 28.8179 33.9171C27.9465 33.6222 27.6784 33.135 27.7588 32.5838C26.9679 32.4043 26.1903 32.2376 25.386 32.0581C25.4128 31.9299 25.4262 31.8145 25.4664 31.6607L27.9465 31.994C28.0001 31.8786 28.0671 31.7504 28.1476 31.635L25.5871 31.0581C25.6139 30.9299 25.6407 30.8145 25.6675 30.6606L28.59 31.0196C28.6704 30.9171 28.7508 30.8273 28.8313 30.7376L25.7748 30.1222C25.8016 29.994 25.8284 29.8786 25.8552 29.7247L29.3809 30.1606C29.4747 30.0581 29.5686 29.9683 29.6624 29.8786L25.9758 29.0837C26.0027 28.9298 26.0295 28.8145 26.0563 28.6606C26.6998 28.7504 27.3298 28.8401 27.9599 28.9427C28.7374 29.058 29.5284 29.1734 30.3059 29.2888C30.507 29.0965 30.6813 28.9555 30.7751 28.8657C31.1371 28.4939 31.2309 27.8914 31.1505 27.3401C31.0298 27.3657 30.8958 27.3785 30.7617 27.3785C30.44 27.3785 30.1584 27.3016 29.9037 27.1478C29.6222 26.9811 29.4747 26.7375 29.4747 26.4554C29.4747 26.2247 29.5552 26.0195 29.7026 25.8657C29.8501 25.7118 30.0512 25.6349 30.2925 25.6349C30.4668 25.6349 30.5874 25.6734 30.6545 25.7503C31.0298 25.9554 31.2979 26.3144 31.4722 26.7503C31.5929 26.6221 31.6465 26.4554 31.6465 26.2247C31.6465 25.8785 31.4186 25.5965 30.9762 25.3657C30.3997 25.0708 30.1182 24.7246 30.1182 24.3144C30.1182 24.1092 30.1718 23.9298 30.2925 23.7759C29.1932 21.1733 33.6573 21.34 31.5929 15.5963L31.4722 15.2629C31.432 15.1476 31.499 15.0322 31.6063 14.9937C31.7269 14.9552 31.8476 15.0193 31.8878 15.1219C34.1936 21.5323 30.1584 20.6733 30.7081 23.4682C30.8689 23.4041 31.0432 23.3656 31.2309 23.3656C31.4454 23.3656 31.6465 23.4297 31.861 23.5451C32.0889 23.6862 32.2095 23.8528 32.2095 24.0451V24.058C32.357 25.0964 31.1907 24.8144 30.6276 24.3016V24.3144C30.6276 24.5067 30.8153 24.7118 31.2041 24.9298C31.8476 25.2888 32.1693 25.699 32.1693 26.1606C32.1693 26.5452 32.0352 26.8401 31.7671 27.058C31.7135 27.1093 31.6465 27.1478 31.5795 27.1862C31.7135 27.8914 31.5795 28.6862 31.07 29.1863C31.0432 29.2119 30.9762 29.276 30.8555 29.3786L31.2175 29.4298C31.5258 28.8657 31.9146 28.2632 32.6117 28.0965C33.7512 27.8144 33.5233 28.8401 33.1613 29.7247C33.6305 29.7888 34.1131 29.8658 34.5823 29.9299C34.7566 29.9555 34.8371 30.0324 34.9175 30.1863C35.1186 30.6222 35.3331 31.0453 35.5476 31.4555C35.132 31.1991 34.77 30.8401 34.4751 30.417C34.4215 30.3273 34.3142 30.2376 34.2204 30.2247C33.8182 30.1735 33.4026 30.135 32.9871 30.1094C32.9468 30.1863 32.9066 30.2632 32.8798 30.3401L33.8316 30.8273L32.5849 30.8786C32.5313 30.994 32.4642 31.0965 32.4106 31.1991L33.4697 31.6607C33.4697 31.6735 33.4697 31.6991 33.4697 31.7119C33.0139 31.7504 32.5581 31.8017 32.1023 31.8401C32.0621 31.9299 32.0218 32.0068 31.995 32.0837L33.282 32.5966C33.282 32.6222 33.2954 32.635 33.2954 32.6607C32.7994 32.7632 32.3168 32.8658 31.8208 32.9684C31.8208 32.994 31.8208 33.0068 31.8208 33.0325C32.2766 33.1094 32.7323 33.1735 33.1881 33.2889C33.5367 33.3786 33.845 33.353 34.1131 33.1094C34.1534 33.0709 34.1936 33.0581 34.2338 33.0325C34.9309 32.5325 35.6548 32.4043 36.5396 32.5838C41.2718 33.5581 45.6019 34.5838 50.2671 35.6479L50.5486 36.1736C45.7225 35.0197 40.816 34.0069 36.0034 32.8402C35.695 32.7632 35.4269 32.8273 35.199 33.0068C34.8773 33.2632 34.5555 33.5325 34.274 33.8145C34.14 33.9427 34.0595 34.0069 33.8584 33.9684C33.0809 33.7889 32.29 33.6222 31.5124 33.4427C31.3516 34.0453 31.2979 34.5197 31.3113 34.8787C31.3381 34.8787 31.3516 34.8787 31.3784 34.8787C31.5929 34.8787 31.7939 34.9428 32.0084 35.0582C32.2363 35.1992 32.357 35.3659 32.357 35.5582C32.3302 35.5069 32.3302 35.5197 32.3302 35.5325ZM31.3381 32.4427C31.3516 32.4171 31.365 32.3786 31.3784 32.353L30.936 32.2504C30.9226 32.2889 30.8958 32.3402 30.8824 32.3786L31.3381 32.4427ZM31.7805 31.3914C31.7939 31.3658 31.8074 31.3401 31.8208 31.3145L31.2175 31.1991L31.1773 31.3145L31.7805 31.3914ZM31.995 30.9812C32.0218 30.9427 32.0353 30.9042 32.0621 30.853L31.861 30.8658C31.861 30.8786 31.8476 30.9042 31.8476 30.9171L31.995 30.9812ZM32.2497 30.494C32.2631 30.4683 32.2766 30.4555 32.29 30.4299L31.4722 30.2504L31.4454 30.3914L32.2497 30.494ZM32.4642 30.0965C32.4776 30.0837 32.4776 30.0709 32.491 30.0581C32.4508 30.0581 32.424 30.0581 32.3838 30.0581L32.4642 30.0965ZM32.6921 29.6222C33.5635 27.6862 32.3034 28.5068 31.6867 29.4683C32.0218 29.5196 32.357 29.5709 32.6921 29.6222ZM30.1718 29.9683C30.0914 30.0452 30.011 30.1222 29.9305 30.1991L30.9896 30.3273L31.0298 30.1478L30.1718 29.9683ZM29.3273 30.8273C29.2468 30.9042 29.1798 30.994 29.1128 31.0709L30.7483 31.276L30.7885 31.1222L29.3273 30.8273ZM28.6168 31.7248C28.5497 31.8273 28.4827 31.9427 28.4291 32.0453L30.4266 32.3145C30.4534 32.2632 30.4668 32.1991 30.4936 32.1478L28.6168 31.7248ZM28.2146 32.6735C28.1744 33.0838 28.4023 33.4043 29.0726 33.5325C29.5552 33.6222 29.8367 33.4043 30.0512 33.0838C29.7161 33.0068 29.3809 32.9299 29.0458 32.8658C28.7642 32.7889 28.4961 32.7248 28.2146 32.6735ZM31.8073 32.4427C31.7939 32.4684 31.7939 32.4812 31.7805 32.494L31.995 32.5196C31.995 32.5068 31.995 32.494 32.0084 32.4812L31.8073 32.4427ZM49.6236 33.494C45.6689 32.9299 41.8885 32.4299 37.907 31.9427C37.907 31.9684 37.8936 31.994 37.8936 32.0196C38.8588 32.1991 39.824 32.3658 40.7758 32.5453C43.8055 33.1222 46.728 33.5966 49.7845 34.0838L49.6236 33.494ZM50.5084 33.9812C50.7229 34.5069 50.9106 34.9684 51.1117 35.4171C51.1385 35.4812 51.2457 35.5325 51.3127 35.5453C51.8356 35.6479 52.3718 35.7505 52.8946 35.8146C53.1761 35.853 53.4711 35.8402 53.7392 35.7889C53.8867 35.7633 54.0475 35.6223 54.1011 35.4812C54.1414 35.3915 54.0207 35.212 53.9269 35.1094C53.833 35.0069 53.699 34.9299 53.5649 34.8658C52.6399 34.4428 51.6479 34.1607 50.5084 33.9812ZM54.6106 35.1223C55.2138 35.6223 55.12 36.3146 54.3022 36.4813C53.2834 36.6864 52.1975 36.5197 50.7229 36.1736C50.5218 35.8018 50.3609 35.4043 50.2135 34.994C50.0392 34.494 49.8917 34.0068 49.7711 33.494C50.0526 33.5325 50.3609 33.571 50.6291 33.5966C50.8838 33.6222 51.1519 33.6863 51.4468 33.7376C52.5863 34.0069 53.7124 34.3658 54.6106 35.1223ZM31.0432 26.9298C30.9226 26.558 30.7081 26.2503 30.4534 26.1221C30.3327 26.0965 30.2657 26.0836 30.2657 26.0836C30.078 26.0836 29.9842 26.199 29.9842 26.417C29.9842 26.5708 30.078 26.699 30.2523 26.8144C30.4132 26.917 30.574 26.9683 30.7483 26.9683C30.8555 26.9426 30.9494 26.9426 31.0432 26.9298ZM30.6008 37.5967C30.4802 37.571 30.4132 37.5582 30.4132 37.5582C30.2255 37.5582 30.1316 37.6736 30.1316 37.8915C30.1316 38.0454 30.2255 38.1736 30.3997 38.289C30.5606 38.3915 30.7215 38.4428 30.8958 38.4428C31.0432 38.4428 31.1773 38.43 31.2979 38.3915C31.1505 38.0454 30.9092 37.7633 30.6008 37.5967ZM30.8287 23.8528C31.0298 24.1221 31.6867 24.5452 31.7537 24.2118C31.7403 24.1862 31.7269 24.1605 31.7135 24.1349C31.6331 23.8913 31.4722 23.7759 31.2041 23.7759C31.0432 23.7631 30.9226 23.8015 30.8287 23.8528ZM31.3516 35.2505C31.4856 35.7633 31.7939 35.853 31.861 35.6479C31.861 35.6351 31.8476 35.6223 31.8476 35.6094C31.7805 35.3658 31.6063 35.2505 31.3516 35.2505Z" fill="black"/>
</g>
</svg>
